{"glyphs":{"0":{"ha":758,"x_min":42,"x_max":771,"o":"m 329 -12 q 108 67 175 -12 q 42 353 42 147 q 176 847 42 653 q 524 1042 310 1042 q 710 952 649 1042 q 771 679 771 863 q 743 460 771 575 q 667 247 715 344 q 516 55 603 122 q 329 -12 429 -12 m 514 969 q 419 908 471 969 q 326 746 367 846 q 283 606 300 681 q 261 451 267 531 q 256 361 257 386 q 254 314 254 336 q 275 157 254 210 q 336 104 296 104 q 517 301 444 104 q 589 768 589 497 q 571 925 589 881 q 514 969 553 969 z "},"1":{"ha":440,"x_min":29,"x_max":450,"o":"m 97 931 q 274 957 190 931 q 450 1039 357 983 l 229 0 l 29 0 l 213 867 l 81 867 l 97 931 z "},"2":{"ha":683,"x_min":-15,"x_max":642,"o":"m 342 374 q 208 258 246 297 q 147 183 169 218 l 154 183 q 199 181 175 183 q 271 172 222 179 q 359 161 328 164 q 419 158 390 158 q 478 164 453 158 q 525 183 503 169 q 553 206 532 189 q 606 254 574 224 q 607 230 607 243 q 607 193 607 217 q 569 29 607 74 q 442 -15 532 -15 q 364 -10 401 -15 q 264 10 326 -6 q 169 30 204 25 q 97 35 135 35 q 69 30 86 35 q 18 8 53 25 q -2 0 4 3 q -12 -4 -8 -3 q -15 13 -14 4 q -15 42 -15 22 q 25 194 -15 118 q 197 406 65 269 q 307 524 272 483 q 365 604 342 565 q 423 726 404 665 q 442 851 442 788 q 416 932 442 899 q 357 965 390 965 q 271 940 297 965 q 244 853 244 915 q 259 792 244 819 q 297 758 274 765 q 244 723 271 735 q 192 711 218 711 q 119 745 146 711 q 92 836 92 779 q 168 983 92 926 q 378 1040 244 1040 q 576 984 510 1040 q 642 817 642 928 q 617 687 642 750 q 544 563 593 624 q 472 485 514 525 q 342 374 431 446 z "},"3":{"ha":714,"x_min":8,"x_max":692,"o":"m 8 229 q 53 374 8 321 q 176 428 97 428 q 250 410 222 428 q 285 357 278 392 q 193 315 224 353 q 163 207 163 276 q 188 114 163 144 q 268 83 214 83 q 406 151 351 83 q 461 318 461 219 q 413 479 461 408 q 276 581 364 550 q 447 688 381 610 q 514 851 514 767 q 485 935 514 904 q 408 965 457 965 q 328 935 358 965 q 299 857 299 906 q 313 793 299 821 q 351 758 326 765 q 299 723 326 735 q 246 711 272 711 q 174 744 201 711 q 146 829 146 776 q 228 981 146 921 q 433 1040 310 1040 q 622 984 551 1040 q 692 838 692 928 q 641 693 692 763 q 501 579 590 624 q 631 492 586 551 q 676 350 676 432 q 644 213 676 281 q 553 93 611 144 q 430 19 499 44 q 285 -7 361 -7 q 82 53 156 -7 q 8 229 8 114 z "},"4":{"ha":661,"x_min":11,"x_max":690,"o":"m 468 0 l 268 0 l 350 382 l 11 382 q 34 442 19 408 q 85 551 49 476 q 188 801 163 715 q 214 958 214 888 q 212 1001 214 981 q 204 1042 210 1022 q 315 1006 272 1042 q 358 910 358 969 q 341 801 358 856 q 286 685 324 747 q 222 589 268 656 q 156 485 176 522 l 372 485 l 485 1014 l 690 1042 l 571 485 l 660 485 l 632 382 l 549 382 l 468 0 z "},"5":{"ha":718,"x_min":21,"x_max":697,"o":"m 219 1019 q 317 1008 219 1019 q 469 996 414 996 q 582 1006 528 996 q 694 1040 636 1017 q 697 1012 696 1021 q 697 994 697 1003 q 656 875 697 917 q 538 833 615 833 q 479 838 513 833 q 379 856 446 842 q 331 864 346 861 q 306 868 317 867 l 250 617 q 338 649 294 638 q 424 660 382 660 q 603 581 538 660 q 668 372 668 503 q 560 98 668 203 q 265 -7 453 -7 q 81 43 142 -7 q 21 193 21 93 q 71 338 21 285 q 201 390 121 390 q 268 372 243 390 q 300 319 293 354 q 208 278 240 313 q 175 186 175 243 q 205 112 175 138 q 289 86 235 86 q 416 161 367 86 q 465 342 465 236 q 425 490 465 438 q 313 543 385 543 q 220 524 271 543 q 106 465 169 506 l 219 1019 z "},"6":{"ha":690,"x_min":22,"x_max":679,"o":"m 508 394 q 490 493 508 457 q 435 529 471 529 q 369 503 399 529 q 313 424 339 476 q 292 464 299 443 q 285 504 285 485 q 342 603 285 563 q 481 643 399 643 q 617 578 567 643 q 668 414 668 513 q 558 115 668 238 q 293 -7 447 -7 q 89 59 156 -7 q 22 268 22 125 q 22 299 22 289 q 24 319 22 310 q 176 851 46 661 q 519 1042 306 1042 q 635 1008 590 1042 q 679 926 679 974 q 646 862 679 888 q 556 833 613 836 q 572 856 567 843 q 578 883 578 869 q 558 936 578 914 q 508 958 538 958 q 387 893 447 958 q 285 707 326 828 q 242 550 260 638 q 214 358 225 463 q 208 297 210 321 q 207 253 207 272 q 230 136 207 171 q 318 101 253 101 q 447 194 386 101 q 508 394 508 286 z "},"7":{"ha":644,"x_min":46,"x_max":711,"o":"m 67 903 q 113 1008 67 975 q 256 1042 158 1042 l 711 1042 q 469 666 621 908 q 293 368 317 424 q 260 273 271 318 q 249 189 249 228 q 264 115 249 146 q 317 54 279 85 q 276 13 307 26 q 189 0 244 0 q 79 42 113 0 q 46 174 46 83 q 85 357 46 260 q 208 572 125 454 q 310 707 251 633 q 483 913 369 781 q 424 919 454 917 q 365 921 393 921 q 195 896 268 921 q 78 822 122 871 q 69 866 72 846 q 67 903 67 886 z "},"8":{"ha":693,"x_min":-11,"x_max":693,"o":"m 667 363 q 635 226 667 296 q 547 103 603 157 q 424 22 492 50 q 282 -7 356 -7 q 70 73 151 -7 q -11 272 -11 153 q 56 463 -11 379 q 239 579 124 547 q 151 661 182 613 q 121 768 121 710 q 211 958 121 876 q 431 1040 301 1040 q 622 985 551 1040 q 693 839 693 929 q 641 693 693 764 q 499 579 589 622 q 623 498 579 554 q 667 363 667 442 m 449 974 q 344 921 385 974 q 303 792 303 868 q 322 699 303 743 q 376 626 342 656 q 478 738 439 668 q 517 876 517 808 q 499 947 517 921 q 449 974 481 974 m 361 532 q 237 396 283 481 q 190 226 190 311 q 217 129 190 165 q 289 93 243 93 q 402 163 356 93 q 449 326 449 232 q 426 442 449 389 q 361 532 403 496 z "},"9":{"ha":679,"x_min":40,"x_max":675,"o":"m 206 649 q 226 544 206 582 q 283 506 246 506 q 356 526 328 506 q 400 589 383 546 q 422 553 414 571 q 429 519 429 536 q 374 429 429 467 q 243 392 319 392 q 101 461 154 392 q 47 635 47 531 q 151 924 47 807 q 407 1042 256 1042 q 608 962 542 1042 q 675 715 675 882 q 546 192 675 392 q 204 -7 417 -7 q 87 32 133 -7 q 40 125 40 71 q 69 203 40 178 q 160 228 99 228 q 145 206 150 218 q 140 181 140 194 q 162 126 140 150 q 214 103 183 103 q 405 251 329 103 q 501 676 481 399 q 503 726 503 714 q 504 749 504 739 q 478 903 504 857 q 382 950 451 950 q 260 855 315 950 q 206 649 206 760 z "},"\u0000":{"ha":1,"x_min":0,"x_max":0,"o":""},"\r":{"ha":1,"x_min":0,"x_max":0,"o":""}," ":{"ha":301,"x_min":0,"x_max":0,"o":""},"!":{"ha":357,"x_min":47,"x_max":435,"o":"m 235 972 l 435 972 l 254 321 l 136 321 l 235 972 m 47 111 q 80 189 47 157 q 158 221 113 221 q 236 189 204 221 q 268 111 268 157 q 236 33 268 65 q 158 0 204 0 q 80 33 113 0 q 47 111 47 65 z "},"\"":{"ha":583,"x_min":86,"x_max":535,"o":"m 535 1042 l 408 779 l 304 779 l 389 1042 l 535 1042 m 317 1042 l 190 779 l 86 779 l 171 1042 l 317 1042 z "},"#":{"ha":915,"x_min":63,"x_max":789,"o":"m 486 296 l 515 453 l 364 453 l 329 296 l 486 296 m 547 154 l 506 -37 l 426 -37 l 461 154 l 297 154 l 256 -37 l 176 -37 l 211 154 l 63 154 l 92 296 l 236 296 l 265 453 l 124 453 l 153 594 l 290 594 l 363 997 l 485 997 l 394 594 l 540 594 l 613 997 l 735 997 l 644 594 l 789 594 l 761 453 l 614 453 l 579 296 l 728 296 l 700 154 l 547 154 z "},"$":{"ha":560,"x_min":33,"x_max":506,"o":"m 303 797 q 249 763 268 790 q 231 694 231 735 q 240 650 231 671 q 269 610 250 629 l 303 797 m 243 200 q 311 238 288 206 q 335 325 335 271 q 325 379 335 353 q 294 431 315 406 l 243 200 m 231 149 l 190 -37 l 153 -37 l 186 150 q 72 196 111 156 q 33 308 33 236 q 62 394 33 360 q 133 428 90 428 q 176 418 160 428 q 193 393 193 408 q 151 363 165 389 q 138 290 138 336 q 153 241 138 264 q 196 206 169 218 l 246 478 q 203 513 238 485 q 150 558 168 540 q 111 611 124 585 q 99 668 99 638 q 163 794 99 740 q 313 850 228 847 l 339 997 l 419 997 l 385 846 q 475 807 444 836 q 506 731 506 778 q 488 653 506 682 q 439 625 469 625 q 412 632 424 625 q 385 657 400 639 q 410 685 401 667 q 418 729 418 704 q 406 765 418 747 q 374 790 394 782 l 324 567 q 451 458 421 504 q 481 354 481 413 q 413 206 481 261 q 231 149 346 151 z "},"%":{"ha":894,"x_min":149,"x_max":846,"o":"m 168 0 l 704 1042 l 804 1042 l 268 0 l 168 0 m 282 519 q 180 555 211 519 q 149 678 149 590 q 211 891 149 807 q 374 975 274 975 q 460 936 432 975 q 488 818 488 897 q 428 613 488 707 q 282 519 368 519 m 404 839 q 396 906 404 886 q 369 926 388 926 q 295 867 332 926 q 251 721 258 807 q 249 690 250 704 q 249 661 249 675 q 258 594 249 617 q 286 571 268 571 q 371 648 338 571 q 404 839 404 725 m 626 0 q 524 35 556 0 q 493 158 493 71 q 556 372 493 288 q 718 456 618 456 q 813 415 779 456 q 846 299 846 374 q 786 88 846 176 q 626 0 726 0 m 738 310 q 728 379 738 354 q 699 404 718 404 q 629 347 663 404 q 589 201 596 289 q 587 170 588 185 q 586 142 586 156 q 596 74 586 97 q 624 51 606 51 q 706 124 675 51 q 738 310 738 196 z "},"&":{"ha":947,"x_min":15,"x_max":947,"o":"m 757 517 q 788 515 778 515 q 807 514 799 514 q 888 530 851 514 q 939 574 924 546 l 947 574 q 883 453 947 513 q 736 381 819 394 q 674 215 710 286 q 594 96 639 143 q 478 17 543 42 q 303 -8 414 -8 q 94 71 172 -8 q 15 272 15 150 q 84 470 15 385 q 267 579 153 556 q 165 671 201 615 q 129 790 129 726 q 216 969 129 896 q 438 1042 303 1042 q 624 992 554 1042 q 693 856 693 943 q 668 760 693 793 q 596 728 643 728 q 552 737 572 728 q 517 764 532 746 q 559 808 540 771 q 578 878 578 846 q 554 953 578 926 q 486 981 531 981 q 365 931 413 981 q 317 810 317 882 q 365 680 317 740 q 500 581 413 619 q 321 460 383 533 q 258 301 258 386 q 306 171 258 225 q 421 117 354 117 q 580 184 514 117 q 672 378 646 251 q 658 378 665 378 q 636 382 650 379 q 597 385 610 385 q 574 386 585 386 q 495 370 528 386 q 443 324 463 354 l 433 325 q 527 468 456 415 q 701 521 599 521 q 724 520 713 521 q 757 517 735 519 z "},"'":{"ha":372,"x_min":142,"x_max":372,"o":"m 372 1042 l 246 779 l 142 779 l 226 1042 l 372 1042 z "},"(":{"ha":607,"x_min":192,"x_max":663,"o":"m 349 -347 q 232 -137 272 -262 q 192 139 192 -12 q 320 688 192 428 q 644 1042 449 947 l 663 986 q 403 647 513 911 q 293 101 293 382 q 319 -130 293 -26 q 394 -307 344 -233 l 349 -347 z "},")":{"ha":574,"x_min":-40,"x_max":431,"o":"m 274 1042 q 390 832 350 957 q 431 556 431 707 q 302 7 431 267 q -22 -347 174 -253 l -40 -292 q 220 48 111 -217 q 329 593 329 313 q 303 824 329 719 q 228 1001 278 928 l 274 1042 z "},"*":{"ha":715,"x_min":119,"x_max":589,"o":"m 161 943 l 310 857 l 310 1044 l 399 1044 l 399 857 l 547 943 l 589 871 l 438 783 l 589 696 l 547 624 l 399 710 l 399 522 l 310 522 l 310 710 l 161 624 l 119 696 l 271 783 l 119 871 l 161 943 z "},"+":{"ha":715,"x_min":74,"x_max":618,"o":"m 285 440 l 322 610 l 479 610 l 442 440 l 618 440 l 586 285 l 408 285 l 371 114 l 214 114 l 251 285 l 74 285 l 107 440 l 285 440 z "},",":{"ha":300,"x_min":33,"x_max":238,"o":"m 117 -25 q 112 -10 117 -17 q 99 3 107 -3 q 49 50 65 25 q 33 104 33 75 q 65 183 33 150 q 143 215 97 215 q 212 187 186 215 q 238 110 238 158 q 187 -39 238 42 q 57 -175 136 -119 q 47 -165 50 -171 q 44 -151 44 -158 q 51 -126 44 -139 q 81 -89 58 -112 q 110 -52 103 -65 q 117 -25 117 -39 z "},"-":{"ha":403,"x_min":26,"x_max":329,"o":"m 26 308 l 51 418 l 329 418 l 306 308 l 26 308 z "},".":{"ha":365,"x_min":43,"x_max":264,"o":"m 264 104 q 231 26 264 58 q 153 -6 199 -6 q 75 26 107 -6 q 43 104 43 58 q 75 183 43 150 q 153 215 107 215 q 231 183 199 215 q 264 104 264 150 z "},"/":{"ha":432,"x_min":15,"x_max":410,"o":"m 15 -347 l 310 1042 l 410 1042 l 115 -347 l 15 -347 z "},":":{"ha":371,"x_min":57,"x_max":347,"o":"m 347 521 q 315 443 347 475 q 236 411 282 411 q 158 443 190 411 q 126 521 126 475 q 158 599 126 567 q 236 632 190 632 q 315 599 282 632 q 347 521 347 567 m 278 188 q 245 110 278 142 q 167 78 213 78 q 89 110 121 78 q 57 188 57 142 q 89 266 57 233 q 167 299 121 299 q 245 266 213 299 q 278 188 278 233 z "},";":{"ha":383,"x_min":64,"x_max":351,"o":"m 351 460 q 319 382 351 414 q 240 350 286 350 q 163 382 194 350 q 131 460 131 414 q 163 538 131 506 q 240 571 194 571 q 319 538 286 571 q 351 460 351 506 m 147 -3 q 142 13 147 6 q 129 25 138 19 q 80 72 96 47 q 64 126 64 97 q 96 205 64 172 q 174 238 128 238 q 242 209 217 238 q 268 132 268 181 q 217 -17 268 64 q 88 -153 167 -97 q 78 -142 81 -149 q 75 -129 75 -136 q 82 -103 75 -117 q 111 -67 89 -90 q 140 -30 133 -43 q 147 -3 147 -17 z "},"<":{"ha":499,"x_min":28,"x_max":467,"o":"m 28 331 l 40 388 l 467 596 l 453 519 l 118 353 l 388 219 l 371 140 l 28 331 z "},"=":{"ha":715,"x_min":44,"x_max":650,"o":"m 106 439 l 139 594 l 650 594 l 618 439 l 106 439 m 44 140 l 78 296 l 589 296 l 557 140 l 44 140 z "},">":{"ha":478,"x_min":21,"x_max":458,"o":"m 40 219 l 374 353 l 104 519 l 117 596 l 458 388 l 443 313 l 21 140 l 40 219 z "},"?":{"ha":613,"x_min":67,"x_max":590,"o":"m 76 749 q 156 907 76 842 q 368 972 236 972 q 537 934 483 972 q 590 804 590 896 q 558 662 590 724 q 418 515 525 600 q 304 410 336 451 q 257 322 272 369 l 165 322 q 189 422 165 374 q 288 553 213 469 q 393 692 368 639 q 418 801 418 744 q 397 872 418 847 q 342 897 376 897 q 264 864 297 897 q 231 782 231 831 q 245 724 231 750 q 283 690 260 697 q 240 647 267 663 q 182 632 213 632 q 106 664 136 632 q 76 749 76 696 m 67 111 q 99 189 67 157 q 178 221 132 221 q 256 189 224 221 q 288 111 288 157 q 256 33 288 65 q 178 0 224 0 q 99 33 132 0 q 67 111 67 65 z "},"@":{"ha":781,"x_min":-11,"x_max":682,"o":"m 519 164 q 543 140 535 157 q 551 101 551 124 q 474 -10 551 33 q 271 -53 396 -53 q 56 15 124 -53 q -11 228 -11 83 q 22 428 -11 332 q 117 600 56 525 q 274 728 185 683 q 463 774 364 774 q 626 718 569 774 q 682 556 682 663 q 608 304 682 419 q 446 189 533 189 q 409 197 424 189 q 385 221 394 204 q 344 181 365 194 q 303 167 324 167 q 236 191 258 167 q 214 263 214 215 q 226 357 214 301 q 260 461 239 413 q 323 564 288 528 q 397 600 358 600 q 427 593 414 600 q 450 575 440 586 l 456 597 l 532 589 l 469 322 q 465 302 467 308 q 464 290 464 296 q 469 271 464 278 q 482 264 474 264 q 553 380 518 264 q 589 575 589 496 q 558 657 589 629 q 467 685 526 685 q 235 551 328 685 q 142 236 142 417 q 180 108 142 143 q 311 72 218 72 q 434 94 385 72 q 519 164 483 115 m 329 251 q 349 256 338 251 q 375 271 361 261 q 376 285 375 278 q 379 300 378 293 l 439 531 q 428 539 435 536 q 414 542 421 542 q 335 459 367 542 q 304 294 304 376 q 310 263 304 274 q 329 251 317 251 z "},"A":{"ha":928,"x_min":13,"x_max":961,"o":"m 743 943 q 622 828 686 913 q 493 614 558 744 q 585 592 543 604 q 663 565 628 579 l 743 943 m 851 1042 q 910 1037 881 1042 q 961 1022 939 1032 l 743 0 l 543 0 l 650 504 q 558 538 601 526 q 464 554 515 550 q 334 204 385 382 q 283 -81 283 26 q 288 -124 283 -106 q 303 -158 293 -143 q 157 -122 197 -158 q 117 -11 117 -86 q 173 238 117 82 q 321 554 229 393 q 210 532 250 550 q 158 482 171 514 q 170 467 164 482 q 176 439 176 453 q 154 400 176 415 q 99 385 132 385 q 36 406 60 385 q 13 465 13 428 q 94 587 13 538 q 296 636 175 636 q 328 635 310 636 q 368 632 346 635 q 617 933 490 825 q 851 1042 743 1042 z "},"B":{"ha":882,"x_min":8,"x_max":833,"o":"m 331 0 l 131 0 l 319 883 l 525 911 l 460 603 l 468 603 q 607 674 546 603 q 668 828 668 744 q 620 938 668 897 q 485 978 572 978 q 238 885 339 978 q 138 640 138 792 q 141 594 138 614 q 153 557 144 575 q 156 549 156 551 q 157 546 157 547 q 45 578 82 546 q 8 674 8 610 q 56 821 8 749 q 189 947 104 893 q 342 1017 258 993 q 513 1042 426 1042 q 728 981 649 1042 q 808 821 808 919 q 771 696 808 756 q 669 600 733 636 q 791 526 749 585 q 833 376 833 467 q 814 239 833 311 q 760 111 794 167 q 660 10 718 44 q 529 -24 601 -24 q 428 3 464 -24 q 392 79 392 29 q 396 116 392 96 q 410 160 400 136 q 458 122 436 133 q 503 110 479 110 q 603 182 565 110 q 640 360 640 254 q 607 492 640 447 q 508 536 574 536 q 480 535 499 536 q 444 532 461 533 l 331 0 z "},"C":{"ha":690,"x_min":26,"x_max":743,"o":"m 257 328 q 297 162 257 213 q 424 111 338 111 q 574 148 503 111 q 694 250 646 185 l 726 236 q 567 48 681 118 q 331 -22 454 -22 q 98 59 169 -22 q 26 319 26 140 q 56 560 26 435 q 136 783 85 685 q 298 976 203 910 q 511 1042 393 1042 q 683 994 622 1042 q 743 856 743 946 q 718 760 743 793 q 646 728 693 728 q 602 737 622 728 q 567 764 582 746 q 611 815 592 776 q 631 892 631 853 q 608 954 631 932 q 546 976 586 976 q 425 902 485 976 q 321 697 365 828 q 274 512 290 608 q 257 328 257 415 z "},"D":{"ha":921,"x_min":8,"x_max":896,"o":"m 331 0 l 131 0 l 319 883 l 525 911 l 358 132 q 397 111 378 118 q 438 104 417 104 q 627 290 550 104 q 704 715 704 475 q 653 912 704 846 q 501 978 601 978 q 238 885 339 978 q 138 640 138 793 q 141 594 138 614 q 153 557 144 575 q 156 549 156 551 q 157 546 157 547 q 45 578 82 546 q 8 675 8 610 q 58 824 8 751 q 193 951 107 897 q 349 1018 264 994 q 525 1042 435 1042 q 799 935 703 1042 q 896 642 896 829 q 872 436 896 540 q 806 242 849 332 q 671 51 749 119 q 511 -18 593 -18 q 427 1 469 -18 q 342 56 385 19 l 331 0 z "},"E":{"ha":638,"x_min":10,"x_max":685,"o":"m 251 249 q 285 145 251 182 q 383 108 319 108 q 532 149 457 108 q 640 250 607 189 l 672 236 q 508 47 621 118 q 265 -25 394 -25 q 78 42 146 -25 q 10 219 10 108 q 83 447 10 340 q 267 579 157 553 q 203 651 225 608 q 182 746 182 694 q 272 953 182 863 q 486 1044 361 1044 q 630 997 575 1044 q 685 871 685 950 q 655 768 685 810 q 582 726 625 726 q 547 736 563 726 q 517 764 531 746 q 560 809 542 772 q 578 885 578 846 q 557 942 578 921 q 501 963 536 963 q 401 903 443 963 q 360 767 360 844 q 397 648 360 697 q 500 581 433 599 q 324 456 397 557 q 251 249 251 356 z "},"F":{"ha":638,"x_min":13,"x_max":842,"o":"m 710 875 q 627 881 672 875 q 515 901 582 888 l 457 625 l 660 625 l 638 522 l 435 522 l 322 0 l 122 0 l 322 928 q 184 854 226 924 q 142 640 142 785 q 145 594 142 614 q 157 557 149 575 q 160 549 160 551 q 161 546 161 547 q 48 578 83 546 q 13 681 13 611 q 137 944 13 846 q 486 1042 261 1042 q 517 1040 499 1042 q 576 1035 535 1039 q 662 1027 632 1029 q 717 1025 692 1025 q 785 1029 754 1025 q 842 1042 815 1033 q 829 999 840 1039 q 803 935 818 958 q 765 897 788 911 q 710 875 742 882 z "},"G":{"ha":803,"x_min":26,"x_max":776,"o":"m 401 267 q 471 279 443 267 q 519 318 499 292 l 579 582 l 758 581 l 644 58 q 521 -209 604 -131 q 289 -287 438 -287 q 149 -233 201 -287 q 96 -96 96 -179 q 143 40 96 -15 q 265 94 190 94 q 371 72 340 94 q 401 1 401 49 q 399 -24 401 -10 q 393 -54 397 -39 q 351 -26 369 -35 q 310 -18 333 -18 q 240 -49 267 -18 q 213 -124 213 -79 q 236 -192 213 -165 q 300 -218 260 -218 q 388 -178 357 -218 q 439 -47 418 -139 l 494 201 q 403 165 451 178 q 325 151 354 151 q 102 242 178 151 q 26 507 26 333 q 62 708 26 610 q 161 879 97 806 q 320 1000 229 958 q 518 1042 411 1042 q 706 992 635 1042 q 776 856 776 943 q 751 760 776 793 q 679 728 726 728 q 624 738 650 728 q 583 764 599 747 q 626 808 607 771 q 644 878 644 846 q 619 949 644 922 q 549 976 594 976 q 428 927 489 976 q 321 790 368 878 q 261 645 282 722 q 240 496 240 568 q 283 328 240 389 q 401 267 325 267 z "},"H":{"ha":924,"x_min":17,"x_max":964,"o":"m 193 944 q 345 1016 264 990 q 504 1042 426 1042 q 526 1041 514 1042 q 560 1039 538 1040 l 471 625 l 675 625 l 764 1039 l 964 1039 l 743 0 l 543 0 l 654 522 l 450 522 l 339 0 l 139 0 l 340 944 q 196 827 246 906 q 146 640 146 749 q 149 594 146 614 q 161 557 153 575 q 165 549 164 551 q 165 546 165 547 q 52 578 88 546 q 17 681 17 611 q 63 819 17 750 q 193 944 110 889 z "},"I":{"ha":521,"x_min":8,"x_max":551,"o":"m 185 944 q 337 1016 256 990 q 496 1042 418 1042 q 517 1041 506 1042 q 551 1039 529 1040 l 331 0 l 131 0 l 332 943 q 188 826 238 904 q 138 640 138 749 q 141 594 138 614 q 153 557 144 575 q 156 549 156 551 q 157 546 157 547 q 44 578 79 546 q 8 681 8 611 q 55 819 8 750 q 185 944 101 889 z "},"J":{"ha":744,"x_min":24,"x_max":803,"o":"m 260 681 q 306 819 260 750 q 436 944 353 889 q 588 1016 507 990 q 747 1042 669 1042 l 803 1042 l 594 56 q 469 -207 557 -126 q 229 -287 382 -287 q 78 -235 133 -287 q 24 -92 24 -182 q 71 41 24 -12 q 193 94 118 94 q 299 72 268 94 q 329 1 329 49 q 327 -24 329 -10 q 321 -54 325 -39 q 279 -26 297 -35 q 238 -18 261 -18 q 167 -47 194 -18 q 140 -121 140 -76 q 167 -192 140 -165 q 235 -218 194 -218 q 317 -180 289 -218 q 367 -47 346 -142 l 585 944 q 440 827 490 906 q 389 640 389 749 q 392 594 389 614 q 404 557 396 575 q 408 549 407 551 q 408 546 408 547 q 295 578 331 546 q 260 681 260 611 z "},"K":{"ha":835,"x_min":8,"x_max":922,"o":"m 185 944 q 337 1016 256 990 q 496 1042 418 1042 q 517 1041 506 1042 q 551 1039 529 1040 l 461 614 q 648 865 519 694 q 776 1035 776 1036 l 922 1035 l 536 590 q 547 590 542 590 q 563 592 551 590 l 585 592 q 715 556 672 592 q 757 443 757 519 q 750 370 757 411 q 719 246 743 329 q 694 144 700 175 q 689 92 689 114 q 703 35 689 60 q 743 0 718 10 q 667 -17 703 -11 q 606 -24 632 -24 q 524 -1 551 -24 q 497 69 497 22 q 504 127 497 93 q 532 240 511 161 q 563 366 556 326 q 571 435 571 406 q 550 506 571 482 q 488 529 529 529 q 472 528 481 529 q 442 524 463 526 l 331 0 l 131 0 l 332 944 q 188 827 238 906 q 138 640 138 749 q 141 594 138 614 q 153 557 144 575 q 156 549 156 551 q 157 546 157 547 q 44 578 79 546 q 8 681 8 611 q 55 819 8 750 q 185 944 101 889 z "},"L":{"ha":526,"x_min":8,"x_max":921,"o":"m 185 931 q 337 1002 256 976 q 496 1028 418 1028 q 517 1027 506 1028 q 551 1025 529 1026 l 338 28 q 406 5 369 21 q 518 -51 443 -11 q 690 -132 631 -112 q 804 -151 750 -151 q 865 -146 836 -151 q 921 -129 893 -140 q 871 -288 910 -229 q 776 -347 832 -347 q 670 -320 726 -347 q 500 -203 614 -293 q 297 -65 369 -97 q 157 -32 225 -32 q 138 -32 144 -32 q 125 -33 131 -32 l 332 929 q 188 813 238 890 q 138 626 138 735 q 141 581 138 600 q 153 543 144 561 q 156 535 156 538 q 157 532 157 533 q 44 565 79 532 q 8 667 8 597 q 55 806 8 736 q 185 931 101 875 z "},"M":{"ha":1093,"x_min":93,"x_max":1117,"o":"m 917 1022 l 1117 1022 l 971 0 l 771 0 l 860 624 l 599 0 l 408 0 l 436 626 l 204 0 l 93 0 l 446 954 q 282 838 339 918 q 225 642 225 757 q 228 594 225 614 q 240 557 232 574 q 244 549 243 551 q 244 546 244 547 q 133 577 169 546 q 96 672 96 608 q 137 808 96 739 q 250 933 178 876 q 390 1013 315 985 q 538 1042 465 1042 q 591 1037 564 1042 q 643 1022 618 1032 l 611 290 l 917 1022 z "},"N":{"ha":928,"x_min":8,"x_max":992,"o":"m 531 1022 l 640 286 l 792 1039 l 992 1039 l 771 0 l 603 0 l 485 726 l 331 0 l 131 0 l 331 943 q 188 826 238 904 q 138 640 138 749 q 141 594 138 614 q 153 557 144 575 q 156 549 156 551 q 157 546 157 547 q 44 578 79 546 q 8 681 8 611 q 42 816 8 747 q 133 938 75 885 q 258 1015 189 989 q 401 1042 326 1042 q 483 1037 456 1042 q 531 1022 510 1032 z "},"O":{"ha":924,"x_min":22,"x_max":911,"o":"m 238 665 q 367 856 293 790 q 526 922 440 922 q 564 919 546 922 q 599 911 582 917 q 433 647 510 857 q 356 265 356 438 q 376 146 356 188 q 436 104 397 104 q 553 178 493 104 q 658 375 613 251 q 709 556 692 463 q 726 735 726 650 q 686 926 726 874 q 549 978 646 978 q 263 877 378 978 q 149 621 149 776 q 151 587 149 601 q 160 557 153 572 q 162 549 161 551 q 163 546 163 547 q 57 574 92 546 q 22 663 22 603 q 77 816 22 740 q 229 949 132 892 q 398 1017 307 993 q 582 1042 489 1042 q 828 952 746 1042 q 911 686 911 863 q 878 449 911 571 q 786 231 844 326 q 617 53 715 114 q 399 -8 518 -8 q 213 63 276 -8 q 150 271 150 133 q 174 467 150 360 q 238 665 197 575 z "},"P":{"ha":796,"x_min":8,"x_max":824,"o":"m 331 0 l 131 0 l 319 883 l 525 911 l 426 447 q 597 561 524 456 q 669 789 669 667 q 624 928 669 878 q 497 978 579 978 q 233 888 328 978 q 138 640 138 799 q 141 594 138 614 q 153 557 144 575 q 156 549 156 551 q 157 546 157 547 q 44 578 79 546 q 8 681 8 611 q 55 819 8 750 q 185 944 101 889 q 337 1016 256 990 q 496 1042 418 1042 q 736 967 649 1042 q 824 768 824 892 q 791 624 824 694 q 700 500 758 553 q 574 422 644 449 q 422 396 503 396 l 415 396 l 331 0 z "},"Q":{"ha":924,"x_min":22,"x_max":911,"o":"m 238 665 q 367 856 293 790 q 526 922 440 922 q 564 919 546 922 q 599 911 582 917 q 433 647 510 857 q 356 265 356 438 q 356 227 356 239 q 358 206 357 215 q 405 215 383 213 q 444 218 426 218 q 503 209 476 218 q 556 181 531 200 q 677 431 628 272 q 726 735 726 589 q 686 926 726 874 q 549 978 646 978 q 263 877 378 978 q 149 621 149 776 q 151 587 149 601 q 160 557 153 572 q 162 549 161 551 q 163 546 163 547 q 57 574 92 546 q 22 663 22 603 q 77 816 22 740 q 229 949 132 892 q 398 1017 307 993 q 582 1042 489 1042 q 828 952 746 1042 q 911 686 911 863 q 839 335 911 508 q 646 72 767 163 q 732 -17 693 7 q 819 -40 771 -40 q 828 -40 824 -40 q 850 -37 833 -39 q 793 -128 826 -100 q 707 -157 760 -157 q 599 -122 640 -157 q 528 11 558 -87 q 465 -3 497 1 q 399 -8 433 -8 q 213 63 276 -8 q 150 271 150 133 q 174 467 150 360 q 238 665 197 575 m 410 167 q 390 165 400 167 q 369 161 381 164 q 396 118 379 132 q 436 104 413 104 q 464 108 450 104 q 489 119 478 113 q 456 155 475 143 q 410 167 436 167 z "},"R":{"ha":835,"x_min":8,"x_max":811,"o":"m 331 0 l 131 0 l 319 883 l 525 911 l 457 590 l 468 590 q 606 667 547 590 q 665 832 665 743 q 625 939 665 900 q 513 978 585 978 q 239 887 340 978 q 138 640 138 796 q 141 594 138 614 q 153 557 144 575 q 156 549 156 551 q 157 546 157 547 q 44 578 79 546 q 8 681 8 611 q 55 819 8 750 q 185 944 101 889 q 337 1016 256 990 q 496 1042 418 1042 q 726 981 642 1042 q 811 819 811 919 q 770 688 811 753 q 661 582 729 622 q 733 534 710 568 q 757 443 757 500 q 750 370 757 411 q 719 246 743 329 q 694 144 700 175 q 689 92 689 114 q 703 35 689 60 q 743 0 718 10 q 667 -17 703 -11 q 606 -24 632 -24 q 524 -1 551 -24 q 497 69 497 22 q 504 127 497 93 q 532 240 511 161 q 563 366 556 326 q 571 435 571 406 q 550 506 571 482 q 488 529 529 529 q 476 528 482 529 q 442 524 469 528 l 331 0 z "},"S":{"ha":792,"x_min":38,"x_max":756,"o":"m 211 793 q 303 971 211 900 q 532 1042 396 1042 q 697 999 638 1042 q 756 875 756 956 q 724 774 756 813 q 642 735 693 735 q 606 742 622 735 q 578 764 590 749 q 623 814 606 781 q 640 883 640 847 q 614 952 640 928 q 538 976 588 976 q 444 943 478 976 q 410 850 410 910 q 435 758 410 801 q 543 640 460 714 q 688 474 653 544 q 722 318 722 404 q 613 65 722 160 q 332 -29 503 -29 q 117 33 196 -29 q 38 210 38 96 q 97 374 38 310 q 242 438 157 438 q 328 413 294 438 q 364 346 361 389 q 247 311 292 346 q 201 215 201 276 q 238 119 201 157 q 335 82 274 82 q 451 132 407 82 q 496 267 496 182 q 467 392 496 332 q 346 551 438 451 q 237 691 263 640 q 211 793 211 742 z "},"T":{"ha":668,"x_min":8,"x_max":999,"o":"m 838 1008 q 922 1016 879 1008 q 999 1038 965 1024 q 953 905 997 949 q 825 861 910 861 q 735 868 785 861 q 610 892 686 875 l 418 0 l 218 0 l 415 919 l 399 919 q 201 851 264 919 q 138 639 138 782 q 141 593 138 613 q 153 556 144 574 q 156 548 156 550 q 157 544 157 546 q 44 577 79 544 q 8 679 8 610 q 133 942 8 844 q 482 1040 257 1040 q 570 1037 528 1040 q 679 1024 613 1033 q 770 1011 738 1014 q 838 1008 803 1008 z "},"U":{"ha":994,"x_min":0,"x_max":1057,"o":"m 693 318 q 728 441 710 369 q 768 610 747 513 l 861 1039 l 1057 1039 l 965 606 q 903 350 932 446 q 839 190 874 254 q 699 38 783 85 q 483 -10 614 -10 q 280 43 344 -10 q 215 211 215 96 q 226 329 215 261 q 260 496 236 397 q 297 649 272 550 q 329 778 322 747 l 375 961 q 194 847 258 931 q 129 642 129 763 q 133 594 129 614 q 144 557 136 574 q 148 549 147 551 q 149 546 149 547 q 37 578 74 546 q 0 674 0 610 q 50 823 0 750 q 190 950 100 896 q 351 1018 264 994 q 525 1042 438 1042 q 556 1040 543 1042 q 592 1035 569 1039 q 533 819 568 949 q 486 646 497 690 q 421 384 438 465 q 404 251 404 303 q 428 157 404 188 q 500 126 451 126 q 620 169 582 126 q 693 318 658 211 z "},"V":{"ha":854,"x_min":8,"x_max":953,"o":"m 185 944 q 337 1016 256 990 q 496 1042 418 1042 q 517 1041 506 1042 q 551 1039 529 1040 l 564 185 l 856 1035 l 953 1035 l 567 0 l 356 0 l 356 949 q 192 838 247 915 q 138 640 138 760 q 141 594 138 614 q 153 557 144 575 q 156 549 156 551 q 157 546 157 547 q 44 578 79 546 q 8 681 8 611 q 55 819 8 750 q 185 944 101 889 z "},"W":{"ha":1336,"x_min":8,"x_max":1433,"o":"m 185 944 q 337 1016 256 990 q 496 1042 418 1042 q 517 1041 506 1042 q 551 1039 529 1040 l 564 185 l 856 1035 l 1038 1035 l 1038 185 l 1336 1035 l 1433 1035 l 1047 0 l 842 0 l 842 707 l 567 0 l 363 0 l 363 949 q 194 836 251 914 q 138 640 138 758 q 141 594 138 614 q 153 557 144 575 q 156 549 156 551 q 157 546 157 547 q 44 578 79 546 q 8 681 8 611 q 55 819 8 750 q 185 944 101 889 z "},"X":{"ha":861,"x_min":8,"x_max":869,"o":"m 869 1035 l 636 631 l 767 0 l 546 0 l 472 347 l 271 0 l 186 0 l 447 461 l 344 949 q 191 833 244 913 q 138 640 138 753 q 141 594 138 614 q 153 557 144 575 q 156 549 156 551 q 157 546 157 547 q 44 578 79 546 q 8 681 8 611 q 55 819 8 750 q 185 944 101 889 q 337 1016 256 990 q 496 1042 418 1042 q 517 1041 506 1042 q 551 1039 529 1040 l 611 750 l 772 1035 l 869 1035 z "},"Y":{"ha":861,"x_min":8,"x_max":969,"o":"m 969 1035 l 700 428 l 608 0 l 386 0 l 478 428 l 344 949 q 191 833 244 913 q 138 640 138 753 q 141 594 138 614 q 153 557 144 575 q 156 549 156 551 q 157 546 157 547 q 44 578 79 546 q 8 681 8 611 q 55 819 8 750 q 185 944 101 889 q 337 1016 256 990 q 496 1042 418 1042 q 517 1041 506 1042 q 551 1039 529 1040 l 672 542 l 878 1035 l 969 1035 z "},"Z":{"ha":753,"x_min":15,"x_max":767,"o":"m 346 89 q 393 88 378 88 q 421 88 408 88 q 519 95 485 88 q 565 118 554 103 q 547 130 554 118 q 540 161 540 142 q 564 220 540 199 q 624 242 588 242 q 676 219 657 242 q 694 161 694 197 q 643 49 694 99 q 517 0 592 0 l 15 0 l 501 967 q 485 967 494 967 q 453 968 475 967 q 406 969 422 969 q 376 969 390 969 q 280 962 311 969 q 249 939 249 954 q 265 927 258 939 q 272 894 272 915 q 249 836 272 857 q 190 815 226 815 q 138 838 157 815 q 119 897 119 860 q 167 999 119 957 q 290 1042 215 1042 l 767 1042 l 288 90 q 308 90 296 90 q 346 89 321 90 z "},"[":{"ha":556,"x_min":-33,"x_max":529,"o":"m 343 956 l 85 -261 l 253 -261 l 235 -347 l -33 -347 l 261 1042 l 529 1042 l 511 956 l 343 956 z "},"\\":{"ha":503,"x_min":58,"x_max":453,"o":"m 158 1042 l 453 -347 l 353 -347 l 58 1042 l 158 1042 z "},"]":{"ha":556,"x_min":-33,"x_max":529,"o":"m 153 -261 l 411 956 l 243 956 l 261 1042 l 529 1042 l 235 -347 l -33 -347 l -15 -261 l 153 -261 z "},"^":{"ha":585,"x_min":69,"x_max":476,"o":"m 364 1042 l 393 1042 l 476 779 l 432 779 l 349 890 l 131 779 l 69 779 l 364 1042 z "},"_":{"ha":617,"x_min":50,"x_max":561,"o":"m 50 0 l 75 110 l 561 110 l 538 0 l 50 0 z "},"`":{"ha":279,"x_min":33,"x_max":219,"o":"m 179 1042 l 219 779 l 115 779 l 33 1042 l 179 1042 z "},"a":{"ha":731,"x_min":-18,"x_max":789,"o":"m 451 631 l 451 621 l 467 694 l 667 694 l 567 222 q 563 199 564 210 q 561 178 561 189 q 575 133 561 147 q 618 118 589 118 q 683 152 654 118 q 731 249 713 186 l 789 249 q 674 56 744 121 q 510 -8 603 -8 q 415 25 450 -8 q 374 119 379 58 q 278 24 331 56 q 167 -8 226 -8 q 31 50 81 -8 q -18 215 -18 108 q 6 378 -18 293 q 71 532 29 463 q 190 658 122 614 q 339 701 258 701 q 422 683 393 701 q 451 631 451 664 m 439 563 q 424 599 439 583 q 382 615 408 615 q 247 488 306 615 q 188 235 188 360 q 203 153 188 181 q 257 126 218 126 q 327 161 293 126 q 372 249 361 196 l 439 563 z "},"b":{"ha":617,"x_min":-10,"x_max":565,"o":"m 185 -8 q 41 38 92 -8 q -10 169 -10 85 q -7 208 -10 189 q 0 249 -4 228 l 149 944 l 354 972 l 288 660 q 347 690 321 681 q 401 699 372 699 q 524 640 483 699 q 565 461 565 581 q 540 293 565 379 q 471 143 515 207 q 347 30 419 68 q 185 -8 275 -8 m 189 190 q 208 142 189 158 q 263 126 226 126 q 375 236 325 126 q 425 467 425 346 q 405 563 425 525 q 351 600 385 600 q 304 593 329 600 q 269 575 279 586 l 193 222 q 190 206 192 214 q 189 190 189 197 z "},"c":{"ha":533,"x_min":-18,"x_max":581,"o":"m 510 579 q 490 505 510 532 q 436 478 469 478 q 413 482 425 478 q 388 494 400 486 q 400 538 396 517 q 404 576 404 558 q 394 619 404 604 q 365 633 385 633 q 246 492 304 633 q 188 225 188 351 q 209 135 188 161 q 288 108 231 108 q 408 138 353 108 q 533 249 463 168 l 581 249 q 406 55 500 118 q 199 -8 311 -8 q 37 47 92 -8 q -18 213 -18 103 q 6 381 -18 292 q 74 539 31 469 q 197 665 125 622 q 356 707 268 707 q 471 674 432 707 q 510 579 510 642 z "},"d":{"ha":729,"x_min":-18,"x_max":788,"o":"m 188 235 q 203 153 188 181 q 257 126 218 126 q 325 159 292 126 q 371 242 358 192 l 371 249 l 439 567 q 420 602 435 589 q 382 615 406 615 q 247 488 306 615 q 188 235 188 360 m 451 631 l 451 625 l 519 944 l 725 972 l 565 222 q 561 199 563 210 q 560 178 560 189 q 573 138 560 150 q 617 126 586 126 q 682 158 653 126 q 729 249 711 190 l 788 249 q 676 63 744 125 q 508 0 607 0 q 416 31 451 0 q 372 119 381 63 q 279 24 331 56 q 167 -8 228 -8 q 31 50 81 -8 q -18 215 -18 108 q 6 378 -18 293 q 71 532 29 463 q 190 658 122 614 q 339 701 258 701 q 422 683 393 701 q 451 631 451 664 z "},"e":{"ha":533,"x_min":-18,"x_max":581,"o":"m 510 574 q 415 373 510 458 q 190 281 321 288 q 188 245 189 257 q 188 225 188 233 q 209 135 188 161 q 288 108 231 108 q 408 138 353 108 q 533 249 463 168 l 581 249 q 406 55 500 118 q 199 -8 311 -8 q 37 47 92 -8 q -18 213 -18 103 q 7 381 -18 292 q 74 539 32 469 q 197 665 125 622 q 357 707 268 707 q 472 674 433 707 q 510 574 510 642 m 368 633 q 273 549 321 633 q 201 347 225 465 q 342 422 282 353 q 403 576 403 490 q 394 619 403 606 q 368 633 386 633 z "},"f":{"ha":371,"x_min":-289,"x_max":535,"o":"m 371 1040 q 487 997 439 1040 q 535 890 535 954 q 534 860 535 874 q 531 833 533 846 l 465 833 q 468 860 468 856 q 468 871 468 865 q 453 906 468 893 q 415 918 439 918 q 355 889 381 918 q 318 804 329 860 l 294 694 l 396 694 l 386 639 l 283 639 l 124 -111 q 36 -288 99 -229 q -125 -347 -26 -347 q -241 -304 -193 -347 q -289 -197 -289 -261 q -241 -79 -289 -125 q -50 11 -193 -33 l 118 804 q 207 981 143 921 q 371 1040 271 1040 m -60 -35 q -176 -96 -140 -61 q -212 -178 -212 -131 q -195 -209 -212 -194 q -157 -224 -178 -224 q -110 -196 -131 -224 q -78 -115 -89 -168 l -60 -35 z "},"g":{"ha":704,"x_min":-18,"x_max":763,"o":"m 451 631 l 451 622 l 467 694 l 667 694 l 529 50 q 638 120 599 75 q 704 249 678 165 l 763 249 q 672 79 731 143 q 517 -11 613 15 l 496 -111 q 408 -287 471 -228 q 246 -347 346 -347 q 133 -311 175 -347 q 90 -212 90 -275 q 147 -92 90 -144 q 317 -6 203 -40 l 333 68 q 256 11 297 31 q 167 -8 214 -8 q 31 50 81 -8 q -18 215 -18 108 q 6 378 -18 293 q 71 532 29 463 q 190 658 122 614 q 339 701 258 701 q 422 683 393 701 q 451 631 451 664 m 439 564 q 422 601 438 586 q 382 615 407 615 q 247 488 306 615 q 188 235 188 360 q 203 153 188 181 q 257 126 218 126 q 323 157 290 126 q 368 235 356 188 l 439 564 m 303 -75 q 200 -130 233 -101 q 167 -193 167 -158 q 181 -225 167 -211 q 214 -239 194 -239 q 260 -206 238 -239 q 294 -115 282 -172 l 303 -75 z "},"h":{"ha":701,"x_min":-53,"x_max":760,"o":"m 338 149 q 344 211 338 174 q 369 331 350 249 q 394 444 389 410 q 400 503 400 479 q 387 556 400 538 q 349 574 374 574 q 284 534 315 574 q 243 451 253 494 l 147 0 l -53 0 l 149 944 l 354 972 l 279 622 q 354 681 314 661 q 442 700 394 700 q 556 660 515 700 q 596 543 596 619 q 588 467 596 511 q 558 333 581 424 q 535 233 540 263 q 529 185 529 204 q 543 141 529 156 q 585 126 557 126 q 644 150 619 126 q 701 249 669 174 l 760 249 q 652 56 715 119 q 501 -8 589 -8 q 381 34 424 -8 q 338 149 338 76 z "},"i":{"ha":371,"x_min":-11,"x_max":429,"o":"m 343 879 q 310 801 343 833 q 232 769 278 769 q 154 801 186 769 q 122 879 122 833 q 154 958 122 925 q 232 990 186 990 q 310 958 278 990 q 343 879 343 925 m -11 158 q -8 199 -11 176 q 0 249 -6 222 l 94 694 l 294 694 l 194 222 q 190 199 192 210 q 189 178 189 189 q 202 138 189 150 q 246 126 215 126 q 319 160 285 126 q 371 249 354 194 l 429 249 q 310 57 385 122 q 138 -8 235 -8 q 28 35 68 -8 q -11 158 -11 79 z "},"j":{"ha":333,"x_min":-281,"x_max":392,"o":"m 332 881 q 299 803 332 835 q 221 771 267 771 q 143 803 175 771 q 111 881 111 835 q 143 959 111 926 q 221 992 175 992 q 299 959 267 992 q 332 881 332 926 m -281 -212 q -224 -92 -281 -143 q -53 -6 -167 -40 l 96 694 l 296 694 l 158 50 q 267 120 228 75 q 333 249 307 165 l 392 249 q 301 79 360 143 q 146 -11 242 15 l 125 -111 q 38 -287 100 -228 q -125 -347 -25 -347 q -238 -311 -196 -347 q -281 -212 -281 -275 m -68 -75 q -171 -130 -137 -101 q -204 -193 -204 -158 q -190 -225 -204 -211 q -157 -239 -176 -239 q -111 -206 -133 -239 q -76 -115 -89 -172 l -68 -75 z "},"k":{"ha":719,"x_min":-53,"x_max":778,"o":"m 354 972 l 250 483 l 518 694 l 656 694 l 378 501 q 406 506 397 504 q 424 507 415 507 q 535 463 494 507 q 576 344 576 418 q 575 317 576 331 q 571 292 574 304 l 556 222 q 551 194 553 206 q 549 178 549 183 q 562 139 549 151 q 603 126 575 126 q 663 150 638 126 q 719 249 688 174 l 778 249 q 671 56 735 121 q 522 -8 607 -8 q 392 33 438 -8 q 347 150 347 74 q 349 185 347 167 q 356 222 351 203 l 367 276 q 371 301 369 289 q 372 328 372 314 q 360 378 372 361 q 322 394 347 394 q 277 383 301 394 q 219 343 253 371 l 147 0 l -53 0 l 149 944 l 354 972 z "},"l":{"ha":371,"x_min":-11,"x_max":429,"o":"m -11 158 q -8 199 -11 176 q 0 249 -6 222 l 149 944 l 354 972 l 194 222 q 190 199 192 210 q 189 178 189 189 q 202 138 189 150 q 246 126 215 126 q 319 160 285 126 q 371 249 354 194 l 429 249 q 310 57 385 122 q 138 -8 235 -8 q 28 35 68 -8 q -11 158 -11 79 z "},"m":{"ha":1044,"x_min":-53,"x_max":1103,"o":"m 681 149 q 687 211 681 174 q 713 331 693 249 q 738 444 732 410 q 743 503 743 479 q 731 556 743 538 q 693 574 718 574 q 631 540 660 574 q 585 446 603 506 l 490 0 l 290 0 l 392 479 q 395 496 394 488 q 396 514 396 504 q 385 558 396 542 q 354 575 374 575 q 289 541 318 575 q 242 446 260 507 l 147 0 l -53 0 l 94 694 l 294 694 l 279 622 q 356 682 314 663 q 449 701 397 701 q 545 672 510 701 q 592 582 581 642 q 678 671 631 642 q 785 700 725 700 q 899 660 858 700 q 939 543 939 619 q 931 467 939 511 q 901 333 924 424 q 878 233 883 263 q 872 185 872 204 q 886 141 872 156 q 928 126 900 126 q 988 150 963 126 q 1044 249 1013 174 l 1103 249 q 995 56 1058 119 q 844 -8 932 -8 q 724 34 767 -8 q 681 149 681 76 z "},"n":{"ha":701,"x_min":-53,"x_max":760,"o":"m 338 149 q 344 211 338 174 q 369 331 350 249 q 394 444 389 410 q 400 503 400 479 q 388 556 400 538 q 350 574 375 574 q 288 540 317 574 q 242 446 260 506 l 147 0 l -53 0 l 94 694 l 294 694 l 279 622 q 354 681 314 661 q 442 700 394 700 q 556 660 515 700 q 596 543 596 619 q 588 467 596 511 q 558 333 581 424 q 535 233 540 263 q 529 185 529 204 q 543 141 529 156 q 585 126 557 126 q 644 150 619 126 q 701 249 669 174 l 760 249 q 652 56 715 119 q 501 -8 589 -8 q 381 34 424 -8 q 338 149 338 76 z "},"o":{"ha":610,"x_min":-19,"x_max":781,"o":"m -19 214 q 6 382 -19 293 q 76 540 32 471 q 200 665 128 622 q 361 707 272 707 q 494 651 450 707 q 539 485 539 596 q 545 483 542 483 q 554 482 549 482 q 657 506 597 482 q 768 565 717 529 l 781 528 q 677 456 742 486 q 535 413 613 425 q 426 110 518 225 q 203 -6 335 -6 q 38 50 94 -6 q -19 214 -19 106 m 372 622 q 247 488 306 622 q 188 232 188 353 q 202 143 188 167 q 258 119 217 119 q 356 203 310 119 q 419 408 403 286 q 391 427 400 413 q 382 467 382 442 q 393 513 382 493 q 425 542 404 532 q 410 604 422 586 q 372 622 399 622 z "},"p":{"ha":650,"x_min":-126,"x_max":615,"o":"m 178 144 q 197 121 183 129 q 231 113 211 113 q 372 225 318 113 q 425 486 425 338 q 408 572 425 543 q 356 601 392 601 q 304 583 331 601 q 260 533 278 564 l 178 144 m 83 -297 l -126 -347 l 106 746 l 306 746 l 283 642 q 358 686 318 671 q 446 701 399 701 q 572 646 529 701 q 615 482 615 590 q 524 131 615 269 q 274 -8 433 -8 q 199 4 229 -8 q 156 42 169 17 l 83 -297 z "},"q":{"ha":675,"x_min":-18,"x_max":665,"o":"m 339 701 q 422 683 393 701 q 451 628 451 664 l 465 694 l 665 694 l 454 -297 l 244 -347 l 332 68 q 255 11 296 31 q 167 -8 214 -8 q 31 50 81 -8 q -18 215 -18 108 q 6 378 -18 293 q 71 532 29 463 q 190 658 122 614 q 339 701 258 701 m 439 568 q 421 602 436 589 q 382 615 406 615 q 247 488 306 615 q 188 235 188 360 q 203 153 188 181 q 257 126 218 126 q 319 154 289 126 q 365 225 350 182 l 439 568 z "},"r":{"ha":522,"x_min":-53,"x_max":540,"o":"m 147 0 l -53 0 l 94 694 l 294 694 l 276 608 q 373 677 338 660 q 444 694 408 694 q 514 665 488 694 q 540 590 540 635 q 513 518 540 547 q 440 489 485 489 q 403 500 417 489 q 385 546 390 511 q 375 574 381 568 q 360 581 369 581 q 315 571 336 581 q 258 528 294 561 l 147 0 z "},"s":{"ha":531,"x_min":-44,"x_max":589,"o":"m 436 232 q 435 203 436 215 q 431 179 433 190 q 485 214 458 196 q 531 249 511 232 l 589 249 q 494 156 546 199 q 376 75 442 114 q 281 13 339 35 q 158 -8 222 -8 q 10 42 65 -8 q -44 169 -44 93 q -24 248 -44 213 q 29 299 -3 283 q 117 480 76 383 q 200 710 158 576 l 406 738 q 415 547 410 633 q 429 360 421 461 q 435 278 433 301 q 436 232 436 254 m 208 560 q 165 441 190 503 q 96 297 139 379 q 119 278 111 290 q 128 249 128 265 q 110 201 128 222 q 67 181 92 181 q 43 185 53 181 q 29 199 33 190 q 49 124 29 147 q 114 101 69 101 q 203 135 171 101 q 235 231 235 168 q 233 270 235 250 q 228 338 232 290 q 217 453 221 403 q 208 560 213 503 z "},"t":{"ha":371,"x_min":-11,"x_max":429,"o":"m 49 694 l 94 694 l 136 886 l 342 914 l 294 694 l 378 694 l 367 639 l 283 639 l 194 222 q 190 199 192 210 q 189 178 189 189 q 202 138 189 150 q 246 126 215 126 q 319 160 285 126 q 371 249 354 194 l 429 249 q 310 57 385 122 q 138 -8 235 -8 q 28 35 68 -8 q -11 158 -11 79 q -8 199 -11 176 q 0 249 -6 222 l 83 639 l 38 639 l 49 694 z "},"u":{"ha":701,"x_min":-11,"x_max":760,"o":"m 232 126 q 297 158 268 126 q 343 249 325 189 l 438 694 l 638 694 l 538 222 q 533 199 535 210 q 532 178 532 189 q 545 138 532 150 q 589 126 558 126 q 654 158 625 126 q 701 249 683 190 l 760 249 q 644 56 715 121 q 481 -8 574 -8 q 385 26 421 -8 q 343 124 349 60 q 252 24 303 57 q 138 -8 201 -8 q 28 35 68 -8 q -11 158 -11 79 q -8 199 -11 176 q 0 249 -6 222 l 94 694 l 294 694 l 194 222 q 191 202 192 211 q 190 183 190 193 q 201 141 190 156 q 232 126 211 126 z "},"v":{"ha":575,"x_min":-12,"x_max":554,"o":"m 431 576 q 394 598 408 576 q 381 647 381 619 q 403 702 381 682 q 467 722 426 722 q 532 690 510 722 q 554 601 554 658 q 530 403 554 507 q 464 215 506 300 q 331 49 408 106 q 158 -8 253 -8 q 32 34 76 -8 q -12 156 -12 76 q -10 188 -12 171 q -6 222 -8 206 l 94 694 l 294 694 l 194 222 q 190 194 192 207 q 188 172 188 181 q 199 138 188 150 q 235 126 211 126 q 330 177 283 126 q 414 321 376 228 q 458 461 442 388 q 475 590 475 535 q 458 581 472 585 q 431 576 443 576 z "},"w":{"ha":918,"x_min":-11,"x_max":897,"o":"m -11 158 q -8 199 -11 176 q 0 249 -6 222 l 94 694 l 294 694 l 194 222 q 192 205 193 214 q 190 188 190 196 q 201 142 190 158 q 232 126 211 126 q 297 158 268 126 q 343 249 325 189 l 438 694 l 638 694 l 538 222 q 533 194 535 207 q 531 172 531 181 q 542 138 531 150 q 578 126 554 126 q 673 177 626 126 q 757 321 719 228 q 801 461 785 388 q 818 590 818 535 q 801 581 815 585 q 774 576 786 576 q 738 598 751 576 q 724 647 724 619 q 747 702 724 682 q 810 722 769 722 q 875 690 853 722 q 897 601 897 658 q 873 403 897 507 q 807 215 849 300 q 674 49 751 106 q 501 -8 596 -8 q 390 22 432 -8 q 335 108 347 51 q 247 21 294 50 q 138 -8 199 -8 q 28 35 68 -8 q -11 158 -11 79 z "},"x":{"ha":725,"x_min":0,"x_max":783,"o":"m 617 774 q 673 737 651 774 q 694 647 694 700 q 661 540 694 596 q 501 344 628 483 l 514 247 q 542 155 522 183 q 600 126 561 126 q 674 160 639 126 q 725 249 708 194 l 783 249 q 667 58 740 124 q 500 -8 593 -8 q 392 52 435 -8 q 331 233 350 113 l 139 0 l 39 0 l 319 317 l 297 472 q 276 562 288 536 q 244 588 265 588 q 143 494 196 588 q 58 249 90 400 l 0 249 q 130 582 44 463 q 328 701 215 701 q 430 659 392 701 q 478 536 468 617 l 490 431 q 581 548 553 501 q 611 631 610 594 q 597 628 601 629 q 588 628 592 628 q 539 648 556 628 q 522 706 522 668 q 548 756 522 738 q 617 774 574 774 z "},"y":{"ha":675,"x_min":-11,"x_max":733,"o":"m 232 126 q 294 156 267 126 q 340 240 322 185 l 438 694 l 638 694 l 500 50 q 609 120 569 75 q 675 249 649 165 l 733 249 q 642 79 701 143 q 488 -11 583 15 l 467 -111 q 379 -287 442 -228 q 217 -347 317 -347 q 103 -311 146 -347 q 61 -212 61 -275 q 117 -92 61 -144 q 288 -6 174 -40 l 304 69 q 228 11 269 31 q 138 -8 188 -8 q 28 35 68 -8 q -11 158 -11 79 q -8 199 -11 176 q 0 249 -6 222 l 94 694 l 294 694 l 194 222 q 192 205 193 214 q 190 188 190 196 q 201 142 190 158 q 232 126 211 126 m 274 -75 q 171 -130 204 -101 q 138 -193 138 -158 q 151 -225 138 -211 q 185 -239 165 -239 q 231 -206 208 -239 q 265 -115 253 -172 l 274 -75 z "},"z":{"ha":594,"x_min":0,"x_max":594,"o":"m 285 104 q 331 100 315 101 q 360 99 347 99 q 406 106 390 99 q 425 126 422 113 q 406 135 413 128 q 399 156 399 143 q 421 197 399 179 q 476 215 443 215 q 522 197 506 215 q 538 149 538 179 q 488 46 538 92 q 368 0 439 0 l 0 0 l 354 619 l 276 619 q 217 614 233 619 q 200 597 200 608 q 208 592 200 597 q 215 567 215 586 q 194 513 215 533 q 140 493 172 493 q 94 510 113 493 q 76 554 76 526 q 124 650 76 606 q 238 694 172 694 l 594 694 l 254 107 q 265 106 258 107 q 285 104 271 106 z "},"{":{"ha":489,"x_min":42,"x_max":532,"o":"m 250 763 q 310 959 250 876 q 472 1042 371 1042 l 532 1042 l 519 972 q 437 964 463 972 q 393 936 411 956 q 346 856 361 900 q 329 744 331 811 l 338 507 q 322 413 336 450 q 282 353 308 375 q 294 331 290 343 q 299 303 299 318 q 283 226 299 271 q 219 79 268 181 q 150 -83 167 -32 q 133 -172 133 -135 q 163 -256 133 -228 q 251 -283 193 -283 l 239 -346 l 226 -346 q 117 -333 144 -346 q 68 -287 89 -321 q 48 -244 54 -268 q 42 -194 42 -221 q 56 -109 42 -156 q 121 38 71 -62 q 179 163 163 119 q 204 243 196 206 q 207 259 206 251 q 208 274 208 267 q 194 306 208 296 q 151 317 181 317 q 132 316 143 317 q 107 313 121 315 l 124 392 q 147 388 136 389 q 167 388 157 388 q 237 422 214 388 q 260 542 260 456 q 259 586 260 563 q 254 657 258 610 q 251 722 251 700 q 250 763 250 744 z "},"|":{"ha":739,"x_min":304,"x_max":433,"o":"m 304 -347 l 304 1043 l 433 1043 l 433 -347 l 304 -347 z "},"}":{"ha":489,"x_min":42,"x_max":532,"o":"m 324 -67 q 263 -263 324 -181 q 101 -346 203 -346 l 42 -346 l 54 -276 q 137 -268 111 -276 q 181 -240 163 -260 q 228 -160 213 -204 q 244 -49 243 -115 l 236 189 q 251 283 238 246 q 292 343 265 321 q 279 365 283 353 q 275 393 275 378 q 290 470 275 425 q 354 617 306 515 q 424 779 407 728 q 440 868 440 831 q 410 951 440 924 q 322 979 381 979 l 335 1042 l 347 1042 q 457 1029 429 1042 q 506 983 485 1017 q 526 940 519 964 q 532 890 532 917 q 517 805 532 851 q 453 658 503 758 q 394 533 411 576 q 369 453 378 490 q 367 437 368 444 q 365 422 365 429 q 379 390 365 400 q 422 379 393 379 q 442 380 431 379 q 467 383 453 381 l 450 304 q 427 308 438 307 q 407 308 417 308 q 337 274 360 308 q 314 154 314 240 q 315 110 314 133 q 319 40 315 86 q 323 -26 322 -4 q 324 -67 324 -49 z "},"~":{"ha":599,"x_min":68,"x_max":625,"o":"m 428 919 q 488 903 468 907 q 529 899 508 899 q 579 907 556 899 q 617 931 603 915 l 625 929 q 544 833 613 876 q 401 790 476 790 q 349 796 376 790 q 274 818 322 801 q 209 837 231 832 q 168 842 188 842 q 119 833 142 842 q 76 806 96 824 l 68 808 q 161 910 101 875 q 300 944 221 944 q 355 940 328 944 q 428 919 382 935 z "},"¡":{"ha":304,"x_min":-85,"x_max":303,"o":"m 303 517 q 270 439 303 471 q 192 407 238 407 q 114 439 146 407 q 82 517 82 471 q 114 595 82 563 q 192 628 146 628 q 270 595 238 628 q 303 517 303 563 m 115 -344 l -85 -344 l 96 307 l 214 307 l 115 -344 z "},"¢":{"ha":560,"x_min":43,"x_max":531,"o":"m 267 201 l 214 -37 l 176 -37 l 219 203 q 92 278 140 214 q 43 439 43 342 q 122 701 43 593 q 332 826 201 808 l 363 997 l 443 997 l 406 828 q 499 800 467 824 q 531 733 531 776 q 529 710 531 721 q 524 688 528 700 l 444 688 q 450 710 449 701 q 451 726 451 719 q 438 762 451 750 q 400 774 425 774 l 393 774 l 288 297 q 295 296 292 296 q 308 296 299 296 q 386 314 347 296 q 492 390 425 332 q 421 252 476 299 q 267 201 365 206 m 317 742 q 225 613 261 699 q 189 443 189 528 q 203 370 189 404 q 240 318 217 336 l 317 742 z "},"£":{"ha":646,"x_min":35,"x_max":593,"o":"m 378 582 q 458 559 439 563 q 496 556 478 556 q 546 564 522 556 q 583 588 569 572 l 592 586 q 511 490 579 533 q 368 447 443 447 l 346 447 l 268 126 q 346 131 289 129 q 439 142 403 132 q 515 170 476 151 q 593 219 553 189 q 543 60 582 119 q 449 0 504 0 l 39 0 l 158 497 q 147 498 156 497 q 135 499 139 499 q 85 490 108 499 q 43 463 63 481 l 35 465 q 94 542 57 511 q 181 589 132 574 l 281 999 l 489 1042 l 378 582 z "},"¤":{"ha":694,"x_min":94,"x_max":603,"o":"m 133 479 q 144 544 133 513 q 174 604 154 576 l 94 683 l 147 733 l 225 656 q 285 687 253 676 q 351 697 317 697 q 416 687 385 697 q 475 657 447 676 l 553 735 l 603 685 l 526 608 q 558 548 547 581 q 568 481 568 515 q 558 414 568 446 q 526 354 547 382 l 603 278 l 553 228 l 476 304 q 417 274 449 285 q 351 264 385 264 q 284 274 317 264 q 224 306 251 285 l 146 228 l 96 278 l 174 356 q 144 415 154 383 q 133 479 133 446 m 351 342 q 449 383 408 342 q 490 481 490 424 q 449 578 490 538 q 351 619 408 619 q 253 578 294 619 q 213 481 213 538 q 253 383 213 424 q 351 342 294 342 z "},"¥":{"ha":658,"x_min":26,"x_max":708,"o":"m 617 1042 l 708 1042 l 436 426 l 618 426 l 599 357 l 421 357 l 401 267 l 583 267 l 564 197 l 386 197 l 344 0 l 122 0 l 164 197 l 26 197 l 46 267 l 179 267 l 199 357 l 61 357 l 81 426 l 214 426 l 58 1042 l 286 1042 l 408 540 l 617 1042 z "},"¦":{"ha":739,"x_min":304,"x_max":433,"o":"m 304 1043 l 433 1043 l 433 418 l 304 418 l 304 1043 m 304 -347 l 304 308 l 433 308 l 433 -347 l 304 -347 z "},"§":{"ha":753,"x_min":11,"x_max":729,"o":"m 368 481 q 488 358 454 407 q 533 254 521 308 q 553 292 546 269 q 560 342 560 315 q 532 440 560 394 q 414 556 504 485 q 332 625 357 600 q 290 675 307 650 q 270 656 276 668 q 264 626 264 643 q 283 568 264 597 q 368 481 303 539 m 254 801 q 338 976 254 910 q 549 1042 422 1042 q 682 1008 635 1042 q 729 910 729 974 q 704 828 729 860 q 638 797 679 797 q 609 803 622 797 q 586 819 596 808 q 622 859 608 832 q 636 915 636 886 q 615 969 636 949 q 558 990 594 990 q 466 947 504 990 q 428 842 428 903 q 451 762 428 799 q 550 664 474 725 q 673 538 643 590 q 703 421 703 485 q 658 269 703 335 q 542 189 614 203 q 462 -5 542 65 q 240 -75 382 -75 q 70 -28 129 -75 q 11 107 11 18 q 49 230 11 182 q 144 278 88 278 q 198 263 174 278 q 254 208 222 249 q 167 179 193 203 q 142 103 142 156 q 169 20 142 46 q 256 -6 196 -6 q 338 28 310 -6 q 367 129 367 63 q 340 244 367 192 q 231 368 314 296 q 138 469 160 431 q 117 553 117 508 q 156 667 117 615 q 261 743 194 718 q 256 773 257 758 q 254 801 254 788 z "},"¨":{"ha":544,"x_min":78,"x_max":497,"o":"m 497 881 q 472 821 497 846 q 413 796 447 796 q 353 821 378 796 q 328 881 328 846 q 353 940 328 915 q 413 965 378 965 q 472 940 447 965 q 497 881 497 915 m 247 881 q 222 821 247 846 q 163 796 197 796 q 103 821 128 796 q 78 881 78 846 q 103 940 78 915 q 163 965 128 965 q 222 940 197 965 q 247 881 247 915 z "},"©":{"ha":815,"x_min":71,"x_max":743,"o":"m 407 815 q 644 712 546 815 q 743 461 743 608 q 644 210 743 314 q 407 106 546 106 q 169 209 268 106 q 71 460 71 313 q 169 711 71 607 q 407 815 268 815 m 683 460 q 603 669 683 583 q 410 756 522 756 q 215 669 296 756 q 135 460 135 583 q 215 250 135 336 q 410 164 296 164 q 603 250 522 164 q 683 460 683 336 m 414 253 q 271 316 331 253 q 211 467 211 379 q 271 613 211 554 q 417 672 331 672 q 528 633 481 669 q 589 540 575 596 l 524 515 q 485 582 510 564 q 419 600 460 600 q 324 566 360 600 q 288 474 288 532 q 326 368 288 411 q 419 325 364 325 q 480 342 451 325 q 524 388 508 358 l 585 347 q 510 278 556 303 q 414 253 464 253 z "},"ª":{"ha":479,"x_min":60,"x_max":444,"o":"m 168 764 q 180 724 168 738 q 215 711 192 711 q 240 720 228 711 q 265 747 251 729 l 317 971 q 299 981 308 978 q 276 985 289 985 q 201 915 235 985 q 168 764 168 846 m 325 1007 l 329 1028 l 444 1028 l 386 772 q 384 762 386 771 q 382 747 382 753 q 390 726 382 733 q 411 719 397 719 q 424 720 419 719 q 432 722 428 721 q 401 669 419 686 q 349 653 382 653 q 295 667 315 653 q 268 708 275 681 q 217 664 244 679 q 158 649 189 649 q 85 674 111 649 q 60 743 60 699 q 115 949 60 872 q 271 1026 171 1026 q 298 1021 283 1026 q 325 1007 313 1015 z "},"«":{"ha":818,"x_min":28,"x_max":758,"o":"m 319 331 l 332 388 l 758 596 l 744 519 l 410 353 l 679 219 l 663 140 l 319 331 m 28 331 l 40 388 l 467 596 l 453 519 l 118 353 l 388 219 l 371 140 l 28 331 z "},"¬":{"ha":617,"x_min":26,"x_max":554,"o":"m 26 308 l 51 418 l 554 418 l 483 71 l 326 71 l 375 308 l 26 308 z "},"­":{"ha":403,"x_min":26,"x_max":329,"o":"m 26 308 l 51 418 l 329 418 l 306 308 l 26 308 z "},"®":{"ha":768,"x_min":47,"x_max":719,"o":"m 383 819 q 621 716 522 819 q 719 465 719 613 q 621 214 719 318 q 383 110 522 110 q 146 213 244 110 q 47 464 47 317 q 146 715 47 611 q 383 819 244 819 m 660 464 q 579 674 660 588 q 386 760 499 760 q 192 674 272 760 q 111 464 111 588 q 192 254 111 340 q 386 168 272 168 q 579 254 499 168 q 660 464 660 340 m 308 438 l 308 267 l 244 267 l 246 671 l 376 671 q 498 640 453 671 q 543 554 543 608 q 521 488 543 517 q 461 447 499 458 l 551 274 l 486 264 l 400 438 l 308 438 m 479 551 q 452 598 479 582 q 378 614 425 614 l 308 614 l 308 490 l 381 490 q 453 506 428 490 q 479 551 479 522 z "},"°":{"ha":436,"x_min":51,"x_max":390,"o":"m 185 519 q 83 555 114 519 q 51 678 51 590 q 114 891 51 807 q 276 975 176 975 q 363 936 335 975 q 390 818 390 897 q 331 613 390 707 q 185 519 271 519 m 307 839 q 299 906 307 886 q 272 926 290 926 q 198 867 235 926 q 154 721 161 807 q 152 690 153 704 q 151 661 151 675 q 161 594 151 617 q 189 571 171 571 q 274 648 240 571 q 307 839 307 725 z "},"±":{"ha":740,"x_min":43,"x_max":660,"o":"m 326 585 l 364 754 l 521 754 l 483 585 l 660 585 l 628 429 l 450 429 l 413 258 l 256 258 l 293 429 l 115 429 l 149 585 l 326 585 m 43 94 l 68 204 l 578 204 l 554 94 l 43 94 z "},"²":{"ha":417,"x_min":4,"x_max":386,"o":"m 211 681 q 133 618 156 639 q 99 578 111 597 l 104 578 q 133 576 118 578 q 181 571 149 575 q 231 565 214 567 q 261 564 247 564 q 303 570 286 564 q 365 617 319 576 q 363 548 365 568 q 356 514 361 528 q 326 481 346 492 q 269 471 306 471 q 224 474 246 471 q 167 485 203 476 q 112 496 132 493 q 71 499 92 499 q 33 488 58 499 q 7 476 7 476 q 5 492 6 486 q 4 501 4 497 q 27 583 4 543 q 126 697 50 624 q 242 832 214 781 q 269 939 269 883 q 255 982 269 964 q 221 1000 240 1000 q 171 987 186 1000 q 156 940 156 974 q 164 907 156 922 q 186 889 172 892 q 155 869 171 876 q 124 863 139 863 q 82 881 97 863 q 67 931 67 899 q 111 1010 67 979 q 233 1040 156 1040 q 348 1010 310 1040 q 386 921 386 981 q 352 813 386 864 q 211 681 318 761 z "},"³":{"ha":439,"x_min":18,"x_max":414,"o":"m 18 596 q 43 680 18 650 q 114 710 68 710 q 158 701 142 710 q 179 672 174 692 q 126 649 143 669 q 108 583 108 629 q 124 537 108 551 q 179 522 140 522 q 249 561 221 522 q 278 653 278 600 q 250 740 278 701 q 174 793 222 778 q 273 851 235 807 q 311 942 311 894 q 297 984 311 968 q 260 1000 283 1000 q 206 985 224 1000 q 188 940 188 971 q 196 907 188 922 q 218 889 204 892 q 187 869 203 876 q 156 863 171 863 q 114 881 129 863 q 99 931 99 899 q 146 1009 99 978 q 272 1040 193 1040 q 375 1010 336 1040 q 414 931 414 979 q 385 852 414 889 q 304 792 356 815 q 378 746 353 778 q 404 669 404 714 q 342 535 404 596 q 197 475 281 475 q 64 506 110 475 q 18 596 18 536 z "},"´":{"ha":439,"x_min":167,"x_max":439,"o":"m 439 1042 l 271 779 l 167 779 l 293 1042 l 439 1042 z "},"¶":{"ha":753,"x_min":100,"x_max":704,"o":"m 586 860 q 578 910 586 889 q 554 947 571 932 l 454 471 l 463 471 q 489 472 476 471 q 511 476 501 474 l 578 792 q 584 828 582 811 q 586 860 586 846 m 499 415 q 475 408 488 411 q 439 400 463 406 l 332 -112 l 201 -112 l 308 400 q 156 497 213 419 q 100 682 100 574 q 197 936 100 832 q 447 1040 294 1040 q 637 981 569 1040 q 704 811 704 922 q 701 765 704 790 q 693 711 699 740 l 517 -112 l 386 -112 l 499 415 z "},"·":{"ha":603,"x_min":167,"x_max":435,"o":"m 435 371 q 395 276 435 315 q 300 238 356 238 q 206 276 244 238 q 167 371 167 315 q 206 466 167 426 q 300 506 244 506 q 395 466 356 506 q 435 371 435 426 z "},"¸":{"ha":315,"x_min":0,"x_max":315,"o":"m 156 -92 q 196 -83 178 -86 q 229 -81 214 -81 q 293 -99 271 -81 q 315 -150 315 -117 q 267 -260 315 -217 q 149 -303 218 -303 q 78 -295 110 -303 q 0 -264 46 -287 q 27 -230 14 -240 q 56 -219 40 -219 q 85 -224 72 -219 q 118 -240 99 -228 q 140 -254 132 -251 q 158 -257 149 -257 q 188 -240 175 -257 q 200 -199 200 -222 q 185 -162 200 -176 q 146 -149 171 -149 q 112 -152 128 -149 q 74 -165 96 -156 l 147 40 l 196 8 l 156 -92 z "},"¹":{"ha":301,"x_min":31,"x_max":275,"o":"m 71 982 q 173 997 125 982 q 275 1040 221 1011 l 147 479 l 31 479 l 138 947 l 61 947 l 71 982 z "},"º":{"ha":457,"x_min":58,"x_max":418,"o":"m 283 901 q 301 940 283 921 q 338 958 318 958 q 358 953 353 958 q 364 932 364 947 q 393 957 379 940 q 410 976 407 974 l 418 961 q 395 910 408 929 q 364 882 382 892 q 306 713 358 779 q 185 647 253 647 q 88 676 118 647 q 58 771 58 706 q 117 964 58 893 q 269 1035 175 1035 q 323 1025 300 1035 q 346 1001 346 1015 q 338 981 346 989 q 310 965 329 972 q 295 985 304 979 q 274 992 286 992 q 196 922 226 992 q 165 778 165 853 q 179 735 165 749 q 222 721 193 721 q 274 761 253 721 q 304 871 296 801 q 288 881 293 874 q 283 901 283 889 z "},"»":{"ha":814,"x_min":21,"x_max":767,"o":"m 349 219 l 682 353 l 413 519 l 425 596 l 767 388 l 751 313 l 329 140 l 349 219 m 40 219 l 374 353 l 104 519 l 117 596 l 458 388 l 443 313 l 21 140 l 40 219 z "},"¼":{"ha":957,"x_min":97,"x_max":913,"o":"m 193 -229 l 560 1042 l 660 1042 l 293 -229 l 193 -229 m 138 815 q 240 830 192 815 q 342 874 288 844 l 214 313 l 97 313 l 204 781 l 128 781 l 138 815 m 783 1 l 668 1 l 715 208 l 519 208 q 533 241 525 222 q 563 301 542 260 q 622 435 607 389 q 636 518 636 481 q 635 542 636 531 q 631 564 633 554 q 696 544 671 564 q 721 493 721 525 q 665 351 721 429 q 603 263 608 272 l 728 263 l 793 549 l 913 564 l 843 263 l 896 263 l 879 208 l 831 208 l 783 1 z "},"½":{"ha":938,"x_min":97,"x_max":890,"o":"m 186 -229 l 553 1042 l 653 1042 l 286 -229 l 186 -229 m 138 815 q 240 830 192 815 q 342 874 288 844 l 214 313 l 97 313 l 204 781 l 128 781 l 138 815 m 715 208 q 638 146 660 167 q 603 106 615 125 l 608 106 q 638 104 622 106 q 685 99 653 103 q 735 93 718 94 q 765 92 751 92 q 807 98 790 92 q 869 144 824 104 q 867 76 869 96 q 860 42 865 56 q 830 9 850 19 q 774 -1 810 -1 q 728 1 750 -1 q 671 13 707 4 q 616 24 636 21 q 575 26 596 26 q 537 15 563 26 q 511 4 511 4 q 509 19 510 14 q 508 29 508 25 q 531 111 508 71 q 631 225 554 151 q 746 360 718 308 q 774 467 774 411 q 759 510 774 492 q 725 528 744 528 q 675 515 690 528 q 660 468 660 501 q 668 435 660 450 q 690 417 676 419 q 659 397 675 404 q 628 390 643 390 q 586 408 601 390 q 571 458 571 426 q 615 538 571 507 q 738 568 660 568 q 852 538 814 568 q 890 449 890 508 q 856 340 890 392 q 715 208 822 289 z "},"¾":{"ha":1138,"x_min":85,"x_max":1078,"o":"m 354 -229 l 721 1042 l 821 1042 l 454 -229 l 354 -229 m 949 1 l 833 1 l 881 208 l 685 208 q 699 241 690 222 q 728 301 707 260 q 787 435 772 389 q 801 518 801 481 q 800 542 801 531 q 796 564 799 554 q 861 544 836 564 q 886 493 886 525 q 830 351 886 429 q 768 263 774 272 l 893 263 l 958 549 l 1078 564 l 1008 263 l 1061 263 l 1044 208 l 996 208 l 949 1 m 85 429 q 110 513 85 483 q 181 543 135 543 q 224 534 208 543 q 246 506 240 525 q 192 483 210 503 q 175 417 175 463 q 191 370 175 385 q 246 356 207 356 q 316 394 288 356 q 344 486 344 433 q 317 573 344 535 q 240 626 289 611 q 340 684 301 640 q 378 775 378 728 q 364 817 378 801 q 326 833 350 833 q 272 819 290 833 q 254 774 254 804 q 263 740 254 756 q 285 722 271 725 q 253 703 269 710 q 222 696 238 696 q 181 714 196 696 q 165 764 165 732 q 213 842 165 811 q 339 874 260 874 q 442 843 403 874 q 481 764 481 813 q 451 685 481 722 q 371 625 422 649 q 445 579 419 611 q 471 503 471 547 q 409 369 471 429 q 264 308 347 308 q 131 339 176 308 q 85 429 85 369 z "},"¿":{"ha":610,"x_min":17,"x_max":542,"o":"m 542 517 q 509 439 542 471 q 431 407 476 407 q 353 439 385 407 q 321 517 321 471 q 353 597 321 564 q 431 629 385 629 q 509 597 476 629 q 542 517 542 564 m 532 -119 q 452 -278 532 -212 q 240 -343 372 -343 q 73 -301 129 -343 q 17 -178 17 -260 q 49 -37 17 -99 q 185 111 81 24 q 298 218 264 176 q 351 307 332 260 l 443 307 q 419 208 443 256 q 321 76 396 160 q 215 -62 240 -10 q 190 -172 190 -115 q 211 -243 190 -218 q 267 -268 232 -268 q 344 -235 311 -268 q 378 -153 378 -201 q 363 -94 378 -121 q 325 -61 349 -68 q 369 -18 342 -33 q 426 -3 396 -3 q 502 -35 472 -3 q 532 -119 532 -67 z "},"À":{"ha":928,"x_min":13,"x_max":961,"o":"m 753 1389 l 793 1126 l 689 1126 l 607 1389 l 753 1389 m 743 943 q 622 828 686 913 q 493 614 558 744 q 585 592 543 604 q 663 565 628 579 l 743 943 m 851 1042 q 910 1037 881 1042 q 961 1022 939 1032 l 743 0 l 543 0 l 650 504 q 558 538 601 526 q 464 554 515 550 q 334 204 385 382 q 283 -81 283 26 q 288 -124 283 -106 q 303 -158 293 -143 q 157 -122 197 -158 q 117 -11 117 -86 q 173 238 117 82 q 321 554 229 393 q 210 532 250 550 q 158 482 171 514 q 170 467 164 482 q 176 439 176 453 q 154 400 176 415 q 99 385 132 385 q 36 406 60 385 q 13 465 13 428 q 94 587 13 538 q 296 636 175 636 q 328 635 310 636 q 368 632 346 635 q 617 933 490 825 q 851 1042 743 1042 z "},"Á":{"ha":928,"x_min":13,"x_max":961,"o":"m 947 1389 l 779 1126 l 675 1126 l 801 1389 l 947 1389 m 743 943 q 622 828 686 913 q 493 614 558 744 q 585 592 543 604 q 663 565 628 579 l 743 943 m 851 1042 q 910 1037 881 1042 q 961 1022 939 1032 l 743 0 l 543 0 l 650 504 q 558 538 601 526 q 464 554 515 550 q 334 204 385 382 q 283 -81 283 26 q 288 -124 283 -106 q 303 -158 293 -143 q 157 -122 197 -158 q 117 -11 117 -86 q 173 238 117 82 q 321 554 229 393 q 210 532 250 550 q 158 482 171 514 q 170 467 164 482 q 176 439 176 453 q 154 400 176 415 q 99 385 132 385 q 36 406 60 385 q 13 465 13 428 q 94 587 13 538 q 296 636 175 636 q 328 635 310 636 q 368 632 346 635 q 617 933 490 825 q 851 1042 743 1042 z "},"Â":{"ha":928,"x_min":13,"x_max":972,"o":"m 860 1389 l 889 1389 l 972 1126 l 928 1126 l 844 1238 l 626 1126 l 565 1126 l 860 1389 m 743 943 q 622 828 686 913 q 493 614 558 744 q 585 592 543 604 q 663 565 628 579 l 743 943 m 851 1042 q 910 1037 881 1042 q 961 1022 939 1032 l 743 0 l 543 0 l 650 504 q 558 538 601 526 q 464 554 515 550 q 334 204 385 382 q 283 -81 283 26 q 288 -124 283 -106 q 303 -158 293 -143 q 157 -122 197 -158 q 117 -11 117 -86 q 173 238 117 82 q 321 554 229 393 q 210 532 250 550 q 158 482 171 514 q 170 467 164 482 q 176 439 176 453 q 154 400 176 415 q 99 385 132 385 q 36 406 60 385 q 13 465 13 428 q 94 587 13 538 q 296 636 175 636 q 328 635 310 636 q 368 632 346 635 q 617 933 490 825 q 851 1042 743 1042 z "},"Ã":{"ha":928,"x_min":13,"x_max":1125,"o":"m 928 1267 q 988 1250 968 1254 q 1029 1246 1008 1246 q 1079 1254 1056 1246 q 1117 1278 1103 1263 l 1125 1276 q 1044 1181 1113 1224 q 901 1138 976 1138 q 849 1143 876 1138 q 774 1165 822 1149 q 709 1184 731 1179 q 668 1189 688 1189 q 619 1180 642 1189 q 576 1153 596 1171 l 568 1156 q 661 1257 601 1222 q 800 1292 721 1292 q 855 1287 828 1292 q 928 1267 882 1282 m 743 943 q 622 828 686 913 q 493 614 558 744 q 585 592 543 604 q 663 565 628 579 l 743 943 m 851 1042 q 910 1037 881 1042 q 961 1022 939 1032 l 743 0 l 543 0 l 650 504 q 558 538 601 526 q 464 554 515 550 q 334 204 385 382 q 283 -81 283 26 q 288 -124 283 -106 q 303 -158 293 -143 q 157 -122 197 -158 q 117 -11 117 -86 q 173 238 117 82 q 321 554 229 393 q 210 532 250 550 q 158 482 171 514 q 170 467 164 482 q 176 439 176 453 q 154 400 176 415 q 99 385 132 385 q 36 406 60 385 q 13 465 13 428 q 94 587 13 538 q 296 636 175 636 q 328 635 310 636 q 368 632 346 635 q 617 933 490 825 q 851 1042 743 1042 z "},"Ä":{"ha":928,"x_min":13,"x_max":1017,"o":"m 1017 1228 q 992 1168 1017 1193 q 932 1143 967 1143 q 872 1168 897 1143 q 847 1228 847 1193 q 872 1288 847 1263 q 932 1313 897 1313 q 992 1288 967 1313 q 1017 1228 1017 1263 m 767 1228 q 742 1168 767 1193 q 682 1143 717 1143 q 622 1168 647 1143 q 597 1228 597 1193 q 622 1288 597 1263 q 682 1313 647 1313 q 742 1288 717 1313 q 767 1228 767 1263 m 743 943 q 622 828 686 913 q 493 614 558 744 q 585 592 543 604 q 663 565 628 579 l 743 943 m 851 1042 q 910 1037 881 1042 q 961 1022 939 1032 l 743 0 l 543 0 l 650 504 q 558 538 601 526 q 464 554 515 550 q 334 204 385 382 q 283 -81 283 26 q 288 -124 283 -106 q 303 -158 293 -143 q 157 -122 197 -158 q 117 -11 117 -86 q 173 238 117 82 q 321 554 229 393 q 210 532 250 550 q 158 482 171 514 q 170 467 164 482 q 176 439 176 453 q 154 400 176 415 q 99 385 132 385 q 36 406 60 385 q 13 465 13 428 q 94 587 13 538 q 296 636 175 636 q 328 635 310 636 q 368 632 346 635 q 617 933 490 825 q 851 1042 743 1042 z "},"Å":{"ha":928,"x_min":13,"x_max":961,"o":"m 771 1114 q 701 1142 728 1114 q 674 1211 674 1169 q 706 1299 674 1261 q 792 1338 739 1338 q 865 1309 839 1338 q 892 1231 892 1281 q 860 1145 892 1176 q 771 1114 828 1114 m 729 1214 q 741 1176 729 1189 q 776 1163 753 1163 q 824 1179 807 1163 q 840 1226 840 1196 q 829 1277 840 1263 q 794 1292 818 1292 q 747 1270 764 1292 q 729 1214 729 1249 m 743 943 q 622 828 686 913 q 493 614 558 744 q 585 592 543 604 q 663 565 628 579 l 743 943 m 851 1042 q 910 1037 881 1042 q 961 1022 939 1032 l 743 0 l 543 0 l 650 504 q 558 538 601 526 q 464 554 515 550 q 334 204 385 382 q 283 -81 283 26 q 288 -124 283 -106 q 303 -158 293 -143 q 157 -122 197 -158 q 117 -11 117 -86 q 173 238 117 82 q 321 554 229 393 q 210 532 250 550 q 158 482 171 514 q 170 467 164 482 q 176 439 176 453 q 154 400 176 415 q 99 385 132 385 q 36 406 60 385 q 13 465 13 428 q 94 587 13 538 q 296 636 175 636 q 328 635 310 636 q 368 632 346 635 q 617 933 490 825 q 851 1042 743 1042 z "},"Æ":{"ha":1061,"x_min":13,"x_max":1263,"o":"m 743 943 q 619 826 685 911 q 490 613 554 742 q 582 591 539 603 q 663 565 625 579 l 743 943 m 774 147 l 1085 147 l 1056 0 l 543 0 l 650 504 q 552 540 597 528 q 463 554 507 551 q 334 207 385 385 q 283 -79 283 29 q 287 -122 283 -106 q 299 -149 290 -137 q 302 -153 301 -151 q 303 -157 303 -156 q 211 -147 238 -153 q 167 -128 185 -140 q 129 -80 142 -111 q 117 -1 117 -49 q 174 243 117 89 q 321 554 231 397 q 209 532 247 549 q 158 482 171 515 q 170 467 164 482 q 176 439 176 453 q 154 399 176 414 q 92 385 132 385 q 34 408 56 385 q 13 472 13 431 q 94 584 13 536 q 283 632 176 632 q 322 631 301 632 q 365 628 343 629 q 615 934 488 825 q 850 1043 742 1043 q 892 1041 869 1043 q 960 1031 914 1039 q 1044 1018 1014 1021 q 1100 1015 1074 1015 q 1181 1022 1140 1015 q 1263 1042 1221 1028 q 1253 1012 1261 1039 q 1238 969 1246 985 q 1217 933 1229 947 q 1189 908 1204 918 q 1155 894 1174 899 q 1114 889 1136 889 q 1053 895 1083 889 q 942 933 1022 901 l 867 582 l 1082 582 l 1054 479 l 844 479 l 774 147 z "},"Ç":{"ha":690,"x_min":26,"x_max":743,"o":"m 343 -92 q 383 -83 365 -86 q 417 -81 401 -81 q 481 -99 458 -81 q 503 -150 503 -117 q 454 -260 503 -217 q 336 -303 406 -303 q 265 -295 297 -303 q 188 -264 233 -287 q 215 -230 201 -240 q 243 -219 228 -219 q 273 -224 260 -219 q 306 -240 286 -228 q 328 -254 319 -251 q 346 -257 336 -257 q 375 -240 363 -257 q 388 -199 388 -222 q 373 -162 388 -176 q 333 -149 358 -149 q 299 -152 315 -149 q 261 -165 283 -156 l 313 -22 q 94 63 161 -18 q 26 319 26 144 q 56 560 26 435 q 136 783 85 685 q 298 976 203 910 q 511 1042 393 1042 q 683 994 622 1042 q 743 856 743 946 q 718 760 743 793 q 646 728 693 728 q 602 737 622 728 q 567 764 582 746 q 611 815 592 776 q 631 892 631 853 q 608 954 631 932 q 546 976 586 976 q 425 902 485 976 q 321 697 365 828 q 274 512 290 608 q 257 328 257 415 q 297 162 257 213 q 424 111 338 111 q 574 148 503 111 q 694 250 646 185 l 726 236 q 587 63 683 131 q 372 -19 490 -6 l 343 -92 z "},"È":{"ha":638,"x_min":10,"x_max":685,"o":"m 496 1389 l 536 1126 l 432 1126 l 350 1389 l 496 1389 m 251 249 q 285 145 251 182 q 383 108 319 108 q 532 149 457 108 q 640 250 607 189 l 672 236 q 508 47 621 118 q 265 -25 394 -25 q 78 42 146 -25 q 10 219 10 108 q 83 447 10 340 q 267 579 157 553 q 203 651 225 608 q 182 746 182 694 q 272 953 182 863 q 486 1044 361 1044 q 630 997 575 1044 q 685 871 685 950 q 655 768 685 810 q 582 726 625 726 q 547 736 563 726 q 517 764 531 746 q 560 809 542 772 q 578 885 578 846 q 557 942 578 921 q 501 963 536 963 q 401 903 443 963 q 360 767 360 844 q 397 648 360 697 q 500 581 433 599 q 324 456 397 557 q 251 249 251 356 z "},"É":{"ha":638,"x_min":10,"x_max":731,"o":"m 731 1389 l 563 1126 l 458 1126 l 585 1389 l 731 1389 m 251 249 q 285 145 251 182 q 383 108 319 108 q 532 149 457 108 q 640 250 607 189 l 672 236 q 508 47 621 118 q 265 -25 394 -25 q 78 42 146 -25 q 10 219 10 108 q 83 447 10 340 q 267 579 157 553 q 203 651 225 608 q 182 746 182 694 q 272 953 182 863 q 486 1044 361 1044 q 630 997 575 1044 q 685 871 685 950 q 655 768 685 810 q 582 726 625 726 q 547 736 563 726 q 517 764 531 746 q 560 809 542 772 q 578 885 578 846 q 557 942 578 921 q 501 963 536 963 q 401 903 443 963 q 360 767 360 844 q 397 648 360 697 q 500 581 433 599 q 324 456 397 557 q 251 249 251 356 z "},"Ê":{"ha":638,"x_min":10,"x_max":688,"o":"m 575 1389 l 604 1389 l 688 1126 l 643 1126 l 560 1238 l 342 1126 l 281 1126 l 575 1389 m 251 249 q 285 145 251 182 q 383 108 319 108 q 532 149 457 108 q 640 250 607 189 l 672 236 q 508 47 621 118 q 265 -25 394 -25 q 78 42 146 -25 q 10 219 10 108 q 83 447 10 340 q 267 579 157 553 q 203 651 225 608 q 182 746 182 694 q 272 953 182 863 q 486 1044 361 1044 q 630 997 575 1044 q 685 871 685 950 q 655 768 685 810 q 582 726 625 726 q 547 736 563 726 q 517 764 531 746 q 560 809 542 772 q 578 885 578 846 q 557 942 578 921 q 501 963 536 963 q 401 903 443 963 q 360 767 360 844 q 397 648 360 697 q 500 581 433 599 q 324 456 397 557 q 251 249 251 356 z "},"Ë":{"ha":638,"x_min":10,"x_max":750,"o":"m 750 1228 q 725 1168 750 1193 q 665 1143 700 1143 q 606 1168 631 1143 q 581 1228 581 1193 q 606 1288 581 1263 q 665 1313 631 1313 q 725 1288 700 1313 q 750 1228 750 1263 m 500 1228 q 475 1168 500 1193 q 415 1143 450 1143 q 356 1168 381 1143 q 331 1228 331 1193 q 356 1288 331 1263 q 415 1313 381 1313 q 475 1288 450 1313 q 500 1228 500 1263 m 251 249 q 285 145 251 182 q 383 108 319 108 q 532 149 457 108 q 640 250 607 189 l 672 236 q 508 47 621 118 q 265 -25 394 -25 q 78 42 146 -25 q 10 219 10 108 q 83 447 10 340 q 267 579 157 553 q 203 651 225 608 q 182 746 182 694 q 272 953 182 863 q 486 1044 361 1044 q 630 997 575 1044 q 685 871 685 950 q 655 768 685 810 q 582 726 625 726 q 547 736 563 726 q 517 764 531 746 q 560 809 542 772 q 578 885 578 846 q 557 942 578 921 q 501 963 536 963 q 401 903 443 963 q 360 767 360 844 q 397 648 360 697 q 500 581 433 599 q 324 456 397 557 q 251 249 251 356 z "},"Ì":{"ha":521,"x_min":8,"x_max":551,"o":"m 383 1389 l 424 1126 l 319 1126 l 238 1389 l 383 1389 m 185 944 q 337 1016 256 990 q 496 1042 418 1042 q 517 1041 506 1042 q 551 1039 529 1040 l 331 0 l 131 0 l 332 943 q 188 826 238 904 q 138 640 138 749 q 141 594 138 614 q 153 557 144 575 q 156 549 156 551 q 157 546 157 547 q 44 578 79 546 q 8 681 8 611 q 55 819 8 750 q 185 944 101 889 z "},"Í":{"ha":521,"x_min":8,"x_max":646,"o":"m 646 1389 l 478 1126 l 374 1126 l 500 1389 l 646 1389 m 185 944 q 337 1016 256 990 q 496 1042 418 1042 q 517 1041 506 1042 q 551 1039 529 1040 l 331 0 l 131 0 l 332 943 q 188 826 238 904 q 138 640 138 749 q 141 594 138 614 q 153 557 144 575 q 156 549 156 551 q 157 546 157 547 q 44 578 79 546 q 8 681 8 611 q 55 819 8 750 q 185 944 101 889 z "},"Î":{"ha":521,"x_min":8,"x_max":617,"o":"m 504 1389 l 533 1389 l 617 1126 l 572 1126 l 489 1238 l 271 1126 l 210 1126 l 504 1389 m 185 944 q 337 1016 256 990 q 496 1042 418 1042 q 517 1041 506 1042 q 551 1039 529 1040 l 331 0 l 131 0 l 332 943 q 188 826 238 904 q 138 640 138 749 q 141 594 138 614 q 153 557 144 575 q 156 549 156 551 q 157 546 157 547 q 44 578 79 546 q 8 681 8 611 q 55 819 8 750 q 185 944 101 889 z "},"Ï":{"ha":521,"x_min":8,"x_max":651,"o":"m 651 1228 q 626 1168 651 1193 q 567 1143 601 1143 q 507 1168 532 1143 q 482 1228 482 1193 q 507 1288 482 1263 q 567 1313 532 1313 q 626 1288 601 1313 q 651 1228 651 1263 m 401 1228 q 376 1168 401 1193 q 317 1143 351 1143 q 257 1168 282 1143 q 232 1228 232 1193 q 257 1288 232 1263 q 317 1313 282 1313 q 376 1288 351 1313 q 401 1228 401 1263 m 185 944 q 337 1016 256 990 q 496 1042 418 1042 q 517 1041 506 1042 q 551 1039 529 1040 l 331 0 l 131 0 l 332 943 q 188 826 238 904 q 138 640 138 749 q 141 594 138 614 q 153 557 144 575 q 156 549 156 551 q 157 546 157 547 q 44 578 79 546 q 8 681 8 611 q 55 819 8 750 q 185 944 101 889 z "},"Ð":{"ha":921,"x_min":8,"x_max":896,"o":"m 207 582 l 256 582 l 319 883 l 525 911 l 454 582 l 564 582 l 536 479 l 432 479 l 358 132 q 397 111 378 118 q 438 104 417 104 q 626 289 549 104 q 704 706 704 474 q 660 919 704 860 q 513 978 617 978 q 239 887 340 978 q 138 640 138 796 q 141 594 138 614 q 153 557 144 575 q 156 549 156 551 q 157 546 157 547 q 44 578 79 546 q 8 681 8 611 q 55 819 8 750 q 185 944 101 889 q 337 1016 256 990 q 496 1042 418 1042 q 796 949 696 1042 q 896 667 896 856 q 874 450 896 557 q 811 251 853 343 q 676 53 756 125 q 511 -18 596 -18 q 427 1 469 -18 q 342 56 385 19 l 331 0 l 131 0 l 233 479 l 179 479 l 207 582 z "},"Ñ":{"ha":953,"x_min":8,"x_max":992,"o":"m 788 1267 q 848 1250 828 1254 q 889 1246 868 1246 q 939 1254 915 1246 q 976 1278 963 1263 l 985 1276 q 904 1181 972 1224 q 761 1138 836 1138 q 709 1143 736 1138 q 633 1165 682 1149 q 569 1184 590 1179 q 528 1189 547 1189 q 478 1180 501 1189 q 436 1153 456 1171 l 428 1156 q 521 1257 461 1222 q 660 1292 581 1292 q 715 1287 688 1292 q 788 1267 742 1282 m 531 1022 l 640 286 l 792 1039 l 992 1039 l 771 0 l 603 0 l 485 726 l 331 0 l 131 0 l 331 943 q 188 826 238 904 q 138 640 138 749 q 141 594 138 614 q 153 557 144 575 q 156 549 156 551 q 157 546 157 547 q 44 578 79 546 q 8 681 8 611 q 42 816 8 747 q 133 938 75 885 q 258 1015 189 989 q 401 1042 326 1042 q 483 1037 456 1042 q 531 1022 510 1032 z "},"Ò":{"ha":914,"x_min":22,"x_max":911,"o":"m 551 1389 l 592 1126 l 488 1126 l 406 1389 l 551 1389 m 238 665 q 367 856 293 790 q 526 922 440 922 q 564 919 546 922 q 599 911 582 917 q 433 647 510 857 q 356 265 356 438 q 376 146 356 188 q 436 104 397 104 q 553 178 493 104 q 658 375 613 251 q 709 556 692 463 q 726 735 726 650 q 686 926 726 874 q 549 978 646 978 q 263 877 378 978 q 149 621 149 776 q 151 587 149 601 q 160 557 153 572 q 162 549 161 551 q 163 546 163 547 q 57 574 92 546 q 22 663 22 603 q 77 816 22 740 q 229 949 132 892 q 398 1017 307 993 q 582 1042 489 1042 q 828 952 746 1042 q 911 686 911 863 q 878 449 911 571 q 786 231 844 326 q 617 53 715 114 q 399 -8 518 -8 q 213 63 276 -8 q 150 271 150 133 q 174 467 150 360 q 238 665 197 575 z "},"Ó":{"ha":914,"x_min":22,"x_max":911,"o":"m 824 1389 l 656 1126 l 551 1126 l 678 1389 l 824 1389 m 238 665 q 367 856 293 790 q 526 922 440 922 q 564 919 546 922 q 599 911 582 917 q 433 647 510 857 q 356 265 356 438 q 376 146 356 188 q 436 104 397 104 q 553 178 493 104 q 658 375 613 251 q 709 556 692 463 q 726 735 726 650 q 686 926 726 874 q 549 978 646 978 q 263 877 378 978 q 149 621 149 776 q 151 587 149 601 q 160 557 153 572 q 162 549 161 551 q 163 546 163 547 q 57 574 92 546 q 22 663 22 603 q 77 816 22 740 q 229 949 132 892 q 398 1017 307 993 q 582 1042 489 1042 q 828 952 746 1042 q 911 686 911 863 q 878 449 911 571 q 786 231 844 326 q 617 53 715 114 q 399 -8 518 -8 q 213 63 276 -8 q 150 271 150 133 q 174 467 150 360 q 238 665 197 575 z "},"Ô":{"ha":914,"x_min":22,"x_max":911,"o":"m 672 1389 l 701 1389 l 785 1126 l 740 1126 l 657 1238 l 439 1126 l 378 1126 l 672 1389 m 238 665 q 367 856 293 790 q 526 922 440 922 q 564 919 546 922 q 599 911 582 917 q 433 647 510 857 q 356 265 356 438 q 376 146 356 188 q 436 104 397 104 q 553 178 493 104 q 658 375 613 251 q 709 556 692 463 q 726 735 726 650 q 686 926 726 874 q 549 978 646 978 q 263 877 378 978 q 149 621 149 776 q 151 587 149 601 q 160 557 153 572 q 162 549 161 551 q 163 546 163 547 q 57 574 92 546 q 22 663 22 603 q 77 816 22 740 q 229 949 132 892 q 398 1017 307 993 q 582 1042 489 1042 q 828 952 746 1042 q 911 686 911 863 q 878 449 911 571 q 786 231 844 326 q 617 53 715 114 q 399 -8 518 -8 q 213 63 276 -8 q 150 271 150 133 q 174 467 150 360 q 238 665 197 575 z "},"Õ":{"ha":914,"x_min":22,"x_max":938,"o":"m 740 1267 q 801 1250 781 1254 q 842 1246 821 1246 q 892 1254 868 1246 q 929 1278 915 1263 l 938 1276 q 857 1181 925 1224 q 714 1138 789 1138 q 662 1143 689 1138 q 586 1165 635 1149 q 522 1184 543 1179 q 481 1189 500 1189 q 431 1180 454 1189 q 389 1153 408 1171 l 381 1156 q 474 1257 414 1222 q 613 1292 533 1292 q 667 1287 640 1292 q 740 1267 694 1282 m 238 665 q 367 856 293 790 q 526 922 440 922 q 564 919 546 922 q 599 911 582 917 q 433 647 510 857 q 356 265 356 438 q 376 146 356 188 q 436 104 397 104 q 553 178 493 104 q 658 375 613 251 q 709 556 692 463 q 726 735 726 650 q 686 926 726 874 q 549 978 646 978 q 263 877 378 978 q 149 621 149 776 q 151 587 149 601 q 160 557 153 572 q 162 549 161 551 q 163 546 163 547 q 57 574 92 546 q 22 663 22 603 q 77 816 22 740 q 229 949 132 892 q 398 1017 307 993 q 582 1042 489 1042 q 828 952 746 1042 q 911 686 911 863 q 878 449 911 571 q 786 231 844 326 q 617 53 715 114 q 399 -8 518 -8 q 213 63 276 -8 q 150 271 150 133 q 174 467 150 360 q 238 665 197 575 z "},"Ö":{"ha":914,"x_min":22,"x_max":911,"o":"m 819 1228 q 794 1168 819 1193 q 735 1143 769 1143 q 675 1168 700 1143 q 650 1228 650 1193 q 675 1288 650 1263 q 735 1313 700 1313 q 794 1288 769 1313 q 819 1228 819 1263 m 569 1228 q 544 1168 569 1193 q 485 1143 519 1143 q 425 1168 450 1143 q 400 1228 400 1193 q 425 1288 400 1263 q 485 1313 450 1313 q 544 1288 519 1313 q 569 1228 569 1263 m 238 665 q 367 856 293 790 q 526 922 440 922 q 564 919 546 922 q 599 911 582 917 q 433 647 510 857 q 356 265 356 438 q 376 146 356 188 q 436 104 397 104 q 553 178 493 104 q 658 375 613 251 q 709 556 692 463 q 726 735 726 650 q 686 926 726 874 q 549 978 646 978 q 263 877 378 978 q 149 621 149 776 q 151 587 149 601 q 160 557 153 572 q 162 549 161 551 q 163 546 163 547 q 57 574 92 546 q 22 663 22 603 q 77 816 22 740 q 229 949 132 892 q 398 1017 307 993 q 582 1042 489 1042 q 828 952 746 1042 q 911 686 911 863 q 878 449 911 571 q 786 231 844 326 q 617 53 715 114 q 399 -8 518 -8 q 213 63 276 -8 q 150 271 150 133 q 174 467 150 360 q 238 665 197 575 z "},"×":{"ha":715,"x_min":136,"x_max":579,"o":"m 136 229 l 268 361 l 136 493 l 226 582 l 357 450 l 490 583 l 579 493 l 447 361 l 579 229 l 490 139 l 357 271 l 226 140 l 136 229 z "},"Ø":{"ha":914,"x_min":21,"x_max":878,"o":"m 775 246 q 638 79 718 142 q 461 -1 558 17 l 440 -99 l 368 -99 l 388 -8 q 206 58 267 -8 q 144 254 144 124 q 167 439 144 338 q 231 626 190 540 q 354 803 283 742 q 507 864 425 864 q 539 862 524 864 q 569 854 554 860 l 582 911 q 558 914 571 913 q 529 915 544 915 q 254 822 365 915 q 143 581 143 728 q 145 549 143 563 q 154 521 147 535 q 156 515 156 517 q 157 511 157 513 q 54 538 88 511 q 21 619 21 564 q 74 765 21 693 q 222 889 128 836 q 385 953 297 931 q 561 975 472 975 q 582 975 575 975 q 594 974 589 975 l 610 1042 l 682 1042 l 665 964 q 824 858 771 939 q 878 642 878 778 q 851 438 878 543 q 775 246 824 332 m 488 122 q 635 353 571 183 q 700 688 700 524 q 688 812 700 767 q 647 881 675 857 l 488 122 m 568 847 q 414 599 485 792 q 343 249 343 406 q 360 142 343 181 q 410 97 376 103 l 568 847 z "},"Ù":{"ha":999,"x_min":0,"x_max":1057,"o":"m 715 1389 l 756 1126 l 651 1126 l 569 1389 l 715 1389 m 693 318 q 728 441 710 369 q 768 610 747 513 l 861 1039 l 1057 1039 l 965 606 q 903 350 932 446 q 839 190 874 254 q 699 38 783 85 q 483 -10 614 -10 q 280 43 344 -10 q 215 211 215 96 q 226 329 215 261 q 260 496 236 397 q 297 649 272 550 q 329 778 322 747 l 375 961 q 194 847 258 931 q 129 642 129 763 q 133 594 129 614 q 144 557 136 574 q 148 549 147 551 q 149 546 149 547 q 37 578 74 546 q 0 674 0 610 q 50 823 0 750 q 190 950 100 896 q 351 1018 264 994 q 525 1042 438 1042 q 556 1040 543 1042 q 592 1035 569 1039 q 533 819 568 949 q 486 646 497 690 q 421 384 438 465 q 404 251 404 303 q 428 157 404 188 q 500 126 451 126 q 620 169 582 126 q 693 318 658 211 z "},"Ú":{"ha":999,"x_min":0,"x_max":1057,"o":"m 899 1389 l 731 1126 l 626 1126 l 753 1389 l 899 1389 m 693 318 q 728 441 710 369 q 768 610 747 513 l 861 1039 l 1057 1039 l 965 606 q 903 350 932 446 q 839 190 874 254 q 699 38 783 85 q 483 -10 614 -10 q 280 43 344 -10 q 215 211 215 96 q 226 329 215 261 q 260 496 236 397 q 297 649 272 550 q 329 778 322 747 l 375 961 q 194 847 258 931 q 129 642 129 763 q 133 594 129 614 q 144 557 136 574 q 148 549 147 551 q 149 546 149 547 q 37 578 74 546 q 0 674 0 610 q 50 823 0 750 q 190 950 100 896 q 351 1018 264 994 q 525 1042 438 1042 q 556 1040 543 1042 q 592 1035 569 1039 q 533 819 568 949 q 486 646 497 690 q 421 384 438 465 q 404 251 404 303 q 428 157 404 188 q 500 126 451 126 q 620 169 582 126 q 693 318 658 211 z "},"Û":{"ha":999,"x_min":0,"x_max":1057,"o":"m 799 1389 l 828 1389 l 911 1126 l 867 1126 l 783 1238 l 565 1126 l 504 1126 l 799 1389 m 693 318 q 728 441 710 369 q 768 610 747 513 l 861 1039 l 1057 1039 l 965 606 q 903 350 932 446 q 839 190 874 254 q 699 38 783 85 q 483 -10 614 -10 q 280 43 344 -10 q 215 211 215 96 q 226 329 215 261 q 260 496 236 397 q 297 649 272 550 q 329 778 322 747 l 375 961 q 194 847 258 931 q 129 642 129 763 q 133 594 129 614 q 144 557 136 574 q 148 549 147 551 q 149 546 149 547 q 37 578 74 546 q 0 674 0 610 q 50 823 0 750 q 190 950 100 896 q 351 1018 264 994 q 525 1042 438 1042 q 556 1040 543 1042 q 592 1035 569 1039 q 533 819 568 949 q 486 646 497 690 q 421 384 438 465 q 404 251 404 303 q 428 157 404 188 q 500 126 451 126 q 620 169 582 126 q 693 318 658 211 z "},"Ü":{"ha":999,"x_min":0,"x_max":1057,"o":"m 938 1228 q 913 1168 938 1193 q 853 1143 888 1143 q 793 1168 818 1143 q 768 1228 768 1193 q 793 1288 768 1263 q 853 1313 818 1313 q 913 1288 888 1313 q 938 1228 938 1263 m 688 1228 q 663 1168 688 1193 q 603 1143 638 1143 q 543 1168 568 1143 q 518 1228 518 1193 q 543 1288 518 1263 q 603 1313 568 1313 q 663 1288 638 1313 q 688 1228 688 1263 m 693 318 q 728 441 710 369 q 768 610 747 513 l 861 1039 l 1057 1039 l 965 606 q 903 350 932 446 q 839 190 874 254 q 699 38 783 85 q 483 -10 614 -10 q 280 43 344 -10 q 215 211 215 96 q 226 329 215 261 q 260 496 236 397 q 297 649 272 550 q 329 778 322 747 l 375 961 q 194 847 258 931 q 129 642 129 763 q 133 594 129 614 q 144 557 136 574 q 148 549 147 551 q 149 546 149 547 q 37 578 74 546 q 0 674 0 610 q 50 823 0 750 q 190 950 100 896 q 351 1018 264 994 q 525 1042 438 1042 q 556 1040 543 1042 q 592 1035 569 1039 q 533 819 568 949 q 486 646 497 690 q 421 384 438 465 q 404 251 404 303 q 428 157 404 188 q 500 126 451 126 q 620 169 582 126 q 693 318 658 211 z "},"Ý":{"ha":861,"x_min":8,"x_max":969,"o":"m 901 1389 l 733 1126 l 629 1126 l 756 1389 l 901 1389 m 969 1035 l 700 428 l 608 0 l 386 0 l 478 428 l 344 949 q 191 833 244 913 q 138 640 138 753 q 141 594 138 614 q 153 557 144 575 q 156 549 156 551 q 157 546 157 547 q 44 578 79 546 q 8 681 8 611 q 55 819 8 750 q 185 944 101 889 q 337 1016 256 990 q 496 1042 418 1042 q 517 1041 506 1042 q 551 1039 529 1040 l 672 542 l 878 1035 l 969 1035 z "},"Þ":{"ha":810,"x_min":8,"x_max":824,"o":"m 8 528 q 94 717 8 625 q 313 856 181 808 l 347 1014 l 553 1042 l 519 889 q 742 808 661 882 q 824 615 824 733 q 791 471 824 542 q 700 347 758 400 q 574 269 644 296 q 422 243 503 243 l 382 243 l 331 0 l 131 0 l 297 781 q 178 664 219 739 q 138 488 138 589 q 141 442 138 461 q 153 404 144 422 q 156 397 156 399 q 157 393 157 394 q 44 426 79 393 q 8 528 8 458 m 669 636 q 627 772 669 722 q 507 825 585 822 l 393 294 l 413 294 q 592 402 514 294 q 669 636 669 510 z "},"ß":{"ha":625,"x_min":-118,"x_max":563,"o":"m 463 781 q 451 834 463 818 q 410 850 439 850 q 349 821 375 850 q 313 736 324 792 l 92 -297 l -118 -347 l 113 736 q 201 913 138 853 q 365 972 265 972 q 504 923 453 972 q 556 796 556 874 q 521 676 556 732 q 428 593 486 621 q 528 519 493 571 q 563 396 563 468 q 548 258 563 322 q 504 143 533 194 q 410 38 467 76 q 299 0 353 0 q 281 1 290 0 q 253 3 272 1 l 271 85 q 381 185 340 85 q 422 425 422 285 q 398 503 422 475 q 322 546 374 532 l 347 626 q 432 689 401 649 q 463 781 463 729 z "},"à":{"ha":731,"x_min":-18,"x_max":789,"o":"m 446 1042 l 486 779 l 382 779 l 300 1042 l 446 1042 m 451 631 l 451 621 l 467 694 l 667 694 l 567 222 q 563 199 564 210 q 561 178 561 189 q 575 133 561 147 q 618 118 589 118 q 683 152 654 118 q 731 249 713 186 l 789 249 q 674 56 744 121 q 510 -8 603 -8 q 415 25 450 -8 q 374 119 379 58 q 278 24 331 56 q 167 -8 226 -8 q 31 50 81 -8 q -18 215 -18 108 q 6 378 -18 293 q 71 532 29 463 q 190 658 122 614 q 339 701 258 701 q 422 683 393 701 q 451 631 451 664 m 439 563 q 424 599 439 583 q 382 615 408 615 q 247 488 306 615 q 188 235 188 360 q 203 153 188 181 q 257 126 218 126 q 327 161 293 126 q 372 249 361 196 l 439 563 z "},"á":{"ha":731,"x_min":-18,"x_max":789,"o":"m 613 1042 l 444 779 l 340 779 l 467 1042 l 613 1042 m 451 631 l 451 621 l 467 694 l 667 694 l 567 222 q 563 199 564 210 q 561 178 561 189 q 575 133 561 147 q 618 118 589 118 q 683 152 654 118 q 731 249 713 186 l 789 249 q 674 56 744 121 q 510 -8 603 -8 q 415 25 450 -8 q 374 119 379 58 q 278 24 331 56 q 167 -8 226 -8 q 31 50 81 -8 q -18 215 -18 108 q 6 378 -18 293 q 71 532 29 463 q 190 658 122 614 q 339 701 258 701 q 422 683 393 701 q 451 631 451 664 m 439 563 q 424 599 439 583 q 382 615 408 615 q 247 488 306 615 q 188 235 188 360 q 203 153 188 181 q 257 126 218 126 q 327 161 293 126 q 372 249 361 196 l 439 563 z "},"â":{"ha":731,"x_min":-18,"x_max":789,"o":"m 497 1042 l 526 1042 l 610 779 l 565 779 l 482 890 l 264 779 l 203 779 l 497 1042 m 451 631 l 451 621 l 467 694 l 667 694 l 567 222 q 563 199 564 210 q 561 178 561 189 q 575 133 561 147 q 618 118 589 118 q 683 152 654 118 q 731 249 713 186 l 789 249 q 674 56 744 121 q 510 -8 603 -8 q 415 25 450 -8 q 374 119 379 58 q 278 24 331 56 q 167 -8 226 -8 q 31 50 81 -8 q -18 215 -18 108 q 6 378 -18 293 q 71 532 29 463 q 190 658 122 614 q 339 701 258 701 q 422 683 393 701 q 451 631 451 664 m 439 563 q 424 599 439 583 q 382 615 408 615 q 247 488 306 615 q 188 235 188 360 q 203 153 188 181 q 257 126 218 126 q 327 161 293 126 q 372 249 361 196 l 439 563 z "},"ã":{"ha":731,"x_min":-18,"x_max":789,"o":"m 501 919 q 562 903 542 907 q 603 899 582 899 q 653 907 629 899 q 690 931 676 915 l 699 929 q 618 833 686 876 q 475 790 550 790 q 423 796 450 790 q 347 818 396 801 q 283 837 304 832 q 242 842 261 842 q 192 833 215 842 q 150 806 169 824 l 142 808 q 235 910 175 875 q 374 944 294 944 q 428 940 401 944 q 501 919 456 935 m 451 631 l 451 621 l 467 694 l 667 694 l 567 222 q 563 199 564 210 q 561 178 561 189 q 575 133 561 147 q 618 118 589 118 q 683 152 654 118 q 731 249 713 186 l 789 249 q 674 56 744 121 q 510 -8 603 -8 q 415 25 450 -8 q 374 119 379 58 q 278 24 331 56 q 167 -8 226 -8 q 31 50 81 -8 q -18 215 -18 108 q 6 378 -18 293 q 71 532 29 463 q 190 658 122 614 q 339 701 258 701 q 422 683 393 701 q 451 631 451 664 m 439 563 q 424 599 439 583 q 382 615 408 615 q 247 488 306 615 q 188 235 188 360 q 203 153 188 181 q 257 126 218 126 q 327 161 293 126 q 372 249 361 196 l 439 563 z "},"ä":{"ha":731,"x_min":-18,"x_max":789,"o":"m 669 881 q 644 821 669 846 q 585 796 619 796 q 525 821 550 796 q 500 881 500 846 q 525 940 500 915 q 585 965 550 965 q 644 940 619 965 q 669 881 669 915 m 419 881 q 394 821 419 846 q 335 796 369 796 q 275 821 300 796 q 250 881 250 846 q 275 940 250 915 q 335 965 300 965 q 394 940 369 965 q 419 881 419 915 m 451 631 l 451 621 l 467 694 l 667 694 l 567 222 q 563 199 564 210 q 561 178 561 189 q 575 133 561 147 q 618 118 589 118 q 683 152 654 118 q 731 249 713 186 l 789 249 q 674 56 744 121 q 510 -8 603 -8 q 415 25 450 -8 q 374 119 379 58 q 278 24 331 56 q 167 -8 226 -8 q 31 50 81 -8 q -18 215 -18 108 q 6 378 -18 293 q 71 532 29 463 q 190 658 122 614 q 339 701 258 701 q 422 683 393 701 q 451 631 451 664 m 439 563 q 424 599 439 583 q 382 615 408 615 q 247 488 306 615 q 188 235 188 360 q 203 153 188 181 q 257 126 218 126 q 327 161 293 126 q 372 249 361 196 l 439 563 z "},"å":{"ha":731,"x_min":-18,"x_max":789,"o":"m 422 767 q 352 794 379 767 q 325 864 325 822 q 358 952 325 914 q 443 990 390 990 q 517 962 490 990 q 543 883 543 933 q 511 798 543 829 q 422 767 479 767 m 381 867 q 392 828 381 842 q 428 815 404 815 q 475 832 458 815 q 492 879 492 849 q 481 930 492 915 q 446 944 469 944 q 398 923 415 944 q 381 867 381 901 m 451 631 l 451 621 l 467 694 l 667 694 l 567 222 q 563 199 564 210 q 561 178 561 189 q 575 133 561 147 q 618 118 589 118 q 683 152 654 118 q 731 249 713 186 l 789 249 q 674 56 744 121 q 510 -8 603 -8 q 415 25 450 -8 q 374 119 379 58 q 278 24 331 56 q 167 -8 226 -8 q 31 50 81 -8 q -18 215 -18 108 q 6 378 -18 293 q 71 532 29 463 q 190 658 122 614 q 339 701 258 701 q 422 683 393 701 q 451 631 451 664 m 439 563 q 424 599 439 583 q 382 615 408 615 q 247 488 306 615 q 188 235 188 360 q 203 153 188 181 q 257 126 218 126 q 327 161 293 126 q 372 249 361 196 l 439 563 z "},"æ":{"ha":903,"x_min":-11,"x_max":950,"o":"m 739 633 q 644 550 692 633 q 569 347 596 467 q 711 421 650 353 q 772 572 772 489 q 764 619 772 604 q 739 633 756 633 m 249 126 q 315 172 289 126 q 360 317 342 218 q 351 318 356 318 q 336 318 346 318 q 226 285 268 318 q 185 196 185 251 q 202 144 185 163 q 249 126 219 126 m 567 -6 q 432 27 483 -6 q 363 125 381 60 q 277 22 324 51 q 165 -8 231 -8 q 35 38 81 -8 q -11 172 -11 83 q 67 344 -11 286 q 297 403 144 403 q 334 401 317 403 q 369 397 351 400 q 391 460 383 428 q 399 519 399 492 q 376 592 399 565 q 314 618 354 618 q 225 603 264 618 q 146 553 186 589 l 107 593 q 216 676 163 650 q 360 701 269 701 q 461 688 415 701 q 540 646 507 674 q 628 692 581 676 q 728 707 675 707 q 842 674 804 707 q 879 569 879 640 q 784 372 879 457 q 560 281 689 288 q 558 252 558 261 q 557 236 557 243 q 576 139 557 169 q 640 108 594 108 q 768 133 715 108 q 903 249 821 158 l 950 249 q 775 56 869 118 q 567 -6 681 -6 z "},"ç":{"ha":533,"x_min":-18,"x_max":581,"o":"m 308 -199 q 294 -162 308 -176 q 254 -149 279 -149 q 220 -152 236 -149 q 182 -165 204 -156 l 239 -6 q 224 -8 232 -7 q 199 -8 215 -8 q 37 47 92 -8 q -18 213 -18 103 q 6 381 -18 292 q 74 539 31 469 q 197 665 125 622 q 356 707 268 707 q 471 674 432 707 q 510 579 510 642 q 490 505 510 532 q 436 478 469 478 q 413 482 425 478 q 388 494 400 486 q 400 538 396 517 q 404 576 404 558 q 394 619 404 604 q 365 633 385 633 q 246 492 304 633 q 188 225 188 351 q 209 135 188 161 q 288 108 231 108 q 408 138 353 108 q 533 249 463 168 l 581 249 q 449 90 518 149 q 303 7 381 31 l 264 -92 q 304 -83 286 -86 q 338 -81 322 -81 q 401 -99 379 -81 q 424 -150 424 -117 q 375 -260 424 -217 q 257 -303 326 -303 q 186 -295 218 -303 q 108 -264 154 -287 q 135 -230 122 -240 q 164 -219 149 -219 q 194 -224 181 -219 q 226 -240 207 -228 q 249 -254 240 -251 q 267 -257 257 -257 q 296 -240 283 -257 q 308 -199 308 -222 z "},"è":{"ha":533,"x_min":-18,"x_max":581,"o":"m 386 1042 l 426 779 l 322 779 l 240 1042 l 386 1042 m 510 574 q 415 373 510 458 q 190 281 321 288 q 188 245 189 257 q 188 225 188 233 q 209 135 188 161 q 288 108 231 108 q 408 138 353 108 q 533 249 463 168 l 581 249 q 406 55 500 118 q 199 -8 311 -8 q 37 47 92 -8 q -18 213 -18 103 q 7 381 -18 292 q 74 539 32 469 q 197 665 125 622 q 357 707 268 707 q 472 674 433 707 q 510 574 510 642 m 368 633 q 273 549 321 633 q 201 347 225 465 q 342 422 282 353 q 403 576 403 490 q 394 619 403 606 q 368 633 386 633 z "},"é":{"ha":533,"x_min":-18,"x_max":581,"o":"m 542 1042 l 374 779 l 269 779 l 396 1042 l 542 1042 m 510 574 q 415 373 510 458 q 190 281 321 288 q 188 245 189 257 q 188 225 188 233 q 209 135 188 161 q 288 108 231 108 q 408 138 353 108 q 533 249 463 168 l 581 249 q 406 55 500 118 q 199 -8 311 -8 q 37 47 92 -8 q -18 213 -18 103 q 7 381 -18 292 q 74 539 32 469 q 197 665 125 622 q 357 707 268 707 q 472 674 433 707 q 510 574 510 642 m 368 633 q 273 549 321 633 q 201 347 225 465 q 342 422 282 353 q 403 576 403 490 q 394 619 403 606 q 368 633 386 633 z "},"ê":{"ha":533,"x_min":-18,"x_max":581,"o":"m 440 1042 l 469 1042 l 553 779 l 508 779 l 425 890 l 207 779 l 146 779 l 440 1042 m 510 574 q 415 373 510 458 q 190 281 321 288 q 188 245 189 257 q 188 225 188 233 q 209 135 188 161 q 288 108 231 108 q 408 138 353 108 q 533 249 463 168 l 581 249 q 406 55 500 118 q 199 -8 311 -8 q 37 47 92 -8 q -18 213 -18 103 q 7 381 -18 292 q 74 539 32 469 q 197 665 125 622 q 357 707 268 707 q 472 674 433 707 q 510 574 510 642 m 368 633 q 273 549 321 633 q 201 347 225 465 q 342 422 282 353 q 403 576 403 490 q 394 619 403 606 q 368 633 386 633 z "},"ë":{"ha":533,"x_min":-18,"x_max":585,"o":"m 585 881 q 560 821 585 846 q 500 796 535 796 q 440 821 465 796 q 415 881 415 846 q 440 940 415 915 q 500 965 465 965 q 560 940 535 965 q 585 881 585 915 m 335 881 q 310 821 335 846 q 250 796 285 796 q 190 821 215 796 q 165 881 165 846 q 190 940 165 915 q 250 965 215 965 q 310 940 285 965 q 335 881 335 915 m 510 574 q 415 373 510 458 q 190 281 321 288 q 188 245 189 257 q 188 225 188 233 q 209 135 188 161 q 288 108 231 108 q 408 138 353 108 q 533 249 463 168 l 581 249 q 406 55 500 118 q 199 -8 311 -8 q 37 47 92 -8 q -18 213 -18 103 q 7 381 -18 292 q 74 539 32 469 q 197 665 125 622 q 357 707 268 707 q 472 674 433 707 q 510 574 510 642 m 368 633 q 273 549 321 633 q 201 347 225 465 q 342 422 282 353 q 403 576 403 490 q 394 619 403 606 q 368 633 386 633 z "},"ì":{"ha":371,"x_min":-11,"x_max":429,"o":"m 238 1042 l 278 779 l 174 779 l 92 1042 l 238 1042 m -11 158 q -8 199 -11 176 q 0 249 -6 222 l 94 694 l 294 694 l 194 222 q 190 199 192 210 q 189 178 189 189 q 202 138 189 150 q 246 126 215 126 q 319 160 285 126 q 371 249 354 194 l 429 249 q 310 57 385 122 q 138 -8 235 -8 q 28 35 68 -8 q -11 158 -11 79 z "},"í":{"ha":371,"x_min":-11,"x_max":440,"o":"m 440 1042 l 272 779 l 168 779 l 294 1042 l 440 1042 m -11 158 q -8 199 -11 176 q 0 249 -6 222 l 94 694 l 294 694 l 194 222 q 190 199 192 210 q 189 178 189 189 q 202 138 189 150 q 246 126 215 126 q 319 160 285 126 q 371 249 354 194 l 429 249 q 310 57 385 122 q 138 -8 235 -8 q 28 35 68 -8 q -11 158 -11 79 z "},"î":{"ha":371,"x_min":-11,"x_max":429,"o":"m 303 1042 l 332 1042 l 415 779 l 371 779 l 288 890 l 69 779 l 8 779 l 303 1042 m -11 158 q -8 199 -11 176 q 0 249 -6 222 l 94 694 l 294 694 l 194 222 q 190 199 192 210 q 189 178 189 189 q 202 138 189 150 q 246 126 215 126 q 319 160 285 126 q 371 249 354 194 l 429 249 q 310 57 385 122 q 138 -8 235 -8 q 28 35 68 -8 q -11 158 -11 79 z "},"ï":{"ha":371,"x_min":-11,"x_max":443,"o":"m 443 881 q 418 821 443 846 q 358 796 393 796 q 299 821 324 796 q 274 881 274 846 q 299 940 274 915 q 358 965 324 965 q 418 940 393 965 q 443 881 443 915 m 193 881 q 168 821 193 846 q 108 796 143 796 q 49 821 74 796 q 24 881 24 846 q 49 940 24 915 q 108 965 74 965 q 168 940 143 965 q 193 881 193 915 m -11 158 q -8 199 -11 176 q 0 249 -6 222 l 94 694 l 294 694 l 194 222 q 190 199 192 210 q 189 178 189 189 q 202 138 189 150 q 246 126 215 126 q 319 160 285 126 q 371 249 354 194 l 429 249 q 310 57 385 122 q 138 -8 235 -8 q 28 35 68 -8 q -11 158 -11 79 z "},"ð":{"ha":747,"x_min":-1,"x_max":806,"o":"m 204 235 q 219 153 204 181 q 274 126 235 126 q 344 161 310 126 q 389 249 378 196 l 456 563 q 440 599 456 583 q 399 615 425 615 q 263 488 322 615 q 204 235 204 360 m 665 779 q 672 744 669 763 q 674 706 674 725 q 670 647 674 679 q 658 576 667 615 l 583 222 q 579 199 581 210 q 578 178 578 189 q 591 138 578 150 q 635 126 604 126 q 700 158 671 126 q 747 249 729 190 l 806 249 q 694 63 763 125 q 526 0 625 0 q 434 31 469 0 q 390 121 399 63 q 297 24 349 57 q 183 -8 244 -8 q 48 50 97 -8 q -1 215 -1 108 q 22 378 -1 293 q 88 532 46 463 q 207 658 139 614 q 356 701 275 701 q 439 683 410 701 q 468 631 468 664 l 468 622 l 479 674 q 490 731 486 704 q 494 779 493 757 l 388 779 l 399 835 l 494 835 q 476 904 490 871 q 436 972 463 938 l 499 972 q 596 906 563 938 q 647 835 629 874 l 735 835 l 724 779 l 665 779 z "},"ñ":{"ha":701,"x_min":-53,"x_max":760,"o":"m 482 919 q 542 903 522 907 q 583 899 563 899 q 633 907 610 899 q 671 931 657 915 l 679 929 q 599 833 667 876 q 456 790 531 790 q 403 796 431 790 q 328 818 376 801 q 263 837 285 832 q 222 842 242 842 q 173 833 196 842 q 131 806 150 824 l 122 808 q 215 910 156 875 q 354 944 275 944 q 409 940 382 944 q 482 919 436 935 m 338 149 q 344 211 338 174 q 369 331 350 249 q 394 444 389 410 q 400 503 400 479 q 388 556 400 538 q 350 574 375 574 q 288 540 317 574 q 242 446 260 506 l 147 0 l -53 0 l 94 694 l 294 694 l 279 622 q 354 681 314 661 q 442 700 394 700 q 556 660 515 700 q 596 543 596 619 q 588 467 596 511 q 558 333 581 424 q 535 233 540 263 q 529 185 529 204 q 543 141 529 156 q 585 126 557 126 q 644 150 619 126 q 701 249 669 174 l 760 249 q 652 56 715 119 q 501 -8 589 -8 q 381 34 424 -8 q 338 149 338 76 z "},"ò":{"ha":601,"x_min":-28,"x_max":772,"o":"m 394 1042 l 435 779 l 331 779 l 249 1042 l 394 1042 m -28 214 q -2 382 -28 293 q 68 540 24 471 q 192 665 119 622 q 353 707 264 707 q 486 651 442 707 q 531 485 531 596 q 537 483 533 483 q 546 482 540 482 q 649 506 589 482 q 760 565 708 529 l 772 528 q 669 456 733 486 q 526 413 604 425 q 418 110 510 225 q 194 -6 326 -6 q 29 50 86 -6 q -28 214 -28 106 m 364 622 q 238 488 297 622 q 179 232 179 353 q 194 143 179 167 q 250 119 208 119 q 348 203 301 119 q 411 408 394 286 q 383 427 392 413 q 374 467 374 442 q 385 513 374 493 q 417 542 396 532 q 402 604 414 586 q 364 622 390 622 z "},"ó":{"ha":601,"x_min":-28,"x_max":772,"o":"m 576 1042 l 408 779 l 304 779 l 431 1042 l 576 1042 m -28 214 q -2 382 -28 293 q 68 540 24 471 q 192 665 119 622 q 353 707 264 707 q 486 651 442 707 q 531 485 531 596 q 537 483 533 483 q 546 482 540 482 q 649 506 589 482 q 760 565 708 529 l 772 528 q 669 456 733 486 q 526 413 604 425 q 418 110 510 225 q 194 -6 326 -6 q 29 50 86 -6 q -28 214 -28 106 m 364 622 q 238 488 297 622 q 179 232 179 353 q 194 143 179 167 q 250 119 208 119 q 348 203 301 119 q 411 408 394 286 q 383 427 392 413 q 374 467 374 442 q 385 513 374 493 q 417 542 396 532 q 402 604 414 586 q 364 622 390 622 z "},"ô":{"ha":601,"x_min":-28,"x_max":772,"o":"m 426 1042 l 456 1042 l 539 779 l 494 779 l 411 890 l 193 779 l 132 779 l 426 1042 m -28 214 q -2 382 -28 293 q 68 540 24 471 q 192 665 119 622 q 353 707 264 707 q 486 651 442 707 q 531 485 531 596 q 537 483 533 483 q 546 482 540 482 q 649 506 589 482 q 760 565 708 529 l 772 528 q 669 456 733 486 q 526 413 604 425 q 418 110 510 225 q 194 -6 326 -6 q 29 50 86 -6 q -28 214 -28 106 m 364 622 q 238 488 297 622 q 179 232 179 353 q 194 143 179 167 q 250 119 208 119 q 348 203 301 119 q 411 408 394 286 q 383 427 392 413 q 374 467 374 442 q 385 513 374 493 q 417 542 396 532 q 402 604 414 586 q 364 622 390 622 z "},"õ":{"ha":601,"x_min":-28,"x_max":772,"o":"m 415 919 q 476 903 456 907 q 517 899 496 899 q 567 907 543 899 q 604 931 590 915 l 613 929 q 532 833 600 876 q 389 790 464 790 q 337 796 364 790 q 261 818 310 801 q 197 837 218 832 q 156 842 175 842 q 106 833 129 842 q 64 806 83 824 l 56 808 q 149 910 89 875 q 288 944 208 944 q 342 940 315 944 q 415 919 369 935 m -28 214 q -2 382 -28 293 q 68 540 24 471 q 192 665 119 622 q 353 707 264 707 q 486 651 442 707 q 531 485 531 596 q 537 483 533 483 q 546 482 540 482 q 649 506 589 482 q 760 565 708 529 l 772 528 q 669 456 733 486 q 526 413 604 425 q 418 110 510 225 q 194 -6 326 -6 q 29 50 86 -6 q -28 214 -28 106 m 364 622 q 238 488 297 622 q 179 232 179 353 q 194 143 179 167 q 250 119 208 119 q 348 203 301 119 q 411 408 394 286 q 383 427 392 413 q 374 467 374 442 q 385 513 374 493 q 417 542 396 532 q 402 604 414 586 q 364 622 390 622 z "},"ö":{"ha":601,"x_min":-28,"x_max":772,"o":"m 565 881 q 540 821 565 846 q 481 796 515 796 q 421 821 446 796 q 396 881 396 846 q 421 940 396 915 q 481 965 446 965 q 540 940 515 965 q 565 881 565 915 m 315 881 q 290 821 315 846 q 231 796 265 796 q 171 821 196 796 q 146 881 146 846 q 171 940 146 915 q 231 965 196 965 q 290 940 265 965 q 315 881 315 915 m -28 214 q -2 382 -28 293 q 68 540 24 471 q 192 665 119 622 q 353 707 264 707 q 486 651 442 707 q 531 485 531 596 q 537 483 533 483 q 546 482 540 482 q 649 506 589 482 q 760 565 708 529 l 772 528 q 669 456 733 486 q 526 413 604 425 q 418 110 510 225 q 194 -6 326 -6 q 29 50 86 -6 q -28 214 -28 106 m 364 622 q 238 488 297 622 q 179 232 179 353 q 194 143 179 167 q 250 119 208 119 q 348 203 301 119 q 411 408 394 286 q 383 427 392 413 q 374 467 374 442 q 385 513 374 493 q 417 542 396 532 q 402 604 414 586 q 364 622 390 622 z "},"÷":{"ha":656,"x_min":71,"x_max":582,"o":"m 508 576 q 476 499 508 531 q 397 467 443 467 q 319 499 351 467 q 288 576 288 531 q 319 655 288 622 q 397 688 351 688 q 476 655 443 688 q 508 576 508 622 m 71 286 l 96 396 l 582 396 l 558 286 l 71 286 m 425 111 q 392 33 425 65 q 314 1 360 1 q 236 33 268 1 q 204 111 204 65 q 236 190 204 157 q 314 222 268 222 q 392 190 360 222 q 425 111 425 157 z "},"ø":{"ha":594,"x_min":-19,"x_max":785,"o":"m 532 425 q 449 144 521 257 q 267 3 378 31 l 236 -143 l 164 -143 l 193 -6 q 35 53 89 -3 q -19 214 -19 108 q 4 379 -19 292 q 71 535 28 467 q 189 659 119 615 q 344 706 258 703 l 372 840 l 444 840 l 415 699 q 502 633 472 683 q 535 496 532 582 q 636 522 578 497 q 740 579 694 546 l 785 579 q 681 489 753 533 q 532 425 610 444 m 368 622 q 245 488 303 622 q 188 232 188 354 q 202 143 188 167 q 258 119 217 119 q 356 204 310 119 q 417 413 401 289 q 388 434 397 418 q 378 476 378 450 q 389 523 378 504 q 421 550 400 542 q 406 606 418 589 q 368 622 393 622 z "},"ù":{"ha":701,"x_min":-11,"x_max":760,"o":"m 403 1042 l 443 779 l 339 779 l 257 1042 l 403 1042 m 232 126 q 297 158 268 126 q 343 249 325 189 l 438 694 l 638 694 l 538 222 q 533 199 535 210 q 532 178 532 189 q 545 138 532 150 q 589 126 558 126 q 654 158 625 126 q 701 249 683 190 l 760 249 q 644 56 715 121 q 481 -8 574 -8 q 385 26 421 -8 q 343 124 349 60 q 252 24 303 57 q 138 -8 201 -8 q 28 35 68 -8 q -11 158 -11 79 q -8 199 -11 176 q 0 249 -6 222 l 94 694 l 294 694 l 194 222 q 191 202 192 211 q 190 183 190 193 q 201 141 190 156 q 232 126 211 126 z "},"ú":{"ha":701,"x_min":-11,"x_max":760,"o":"m 604 1042 l 436 779 l 332 779 l 458 1042 l 604 1042 m 232 126 q 297 158 268 126 q 343 249 325 189 l 438 694 l 638 694 l 538 222 q 533 199 535 210 q 532 178 532 189 q 545 138 532 150 q 589 126 558 126 q 654 158 625 126 q 701 249 683 190 l 760 249 q 644 56 715 121 q 481 -8 574 -8 q 385 26 421 -8 q 343 124 349 60 q 252 24 303 57 q 138 -8 201 -8 q 28 35 68 -8 q -11 158 -11 79 q -8 199 -11 176 q 0 249 -6 222 l 94 694 l 294 694 l 194 222 q 191 202 192 211 q 190 183 190 193 q 201 141 190 156 q 232 126 211 126 z "},"û":{"ha":701,"x_min":-11,"x_max":760,"o":"m 469 1042 l 499 1042 l 582 779 l 538 779 l 454 890 l 236 779 l 175 779 l 469 1042 m 232 126 q 297 158 268 126 q 343 249 325 189 l 438 694 l 638 694 l 538 222 q 533 199 535 210 q 532 178 532 189 q 545 138 532 150 q 589 126 558 126 q 654 158 625 126 q 701 249 683 190 l 760 249 q 644 56 715 121 q 481 -8 574 -8 q 385 26 421 -8 q 343 124 349 60 q 252 24 303 57 q 138 -8 201 -8 q 28 35 68 -8 q -11 158 -11 79 q -8 199 -11 176 q 0 249 -6 222 l 94 694 l 294 694 l 194 222 q 191 202 192 211 q 190 183 190 193 q 201 141 190 156 q 232 126 211 126 z "},"ü":{"ha":701,"x_min":-11,"x_max":760,"o":"m 608 881 q 583 821 608 846 q 524 796 558 796 q 464 821 489 796 q 439 881 439 846 q 464 940 439 915 q 524 965 489 965 q 583 940 558 965 q 608 881 608 915 m 358 881 q 333 821 358 846 q 274 796 308 796 q 214 821 239 796 q 189 881 189 846 q 214 940 189 915 q 274 965 239 965 q 333 940 308 965 q 358 881 358 915 m 232 126 q 297 158 268 126 q 343 249 325 189 l 438 694 l 638 694 l 538 222 q 533 199 535 210 q 532 178 532 189 q 545 138 532 150 q 589 126 558 126 q 654 158 625 126 q 701 249 683 190 l 760 249 q 644 56 715 121 q 481 -8 574 -8 q 385 26 421 -8 q 343 124 349 60 q 252 24 303 57 q 138 -8 201 -8 q 28 35 68 -8 q -11 158 -11 79 q -8 199 -11 176 q 0 249 -6 222 l 94 694 l 294 694 l 194 222 q 191 202 192 211 q 190 183 190 193 q 201 141 190 156 q 232 126 211 126 z "},"ý":{"ha":701,"x_min":-11,"x_max":733,"o":"m 603 1042 l 435 779 l 331 779 l 457 1042 l 603 1042 m 232 126 q 294 156 267 126 q 340 240 322 185 l 438 694 l 638 694 l 500 50 q 609 120 569 75 q 675 249 649 165 l 733 249 q 642 79 701 143 q 488 -11 583 15 l 467 -111 q 379 -287 442 -228 q 217 -347 317 -347 q 103 -311 146 -347 q 61 -212 61 -275 q 117 -92 61 -144 q 288 -6 174 -40 l 304 69 q 228 11 269 31 q 138 -8 188 -8 q 28 35 68 -8 q -11 158 -11 79 q -8 199 -11 176 q 0 249 -6 222 l 94 694 l 294 694 l 194 222 q 192 205 193 214 q 190 188 190 196 q 201 142 190 158 q 232 126 211 126 m 274 -75 q 171 -130 204 -101 q 138 -193 138 -158 q 151 -225 138 -211 q 185 -239 165 -239 q 231 -206 208 -239 q 265 -115 253 -172 l 274 -75 z "},"þ":{"ha":657,"x_min":-128,"x_max":615,"o":"m 176 147 q 196 122 182 131 q 231 113 210 113 q 372 225 318 113 q 425 486 425 338 q 408 572 425 543 q 356 601 392 601 q 303 581 331 601 q 258 529 275 561 l 176 147 m 154 43 l 82 -297 l -128 -347 l 89 674 q 101 744 97 711 q 106 803 106 776 q 92 890 106 850 q 46 972 78 931 l 108 972 q 246 856 208 917 q 283 706 283 794 q 282 671 283 688 q 278 638 281 654 q 356 685 313 669 q 446 701 399 701 q 572 646 529 701 q 615 482 615 590 q 524 131 615 269 q 274 -8 433 -8 q 198 5 228 -8 q 154 43 168 18 z "},"ÿ":{"ha":701,"x_min":-11,"x_max":733,"o":"m 590 881 q 565 821 590 846 q 506 796 540 796 q 446 821 471 796 q 421 881 421 846 q 446 940 421 915 q 506 965 471 965 q 565 940 540 965 q 590 881 590 915 m 340 881 q 315 821 340 846 q 256 796 290 796 q 196 821 221 796 q 171 881 171 846 q 196 940 171 915 q 256 965 221 965 q 315 940 290 965 q 340 881 340 915 m 232 126 q 294 156 267 126 q 340 240 322 185 l 438 694 l 638 694 l 500 50 q 609 120 569 75 q 675 249 649 165 l 733 249 q 642 79 701 143 q 488 -11 583 15 l 467 -111 q 379 -287 442 -228 q 217 -347 317 -347 q 103 -311 146 -347 q 61 -212 61 -275 q 117 -92 61 -144 q 288 -6 174 -40 l 304 69 q 228 11 269 31 q 138 -8 188 -8 q 28 35 68 -8 q -11 158 -11 79 q -8 199 -11 176 q 0 249 -6 222 l 94 694 l 294 694 l 194 222 q 192 205 193 214 q 190 188 190 196 q 201 142 190 158 q 232 126 211 126 m 274 -75 q 171 -130 204 -101 q 138 -193 138 -158 q 151 -225 138 -211 q 185 -239 165 -239 q 231 -206 208 -239 q 265 -115 253 -172 l 274 -75 z "},"Ą":{"ha":928,"x_min":13,"x_max":961,"o":"m 743 943 q 622 828 686 913 q 493 614 558 744 q 585 592 543 604 q 663 565 628 579 l 743 943 m 690 0 q 698 3 693 1 q 706 7 703 6 l 608 7 l 599 0 l 543 0 l 650 504 q 558 538 601 526 q 464 554 515 550 q 334 204 385 382 q 283 -81 283 26 q 288 -124 283 -106 q 303 -158 293 -143 q 157 -122 197 -158 q 117 -11 117 -86 q 173 238 117 82 q 321 554 229 393 q 210 532 250 550 q 158 482 171 514 q 170 467 164 482 q 176 439 176 453 q 154 400 176 415 q 99 385 132 385 q 36 406 60 385 q 13 465 13 428 q 94 587 13 538 q 296 636 175 636 q 328 635 310 636 q 368 632 346 635 q 617 933 490 825 q 851 1042 743 1042 q 910 1037 881 1042 q 961 1022 939 1032 l 743 0 l 690 0 m 696 -240 q 654 -261 675 -254 q 611 -268 633 -268 q 531 -237 561 -268 q 501 -160 501 -206 q 527 -79 501 -121 q 599 0 553 -37 l 690 0 q 638 -51 660 -18 q 617 -117 617 -83 q 631 -166 617 -146 q 671 -186 646 -186 q 694 -182 682 -186 q 721 -169 706 -178 q 744 -153 729 -164 q 765 -139 760 -142 q 764 -154 765 -139 q 763 -182 763 -169 q 718 -222 735 -207 q 696 -240 701 -236 z "},"ą":{"ha":731,"x_min":-18,"x_max":789,"o":"m 451 631 l 451 621 l 467 694 l 667 694 l 567 222 q 563 199 564 210 q 561 178 561 189 q 575 133 561 147 q 618 118 589 118 q 683 152 654 118 q 731 249 713 186 l 789 249 q 708 96 756 156 q 594 7 661 36 q 542 -43 567 -6 q 517 -117 517 -81 q 531 -166 517 -146 q 571 -186 546 -186 q 594 -182 582 -186 q 621 -169 606 -178 q 644 -153 629 -164 q 665 -139 660 -142 q 664 -154 665 -139 q 663 -182 663 -169 q 618 -222 635 -207 q 596 -240 601 -236 q 554 -261 575 -254 q 511 -268 533 -268 q 431 -237 461 -268 q 401 -160 401 -206 q 424 -84 401 -124 q 490 -7 447 -44 q 409 31 439 -1 q 374 119 379 64 q 278 24 331 56 q 167 -8 226 -8 q 31 50 81 -8 q -18 215 -18 108 q 6 378 -18 293 q 71 532 29 463 q 190 658 122 614 q 339 701 258 701 q 422 683 393 701 q 451 631 451 664 m 439 563 q 424 599 439 583 q 382 615 408 615 q 247 488 306 615 q 188 235 188 360 q 203 153 188 181 q 257 126 218 126 q 327 161 293 126 q 372 249 361 196 l 439 563 z "},"Ć":{"ha":690,"x_min":26,"x_max":743,"o":"m 740 1389 l 572 1126 l 468 1126 l 594 1389 l 740 1389 m 257 328 q 297 162 257 213 q 424 111 338 111 q 574 148 503 111 q 694 250 646 185 l 726 236 q 567 48 681 118 q 331 -22 454 -22 q 98 59 169 -22 q 26 319 26 140 q 56 560 26 435 q 136 783 85 685 q 298 976 203 910 q 511 1042 393 1042 q 683 994 622 1042 q 743 856 743 946 q 718 760 743 793 q 646 728 693 728 q 602 737 622 728 q 567 764 582 746 q 611 815 592 776 q 631 892 631 853 q 608 954 631 932 q 546 976 586 976 q 425 902 485 976 q 321 697 365 828 q 274 512 290 608 q 257 328 257 415 z "},"ć":{"ha":533,"x_min":-18,"x_max":611,"o":"m 611 1042 l 443 779 l 339 779 l 465 1042 l 611 1042 m 510 579 q 490 505 510 532 q 436 478 469 478 q 413 482 425 478 q 388 494 400 486 q 400 538 396 517 q 404 576 404 558 q 394 619 404 604 q 365 633 385 633 q 246 492 304 633 q 188 225 188 351 q 209 135 188 161 q 288 108 231 108 q 408 138 353 108 q 533 249 463 168 l 581 249 q 406 55 500 118 q 199 -8 311 -8 q 37 47 92 -8 q -18 213 -18 103 q 6 381 -18 292 q 74 539 31 469 q 197 665 125 622 q 356 707 268 707 q 471 674 432 707 q 510 579 510 642 z "},"Č":{"ha":690,"x_min":26,"x_max":813,"o":"m 518 1126 l 489 1126 l 406 1389 l 450 1389 l 533 1278 l 751 1389 l 813 1389 l 518 1126 m 257 328 q 297 162 257 213 q 424 111 338 111 q 574 148 503 111 q 694 250 646 185 l 726 236 q 567 48 681 118 q 331 -22 454 -22 q 98 59 169 -22 q 26 319 26 140 q 56 560 26 435 q 136 783 85 685 q 298 976 203 910 q 511 1042 393 1042 q 683 994 622 1042 q 743 856 743 946 q 718 760 743 793 q 646 728 693 728 q 602 737 622 728 q 567 764 582 746 q 611 815 592 776 q 631 892 631 853 q 608 954 631 932 q 546 976 586 976 q 425 902 485 976 q 321 697 365 828 q 274 512 290 608 q 257 328 257 415 z "},"č":{"ha":533,"x_min":-18,"x_max":693,"o":"m 399 779 l 369 779 l 286 1042 l 331 1042 l 414 931 l 632 1042 l 693 1042 l 399 779 m 510 579 q 490 505 510 532 q 436 478 469 478 q 413 482 425 478 q 388 494 400 486 q 400 538 396 517 q 404 576 404 558 q 394 619 404 604 q 365 633 385 633 q 246 492 304 633 q 188 225 188 351 q 209 135 188 161 q 288 108 231 108 q 408 138 353 108 q 533 249 463 168 l 581 249 q 406 55 500 118 q 199 -8 311 -8 q 37 47 92 -8 q -18 213 -18 103 q 6 381 -18 292 q 74 539 31 469 q 197 665 125 622 q 356 707 268 707 q 471 674 432 707 q 510 579 510 642 z "},"Ę":{"ha":638,"x_min":15,"x_max":693,"o":"m 258 301 q 306 171 258 225 q 421 117 354 117 q 547 148 496 117 q 640 250 599 179 l 672 236 q 626 146 656 186 q 529 54 597 106 q 442 -33 461 3 q 422 -117 422 -68 q 437 -166 422 -146 q 476 -186 451 -186 q 499 -182 488 -186 q 526 -169 511 -178 q 550 -153 535 -164 q 571 -139 565 -142 q 569 -154 571 -139 q 568 -182 568 -169 q 524 -222 540 -207 q 501 -240 507 -236 q 460 -261 481 -254 q 417 -268 439 -268 q 337 -237 367 -268 q 307 -160 307 -206 q 333 -78 307 -121 q 407 1 360 -36 q 357 -6 383 -3 q 303 -8 331 -8 q 94 71 172 -8 q 15 272 15 150 q 84 470 15 385 q 267 579 153 556 q 165 671 201 615 q 129 790 129 726 q 216 969 129 896 q 438 1042 303 1042 q 624 992 554 1042 q 693 856 693 943 q 668 760 693 793 q 596 728 643 728 q 552 737 572 728 q 517 764 532 746 q 559 808 540 771 q 578 878 578 846 q 554 953 578 926 q 486 981 531 981 q 365 931 413 981 q 317 810 317 882 q 365 680 317 740 q 500 581 413 619 q 321 460 383 533 q 258 301 258 386 z "},"ę":{"ha":533,"x_min":-18,"x_max":581,"o":"m 581 249 q 501 138 544 186 q 379 36 457 90 q 297 -41 314 -10 q 279 -117 279 -72 q 294 -166 279 -146 q 333 -186 308 -186 q 356 -182 344 -186 q 383 -169 368 -178 q 407 -153 392 -164 q 428 -139 422 -142 q 426 -154 428 -139 q 425 -182 425 -169 q 381 -222 397 -207 q 358 -240 364 -236 q 317 -261 338 -254 q 274 -268 296 -268 q 194 -237 224 -268 q 164 -160 164 -206 q 188 -82 164 -122 q 257 -4 213 -42 q 228 -8 243 -7 q 199 -8 214 -8 q 37 47 92 -8 q -18 213 -18 103 q 7 381 -18 292 q 74 539 32 469 q 197 665 125 622 q 357 707 268 707 q 472 674 433 707 q 510 574 510 642 q 415 373 510 458 q 190 281 321 288 q 188 245 189 257 q 188 225 188 233 q 209 135 188 161 q 288 108 231 108 q 408 138 353 108 q 533 249 463 168 l 581 249 m 368 633 q 273 549 321 633 q 201 347 225 465 q 342 422 282 353 q 403 576 403 490 q 394 619 403 606 q 368 633 386 633 z "},"ı":{"ha":371,"x_min":-11,"x_max":429,"o":"m -11 158 q -8 199 -11 176 q 0 249 -6 222 l 94 694 l 294 694 l 194 222 q 190 199 192 210 q 189 178 189 189 q 202 138 189 150 q 246 126 215 126 q 319 160 285 126 q 371 249 354 194 l 429 249 q 310 57 385 122 q 138 -8 235 -8 q 28 35 68 -8 q -11 158 -11 79 z "},"Ł":{"ha":544,"x_min":8,"x_max":921,"o":"m 518 -51 q 689 -132 629 -112 q 804 -151 749 -151 q 865 -146 836 -151 q 921 -129 893 -140 q 871 -288 910 -229 q 776 -347 832 -347 q 670 -320 726 -347 q 500 -203 614 -293 q 297 -65 369 -97 q 157 -32 225 -32 q 138 -32 144 -32 q 125 -33 131 -32 l 222 410 l 132 356 l 135 429 l 240 497 l 332 929 q 188 813 238 890 q 138 626 138 735 q 141 581 138 600 q 153 543 144 561 q 156 535 156 538 q 157 532 157 533 q 44 565 79 532 q 8 667 8 597 q 55 806 8 736 q 185 931 101 875 q 337 1002 256 976 q 496 1028 418 1028 q 517 1027 506 1028 q 551 1025 529 1026 l 475 660 l 636 756 l 631 671 l 454 563 l 338 28 q 406 5 369 21 q 518 -51 443 -11 z "},"ł":{"ha":397,"x_min":-47,"x_max":449,"o":"m 138 -8 q 28 35 68 -8 q -11 160 -11 79 q -8 199 -11 178 q 0 249 -6 221 l 32 397 l -47 346 l -47 426 l 51 486 l 149 944 l 354 972 l 285 643 l 449 742 l 443 657 q 365 611 407 636 q 264 549 322 586 l 194 222 q 190 199 192 210 q 189 178 189 189 q 202 138 189 150 q 246 126 215 126 q 319 160 285 126 q 371 249 354 194 l 429 249 q 310 57 385 122 q 138 -8 235 -8 z "},"Ń":{"ha":975,"x_min":8,"x_max":992,"o":"m 961 1389 l 793 1126 l 689 1126 l 815 1389 l 961 1389 m 531 1022 l 640 286 l 792 1039 l 992 1039 l 771 0 l 603 0 l 485 726 l 331 0 l 131 0 l 331 943 q 188 826 238 904 q 138 640 138 749 q 141 594 138 614 q 153 557 144 575 q 156 549 156 551 q 157 546 157 547 q 44 578 79 546 q 8 681 8 611 q 42 816 8 747 q 133 938 75 885 q 258 1015 189 989 q 401 1042 326 1042 q 483 1037 456 1042 q 531 1022 510 1032 z "},"ń":{"ha":701,"x_min":-53,"x_max":760,"o":"m 639 1042 l 471 779 l 367 779 l 493 1042 l 639 1042 m 338 149 q 344 211 338 174 q 369 331 350 249 q 394 444 389 410 q 400 503 400 479 q 388 556 400 538 q 350 574 375 574 q 288 540 317 574 q 242 446 260 506 l 147 0 l -53 0 l 94 694 l 294 694 l 279 622 q 354 681 314 661 q 442 700 394 700 q 556 660 515 700 q 596 543 596 619 q 588 467 596 511 q 558 333 581 424 q 535 233 540 263 q 529 185 529 204 q 543 141 529 156 q 585 126 557 126 q 644 150 619 126 q 701 249 669 174 l 760 249 q 652 56 715 119 q 501 -8 589 -8 q 381 34 424 -8 q 338 149 338 76 z "},"Œ":{"ha":1175,"x_min":22,"x_max":1269,"o":"m 849 925 q 895 820 879 881 q 911 686 911 760 q 910 638 911 664 q 904 582 908 613 l 1089 582 l 1061 479 l 885 479 q 821 295 861 381 q 726 147 781 210 l 1064 147 l 1035 0 l 497 0 q 443 -6 467 -4 q 399 -8 419 -8 q 213 63 276 -8 q 150 271 150 133 q 174 467 150 360 q 238 665 197 575 q 367 856 293 790 q 526 922 440 922 q 564 919 546 922 q 599 911 582 917 q 433 647 510 857 q 356 265 356 438 q 376 146 356 188 q 436 104 397 104 q 553 178 493 104 q 658 375 613 251 q 709 556 692 463 q 726 735 726 650 q 686 926 726 874 q 549 978 646 978 q 263 877 378 978 q 149 621 149 776 q 151 587 149 601 q 160 557 153 572 q 162 549 161 551 q 163 546 163 547 q 57 574 92 546 q 22 663 22 603 q 77 816 22 740 q 229 949 132 892 q 398 1017 307 993 q 582 1042 489 1042 q 664 1035 625 1042 q 735 1015 703 1028 q 817 1035 775 1029 q 914 1042 860 1042 q 944 1040 926 1042 q 1004 1035 963 1039 q 1090 1027 1060 1029 q 1144 1025 1119 1025 q 1213 1029 1182 1025 q 1269 1042 1243 1033 q 1257 999 1268 1039 q 1231 935 1246 958 q 1192 897 1215 911 q 1138 875 1169 882 q 1067 881 1104 875 q 963 903 1031 886 q 892 918 915 914 q 849 925 869 922 z "},"œ":{"ha":921,"x_min":-10,"x_max":1003,"o":"m 779 633 q 683 552 729 633 q 608 346 636 471 q 762 411 697 347 q 828 556 826 475 q 815 613 828 592 q 779 633 803 633 m 215 460 q 186 342 197 406 q 175 232 175 279 q 197 152 175 178 q 268 126 219 126 q 362 199 322 126 q 417 394 401 271 q 374 412 389 394 q 358 457 358 429 q 376 517 358 489 q 419 554 393 544 q 402 609 417 592 q 361 626 388 626 q 280 584 317 626 q 215 460 243 542 m 203 -8 q 40 45 89 -8 q -10 219 -10 99 q 90 578 -10 449 q 356 708 190 708 q 456 678 417 708 q 511 590 496 649 q 610 678 554 649 q 733 707 665 707 q 866 670 821 707 q 911 563 911 633 q 817 375 911 454 q 597 279 724 296 q 594 247 596 263 q 593 219 593 232 q 624 131 593 163 q 707 100 654 100 q 834 156 763 100 q 940 283 906 211 l 1003 283 q 826 74 928 149 q 611 0 725 0 q 496 32 544 0 q 424 121 447 64 q 322 26 379 60 q 203 -8 264 -8 z "},"Ś":{"ha":792,"x_min":38,"x_max":769,"o":"m 769 1389 l 601 1126 l 497 1126 l 624 1389 l 769 1389 m 211 793 q 303 971 211 900 q 532 1042 396 1042 q 697 999 638 1042 q 756 875 756 956 q 724 774 756 813 q 642 735 693 735 q 606 742 622 735 q 578 764 590 749 q 623 814 606 781 q 640 883 640 847 q 614 952 640 928 q 538 976 588 976 q 444 943 478 976 q 410 850 410 910 q 435 758 410 801 q 543 640 460 714 q 688 474 653 544 q 722 318 722 404 q 613 65 722 160 q 332 -29 503 -29 q 117 33 196 -29 q 38 210 38 96 q 97 374 38 310 q 242 438 157 438 q 328 413 294 438 q 364 346 361 389 q 247 311 292 346 q 201 215 201 276 q 238 119 201 157 q 335 82 274 82 q 451 132 407 82 q 496 267 496 182 q 467 392 496 332 q 346 551 438 451 q 237 691 263 640 q 211 793 211 742 z "},"ś":{"ha":531,"x_min":-44,"x_max":589,"o":"m 568 1042 l 400 779 l 296 779 l 422 1042 l 568 1042 m 436 232 q 435 203 436 215 q 431 179 433 190 q 485 214 458 196 q 531 249 511 232 l 589 249 q 494 156 546 199 q 376 75 442 114 q 281 13 339 35 q 158 -8 222 -8 q 10 42 65 -8 q -44 169 -44 93 q -24 248 -44 213 q 29 299 -3 283 q 117 480 76 383 q 200 710 158 576 l 406 738 q 415 547 410 633 q 429 360 421 461 q 435 278 433 301 q 436 232 436 254 m 208 560 q 165 441 190 503 q 96 297 139 379 q 119 278 111 290 q 128 249 128 265 q 110 201 128 222 q 67 181 92 181 q 43 185 53 181 q 29 199 33 190 q 49 124 29 147 q 114 101 69 101 q 203 135 171 101 q 235 231 235 168 q 233 270 235 250 q 228 338 232 290 q 217 453 221 403 q 208 560 213 503 z "},"Š":{"ha":792,"x_min":38,"x_max":821,"o":"m 526 1126 l 497 1126 l 414 1389 l 458 1389 l 542 1278 l 760 1389 l 821 1389 l 526 1126 m 211 793 q 303 971 211 900 q 532 1042 396 1042 q 697 999 638 1042 q 756 875 756 956 q 724 774 756 813 q 642 735 693 735 q 606 742 622 735 q 578 764 590 749 q 623 814 606 781 q 640 883 640 847 q 614 952 640 928 q 538 976 588 976 q 444 943 478 976 q 410 850 410 910 q 435 758 410 801 q 543 640 460 714 q 688 474 653 544 q 722 318 722 404 q 613 65 722 160 q 332 -29 503 -29 q 117 33 196 -29 q 38 210 38 96 q 97 374 38 310 q 242 438 157 438 q 328 413 294 438 q 364 346 361 389 q 247 311 292 346 q 201 215 201 276 q 238 119 201 157 q 335 82 274 82 q 451 132 407 82 q 496 267 496 182 q 467 392 496 332 q 346 551 438 451 q 237 691 263 640 q 211 793 211 742 z "},"š":{"ha":513,"x_min":-44,"x_max":599,"o":"m 304 779 l 275 779 l 192 1042 l 236 1042 l 319 931 l 538 1042 l 599 1042 l 304 779 m 436 232 q 435 203 436 215 q 431 179 433 190 q 485 214 458 196 q 531 249 511 232 l 589 249 q 494 156 546 199 q 376 75 442 114 q 281 13 339 35 q 158 -8 222 -8 q 10 42 65 -8 q -44 169 -44 93 q -24 248 -44 213 q 29 299 -3 283 q 117 480 76 383 q 200 710 158 576 l 406 738 q 415 547 410 633 q 429 360 421 461 q 435 278 433 301 q 436 232 436 254 m 208 560 q 165 441 190 503 q 96 297 139 379 q 119 278 111 290 q 128 249 128 265 q 110 201 128 222 q 67 181 92 181 q 43 185 53 181 q 29 199 33 190 q 49 124 29 147 q 114 101 69 101 q 203 135 171 101 q 235 231 235 168 q 233 270 235 250 q 228 338 232 290 q 217 453 221 403 q 208 560 213 503 z "},"Ÿ":{"ha":861,"x_min":8,"x_max":969,"o":"m 946 1228 q 921 1168 946 1193 q 861 1143 896 1143 q 801 1168 826 1143 q 776 1228 776 1193 q 801 1288 776 1263 q 861 1313 826 1313 q 921 1288 896 1313 q 946 1228 946 1263 m 696 1228 q 671 1168 696 1193 q 611 1143 646 1143 q 551 1168 576 1143 q 526 1228 526 1193 q 551 1288 526 1263 q 611 1313 576 1313 q 671 1288 646 1313 q 696 1228 696 1263 m 969 1035 l 700 428 l 608 0 l 386 0 l 478 428 l 344 949 q 191 833 244 913 q 138 640 138 753 q 141 594 138 614 q 153 557 144 575 q 156 549 156 551 q 157 546 157 547 q 44 578 79 546 q 8 681 8 611 q 55 819 8 750 q 185 944 101 889 q 337 1016 256 990 q 496 1042 418 1042 q 517 1041 506 1042 q 551 1039 529 1040 l 672 542 l 878 1035 l 969 1035 z "},"Ź":{"ha":753,"x_min":15,"x_max":776,"o":"m 776 1389 l 608 1126 l 504 1126 l 631 1389 l 776 1389 m 346 89 q 393 88 378 88 q 421 88 408 88 q 519 95 485 88 q 565 118 554 103 q 547 130 554 118 q 540 161 540 142 q 564 220 540 199 q 624 242 588 242 q 676 219 657 242 q 694 161 694 197 q 643 49 694 99 q 517 0 592 0 l 15 0 l 501 967 q 485 967 494 967 q 453 968 475 967 q 406 969 422 969 q 376 969 390 969 q 280 962 311 969 q 249 939 249 954 q 265 927 258 939 q 272 894 272 915 q 249 836 272 857 q 190 815 226 815 q 138 838 157 815 q 119 897 119 860 q 167 999 119 957 q 290 1042 215 1042 l 767 1042 l 288 90 q 308 90 296 90 q 346 89 321 90 z "},"ź":{"ha":594,"x_min":0,"x_max":596,"o":"m 596 1042 l 428 779 l 324 779 l 450 1042 l 596 1042 m 285 104 q 331 100 315 101 q 360 99 347 99 q 406 106 390 99 q 425 126 422 113 q 406 135 413 128 q 399 156 399 143 q 421 197 399 179 q 476 215 443 215 q 522 197 506 215 q 538 149 538 179 q 488 46 538 92 q 368 0 439 0 l 0 0 l 354 619 l 276 619 q 217 614 233 619 q 200 597 200 608 q 208 592 200 597 q 215 567 215 586 q 194 513 215 533 q 140 493 172 493 q 94 510 113 493 q 76 554 76 526 q 124 650 76 606 q 238 694 172 694 l 594 694 l 254 107 q 265 106 258 107 q 285 104 271 106 z "},"Ż":{"ha":736,"x_min":15,"x_max":767,"o":"m 415 1228 q 440 1288 415 1263 q 500 1313 465 1313 q 560 1288 535 1313 q 585 1228 585 1263 q 560 1168 585 1193 q 500 1143 535 1143 q 440 1168 465 1143 q 415 1228 415 1193 m 346 89 q 393 88 378 88 q 421 88 408 88 q 519 95 485 88 q 565 118 554 103 q 547 130 554 118 q 540 161 540 142 q 564 220 540 199 q 624 242 588 242 q 676 219 657 242 q 694 161 694 197 q 643 49 694 99 q 517 0 592 0 l 15 0 l 501 967 q 485 967 494 967 q 453 968 475 967 q 406 969 422 969 q 376 969 390 969 q 280 962 311 969 q 249 939 249 954 q 265 927 258 939 q 272 894 272 915 q 249 836 272 857 q 190 815 226 815 q 138 838 157 815 q 119 897 119 860 q 167 999 119 957 q 290 1042 215 1042 l 767 1042 l 288 90 q 308 90 296 90 q 346 89 321 90 z "},"ż":{"ha":594,"x_min":0,"x_max":594,"o":"m 304 881 q 329 940 304 915 q 389 965 354 965 q 449 940 424 965 q 474 881 474 915 q 449 821 474 846 q 389 796 424 796 q 329 821 354 796 q 304 881 304 846 m 285 104 q 331 100 315 101 q 360 99 347 99 q 406 106 390 99 q 425 126 422 113 q 406 135 413 128 q 399 156 399 143 q 421 197 399 179 q 476 215 443 215 q 522 197 506 215 q 538 149 538 179 q 488 46 538 92 q 368 0 439 0 l 0 0 l 354 619 l 276 619 q 217 614 233 619 q 200 597 200 608 q 208 592 200 597 q 215 567 215 586 q 194 513 215 533 q 140 493 172 493 q 94 510 113 493 q 76 554 76 526 q 124 650 76 606 q 238 694 172 694 l 594 694 l 254 107 q 265 106 258 107 q 285 104 271 106 z "},"Ž":{"ha":753,"x_min":15,"x_max":829,"o":"m 535 1126 l 506 1126 l 422 1389 l 467 1389 l 550 1278 l 768 1389 l 829 1389 l 535 1126 m 346 89 q 393 88 378 88 q 421 88 408 88 q 519 95 485 88 q 565 118 554 103 q 547 130 554 118 q 540 161 540 142 q 564 220 540 199 q 624 242 588 242 q 676 219 657 242 q 694 161 694 197 q 643 49 694 99 q 517 0 592 0 l 15 0 l 501 967 q 485 967 494 967 q 453 968 475 967 q 406 969 422 969 q 376 969 390 969 q 280 962 311 969 q 249 939 249 954 q 265 927 258 939 q 272 894 272 915 q 249 836 272 857 q 190 815 226 815 q 138 838 157 815 q 119 897 119 860 q 167 999 119 957 q 290 1042 215 1042 l 767 1042 l 288 90 q 308 90 296 90 q 346 89 321 90 z "},"ž":{"ha":594,"x_min":0,"x_max":667,"o":"m 372 779 l 343 779 l 260 1042 l 304 1042 l 388 931 l 606 1042 l 667 1042 l 372 779 m 285 104 q 331 100 315 101 q 360 99 347 99 q 406 106 390 99 q 425 126 422 113 q 406 135 413 128 q 399 156 399 143 q 421 197 399 179 q 476 215 443 215 q 522 197 506 215 q 538 149 538 179 q 488 46 538 92 q 368 0 439 0 l 0 0 l 354 619 l 276 619 q 217 614 233 619 q 200 597 200 608 q 208 592 200 597 q 215 567 215 586 q 194 513 215 533 q 140 493 172 493 q 94 510 113 493 q 76 554 76 526 q 124 650 76 606 q 238 694 172 694 l 594 694 l 254 107 q 265 106 258 107 q 285 104 271 106 z "},"ƒ":{"ha":376,"x_min":-281,"x_max":543,"o":"m 406 694 l 394 639 l 290 639 l 132 -111 q 44 -288 107 -229 q -117 -347 -18 -347 q -233 -304 -185 -347 q -281 -197 -281 -261 q -233 -79 -281 -125 q -42 11 -185 -33 l 92 639 l 8 639 l 19 694 l 103 694 l 126 804 q 215 981 151 921 q 379 1040 279 1040 q 495 997 447 1040 q 543 890 543 954 q 542 860 543 874 q 539 833 542 846 l 474 833 q 476 860 476 856 q 476 871 476 865 q 462 906 476 893 q 424 918 447 918 q 363 889 389 918 q 326 804 338 860 l 303 694 l 406 694 m -51 -35 q -168 -96 -132 -61 q -204 -178 -204 -131 q -187 -209 -204 -194 q -149 -224 -169 -224 q -101 -196 -122 -224 q -69 -115 -81 -168 l -51 -35 z "},"ˆ":{"ha":407,"x_min":0,"x_max":407,"o":"m 294 1042 l 324 1042 l 407 779 l 363 779 l 279 890 l 61 779 l 0 779 l 294 1042 z "},"ˇ":{"ha":408,"x_min":139,"x_max":546,"o":"m 251 779 l 222 779 l 139 1042 l 183 1042 l 267 931 l 485 1042 l 546 1042 l 251 779 z "},"˚":{"ha":217,"x_min":0,"x_max":218,"o":"m 97 767 q 27 794 54 767 q 0 864 0 822 q 33 952 0 914 q 118 990 65 990 q 192 962 165 990 q 218 883 218 933 q 186 798 218 829 q 97 767 154 767 m 56 867 q 67 828 56 842 q 103 815 79 815 q 150 832 133 815 q 167 879 167 849 q 156 930 167 915 q 121 944 144 944 q 73 923 90 944 q 56 867 56 901 z "},"˛":{"ha":404,"x_min":63,"x_max":326,"o":"m 172 -268 q 92 -237 122 -268 q 63 -160 63 -206 q 90 -77 63 -121 q 169 7 118 -33 l 267 7 q 205 -42 232 -6 q 178 -117 178 -79 q 192 -166 178 -146 q 232 -186 207 -186 q 255 -182 243 -186 q 282 -169 267 -178 q 306 -153 290 -164 q 326 -139 321 -142 q 325 -154 326 -139 q 324 -182 324 -169 q 279 -222 296 -207 q 257 -240 263 -236 q 215 -261 236 -254 q 172 -268 194 -268 z "},"˜":{"ha":560,"x_min":53,"x_max":610,"o":"m 413 919 q 473 903 453 907 q 514 899 493 899 q 564 907 540 899 q 601 931 588 915 l 610 929 q 529 833 597 876 q 386 790 461 790 q 334 796 361 790 q 258 818 307 801 q 194 837 215 832 q 153 842 172 842 q 103 833 126 842 q 61 806 81 824 l 53 808 q 146 910 86 875 q 285 944 206 944 q 340 940 313 944 q 413 919 367 935 z "},"–":{"ha":489,"x_min":26,"x_max":413,"o":"m 26 308 l 51 418 l 413 418 l 389 308 l 26 308 z "},"—":{"ha":617,"x_min":26,"x_max":538,"o":"m 26 308 l 51 418 l 538 418 l 514 308 l 26 308 z "},"‘":{"ha":424,"x_min":117,"x_max":307,"o":"m 117 947 q 141 1014 117 989 q 206 1039 165 1039 q 277 1010 247 1039 q 307 942 307 982 q 292 894 307 917 q 246 854 276 872 q 233 843 238 849 q 229 831 229 838 l 297 733 q 294 723 297 728 q 285 714 292 718 q 163 827 208 763 q 117 947 117 892 z "},"’":{"ha":424,"x_min":117,"x_max":307,"o":"m 194 831 q 190 843 194 838 q 178 854 186 849 q 132 894 147 872 q 117 942 117 917 q 147 1010 117 982 q 218 1039 176 1039 q 283 1014 258 1039 q 307 947 307 989 q 261 827 307 892 q 139 714 215 763 q 129 723 132 718 q 126 733 126 728 l 194 831 z "},"‚":{"ha":393,"x_min":106,"x_max":296,"o":"m 183 -6 q 179 7 183 1 q 167 18 175 13 q 121 58 136 36 q 106 106 106 81 q 135 174 106 146 q 207 203 165 203 q 272 178 247 203 q 296 111 296 153 q 250 -9 296 56 q 128 -122 204 -74 q 118 -113 121 -118 q 115 -103 115 -108 l 183 -6 z "},"“":{"ha":707,"x_min":106,"x_max":601,"o":"m 106 947 q 130 1014 106 989 q 194 1039 154 1039 q 266 1010 236 1039 q 296 942 296 982 q 281 894 296 917 q 235 854 265 872 q 222 843 226 849 q 218 831 218 838 l 286 733 q 283 723 286 728 q 274 714 281 718 q 151 827 197 763 q 106 947 106 892 m 411 947 q 435 1014 411 989 q 500 1039 460 1039 q 572 1010 542 1039 q 601 942 601 982 q 586 894 601 917 q 540 854 571 872 q 528 843 532 849 q 524 831 524 838 l 592 733 q 589 723 592 728 q 579 714 586 718 q 457 827 503 763 q 411 947 411 892 z "},"”":{"ha":707,"x_min":106,"x_max":601,"o":"m 489 831 q 485 843 489 838 q 472 854 481 849 q 426 894 442 872 q 411 942 411 917 q 441 1010 411 982 q 513 1039 471 1039 q 577 1014 553 1039 q 601 947 601 989 q 556 827 601 892 q 433 714 510 763 q 424 723 426 718 q 421 733 421 728 l 489 831 m 183 831 q 179 843 183 838 q 167 854 175 849 q 121 894 136 872 q 106 942 106 917 q 135 1010 106 982 q 207 1039 165 1039 q 272 1014 247 1039 q 296 947 296 989 q 250 827 296 892 q 128 714 204 763 q 118 723 121 718 q 115 733 115 728 l 183 831 z "},"„":{"ha":707,"x_min":106,"x_max":601,"o":"m 489 -6 q 485 7 489 1 q 472 18 481 13 q 426 58 442 36 q 411 106 411 81 q 441 174 411 146 q 513 203 471 203 q 577 178 553 203 q 601 111 601 153 q 556 -9 601 56 q 433 -122 510 -74 q 424 -113 426 -118 q 421 -103 421 -108 l 489 -6 m 183 -6 q 179 7 183 1 q 167 18 175 13 q 121 58 136 36 q 106 106 106 81 q 135 174 106 146 q 207 203 165 203 q 272 178 247 203 q 296 111 296 153 q 250 -9 296 56 q 128 -122 204 -74 q 118 -113 121 -118 q 115 -103 115 -108 l 183 -6 z "},"†":{"ha":688,"x_min":94,"x_max":639,"o":"m 329 594 l 425 1042 l 525 1042 l 429 594 l 639 594 l 607 439 l 397 439 l 231 -347 l 131 -347 l 297 439 l 94 439 l 128 594 l 329 594 z "},"‡":{"ha":688,"x_min":33,"x_max":639,"o":"m 329 594 l 425 1042 l 525 1042 l 429 594 l 639 594 l 607 439 l 397 439 l 367 296 l 578 296 l 546 140 l 333 140 l 231 -347 l 131 -347 l 233 140 l 33 140 l 67 296 l 267 296 l 297 439 l 94 439 l 128 594 l 329 594 z "},"•":{"ha":603,"x_min":167,"x_max":435,"o":"m 435 371 q 395 276 435 315 q 300 238 356 238 q 206 276 244 238 q 167 371 167 315 q 206 466 167 426 q 300 506 244 506 q 395 466 356 506 q 435 371 435 426 z "},"…":{"ha":975,"x_min":43,"x_max":931,"o":"m 931 104 q 898 26 931 58 q 819 -6 865 -6 q 742 26 774 -6 q 710 104 710 58 q 742 183 710 150 q 819 215 774 215 q 898 183 865 215 q 931 104 931 150 m 590 104 q 558 26 590 58 q 479 -6 525 -6 q 401 26 433 -6 q 369 104 369 58 q 401 183 369 150 q 479 215 433 215 q 558 183 525 215 q 590 104 590 150 m 264 104 q 231 26 264 58 q 153 -6 199 -6 q 75 26 107 -6 q 43 104 43 58 q 75 183 43 150 q 153 215 107 215 q 231 183 199 215 q 264 104 264 150 z "},"‰":{"ha":1265,"x_min":125,"x_max":1222,"o":"m 144 0 l 681 1042 l 781 1042 l 244 0 l 144 0 m 258 519 q 156 555 188 519 q 125 678 125 590 q 188 891 125 807 q 350 975 250 975 q 436 936 408 975 q 464 818 464 897 q 404 613 464 707 q 258 519 344 519 m 381 839 q 372 906 381 886 q 346 926 364 926 q 272 867 308 926 q 228 721 235 807 q 226 690 226 704 q 225 661 225 675 q 235 594 225 617 q 263 571 244 571 q 347 648 314 571 q 381 839 381 725 m 1003 0 q 901 35 932 0 q 869 158 869 71 q 932 372 869 288 q 1094 456 994 456 q 1189 415 1156 456 q 1222 299 1222 374 q 1163 88 1222 176 q 1003 0 1103 0 m 603 0 q 501 35 532 0 q 469 158 469 71 q 532 372 469 288 q 694 456 594 456 q 789 415 756 456 q 822 299 822 374 q 763 88 822 176 q 603 0 703 0 m 1114 310 q 1104 379 1114 354 q 1075 404 1094 404 q 1006 347 1039 404 q 965 201 972 289 q 963 170 964 185 q 963 142 963 156 q 972 74 963 97 q 1000 51 982 51 q 1083 124 1051 51 q 1114 310 1114 196 m 714 310 q 704 379 714 354 q 675 404 694 404 q 606 347 639 404 q 565 201 572 289 q 563 170 564 185 q 563 142 563 156 q 572 74 563 97 q 600 51 582 51 q 683 124 651 51 q 714 310 714 196 z "},"‹":{"ha":499,"x_min":28,"x_max":467,"o":"m 28 331 l 40 388 l 467 624 l 453 547 l 118 353 l 388 192 l 371 113 l 28 331 z "},"›":{"ha":478,"x_min":21,"x_max":458,"o":"m 40 192 l 374 353 l 104 547 l 117 624 l 458 388 l 443 313 l 21 113 l 40 192 z "},"€":{"ha":796,"x_min":-4,"x_max":824,"o":"m 349 554 q 342 509 344 532 q 336 464 339 486 l 608 464 l 589 394 l 332 394 l 332 376 q 372 171 332 225 q 515 117 413 117 q 643 128 597 117 q 729 172 689 140 l 732 132 q 603 25 676 58 q 418 -8 529 -8 q 193 82 272 -8 q 114 346 114 172 l 114 394 l -4 394 l 15 464 l 118 464 q 122 498 119 479 q 129 554 124 517 l 31 554 l 50 624 l 143 624 q 302 935 190 828 q 582 1042 414 1042 q 760 993 696 1042 q 824 856 824 944 q 799 760 824 793 q 726 728 774 728 q 683 737 703 728 q 647 764 663 746 q 690 808 671 771 q 708 878 708 846 q 683 949 708 922 q 613 976 658 976 q 467 881 533 976 q 363 624 400 785 l 643 624 l 624 554 l 349 554 z "},"™":{"ha":526,"x_min":-32,"x_max":515,"o":"m 231 860 q 214 861 224 860 q 183 867 204 863 q 162 870 169 869 q 149 872 154 871 l 90 601 l 31 601 l 90 878 q 27 856 47 876 q 7 793 7 835 q 8 781 7 788 q 13 765 10 774 q -22 775 -11 765 q -32 806 -32 785 q 6 885 -32 856 q 110 914 43 914 q 119 913 114 914 q 142 911 125 913 q 185 908 169 908 q 214 907 201 907 q 245 908 233 907 q 265 914 257 910 q 252 874 261 888 q 231 860 243 860 m 450 908 l 515 908 l 463 601 l 403 601 l 440 818 l 353 601 l 296 601 l 296 783 l 240 601 l 207 601 l 301 893 l 358 901 l 358 667 l 450 908 z "},"ﬁ":{"ha":742,"x_min":-287,"x_max":800,"o":"m 432 1040 q 617 1000 554 1040 q 681 881 681 960 q 651 797 681 826 q 571 768 622 768 q 509 788 531 768 q 488 843 488 807 q 501 890 488 869 q 535 911 515 911 q 543 910 540 911 q 546 910 546 910 q 524 951 544 936 q 469 965 504 965 q 376 925 413 965 q 322 808 339 885 l 299 694 l 410 694 l 399 639 l 288 639 l 129 -111 q 42 -287 106 -226 q -115 -347 -22 -347 q -240 -305 -193 -347 q -287 -192 -287 -262 q -237 -78 -287 -124 q -47 11 -187 -32 l 107 742 q 219 966 139 892 q 432 1040 300 1040 m 360 158 q 363 199 360 176 q 371 249 365 222 l 465 694 l 665 694 l 565 222 q 561 199 563 210 q 560 178 560 189 q 573 138 560 150 q 617 126 586 126 q 690 160 656 126 q 742 249 725 194 l 800 249 q 681 57 756 122 q 508 -8 606 -8 q 399 35 439 -8 q 360 158 360 79 m -57 -35 q -170 -93 -129 -58 q -211 -168 -211 -128 q -194 -209 -211 -194 q -154 -224 -178 -224 q -106 -195 -128 -224 q -74 -115 -85 -167 l -57 -35 z "},"ﬂ":{"ha":761,"x_min":-290,"x_max":819,"o":"m 117 804 q 206 981 142 921 q 369 1040 269 1040 q 515 1022 438 1040 q 738 944 592 1003 l 585 222 q 581 199 582 210 q 579 178 579 189 q 592 138 579 150 q 636 126 606 126 q 710 160 675 126 q 761 249 744 194 l 819 249 q 700 57 775 122 q 528 -8 625 -8 q 419 35 458 -8 q 379 158 379 79 q 382 199 379 176 q 390 249 385 222 l 535 931 q 477 947 513 940 q 421 953 442 953 q 362 925 386 953 q 326 843 338 897 l 296 694 l 425 694 l 414 639 l 285 639 l 126 -111 q 38 -287 101 -228 q -126 -347 -26 -347 q -242 -304 -194 -347 q -290 -197 -290 -261 q -242 -79 -290 -125 q -50 11 -194 -33 l 117 804 m -60 -35 q -178 -97 -142 -62 q -214 -178 -214 -131 q -197 -209 -214 -194 q -158 -224 -179 -224 q -109 -195 -131 -224 q -76 -115 -87 -167 l -60 -35 z "},"ঁ":{"ha":0,"x_min":-378,"x_max":21,"o":"m -183 1404 q -131 1383 -151 1404 q -110 1331 -110 1361 q -130 1281 -110 1300 q -183 1261 -150 1261 q -233 1281 -214 1261 q -253 1331 -253 1300 q -233 1383 -253 1361 q -183 1404 -212 1404 m -378 1307 q -365 1372 -378 1349 q -329 1394 -353 1394 q -312 1392 -321 1394 q -299 1386 -304 1390 q -316 1357 -310 1375 q -322 1317 -322 1339 q -287 1238 -322 1269 q -197 1207 -251 1207 q -90 1250 -128 1207 q -24 1396 -51 1293 l 21 1385 q -70 1147 -22 1211 q -196 1083 -118 1083 q -328 1146 -278 1083 q -378 1307 -378 1208 z "},"ং":{"ha":644,"x_min":-6,"x_max":540,"o":"m 83 738 q 143 888 83 831 q 296 946 203 946 q 468 874 396 946 q 540 699 540 801 q 481 547 540 606 q 328 489 421 489 q 156 561 228 489 q 83 738 83 633 m 178 710 q 211 656 178 676 q 301 636 244 636 q 405 662 364 636 q 446 726 446 688 q 413 780 446 760 q 322 800 379 800 q 219 774 260 800 q 178 710 178 749 m 493 0 q 291 194 413 121 q -6 297 169 267 l 58 482 q 335 303 211 426 q 539 0 458 179 l 493 0 z "},"ঃ":{"ha":638,"x_min":0,"x_max":540,"o":"m 83 738 q 143 888 83 831 q 296 946 203 946 q 468 874 396 946 q 540 699 540 801 q 481 547 540 606 q 328 489 421 489 q 156 561 228 489 q 83 738 83 633 m 178 710 q 211 656 178 676 q 301 636 244 636 q 405 662 364 636 q 446 726 446 688 q 413 780 446 760 q 322 800 379 800 q 219 774 260 800 q 178 710 178 749 m 0 233 q 60 384 0 326 q 213 442 119 442 q 385 369 313 442 q 457 194 457 297 q 397 43 457 101 q 244 -15 338 -15 q 72 57 144 -15 q 0 233 0 129 m 94 206 q 128 152 94 172 q 218 132 161 132 q 322 158 281 132 q 363 222 363 183 q 329 276 363 256 q 239 296 296 296 q 135 270 176 296 q 94 206 94 244 z "},"অ":{"ha":1043,"x_min":-32,"x_max":1046,"o":"m 621 0 l 624 11 q 626 28 625 19 q 626 43 626 36 q 610 134 626 90 q 563 218 594 178 q 472 145 526 172 q 354 118 418 118 q 207 162 278 118 q 81 286 136 206 q 6 438 33 356 q -21 599 -21 521 q -2 680 -21 651 q 53 708 17 708 q 83 701 68 708 q 110 681 99 693 q 80 626 89 654 q 71 560 71 597 q 144 358 71 442 q 324 275 218 275 q 464 332 408 275 q 519 471 519 389 q 513 514 519 494 q 493 549 506 533 q 444 458 488 494 q 343 421 401 421 q 223 467 269 421 q 176 585 176 514 q 219 692 176 649 q 328 736 263 736 q 533 635 444 736 q 621 399 621 533 q 620 378 621 389 q 618 358 619 368 q 647 276 636 315 q 661 192 657 236 l 771 707 q 698 773 739 758 q 581 788 657 788 l -10 788 l -32 932 l 488 932 q 669 892 593 932 q 786 774 744 853 q 858 892 808 851 q 982 932 907 932 l 1024 932 l 1046 788 l 1010 788 q 955 763 976 788 q 922 686 933 738 l 781 0 l 621 0 z "},"আ":{"ha":1406,"x_min":-32,"x_max":1408,"o":"m 781 0 l 621 0 l 624 11 q 626 28 625 19 q 626 43 626 36 q 610 134 626 90 q 563 218 594 178 q 472 145 526 172 q 354 118 418 118 q 206 162 278 118 q 79 285 135 206 q 6 437 32 354 q -21 599 -21 519 q -2 680 -21 651 q 53 708 17 708 q 83 701 68 708 q 110 681 99 693 q 80 626 89 654 q 71 560 71 597 q 143 356 71 438 q 324 275 215 275 q 464 332 408 275 q 519 471 519 389 q 513 514 519 494 q 493 549 506 533 q 444 458 488 494 q 343 421 401 421 q 223 467 269 421 q 176 585 176 514 q 219 692 176 649 q 328 736 263 736 q 533 635 444 736 q 621 399 621 533 q 620 378 621 389 q 618 358 619 368 q 647 276 636 315 q 661 192 657 236 l 771 707 q 698 773 739 758 q 581 788 657 788 l -10 788 l -32 932 l 488 932 q 669 892 593 932 q 786 774 744 853 q 856 890 808 849 q 969 932 903 932 q 1081 898 1035 932 q 1154 796 1126 864 l 1221 1108 l 1268 1108 q 1291 970 1268 1008 q 1372 932 1314 932 l 1386 932 l 1408 788 l 1399 788 q 1356 807 1375 788 q 1324 863 1336 826 l 1142 0 l 982 0 l 1142 739 q 1082 774 1118 761 q 1010 788 1046 788 q 955 763 976 788 q 922 686 933 738 l 781 0 z "},"ই":{"ha":611,"x_min":-32,"x_max":614,"o":"m -10 788 l -32 932 l 460 932 q 475 945 471 939 q 479 961 479 951 q 467 986 479 978 q 429 994 456 994 q 89 1056 200 994 q -22 1243 -22 1117 q 3 1331 -22 1293 q 64 1368 28 1368 q 97 1358 85 1368 q 121 1319 108 1347 q 78 1292 94 1313 q 61 1247 61 1272 q 81 1201 61 1217 q 139 1185 101 1185 q 452 1130 342 1185 q 563 978 563 1075 q 560 953 563 965 q 553 932 557 942 l 592 932 l 614 788 l -10 788 m 442 -129 q 283 44 397 -22 q -1 126 169 110 l -26 296 q 288 346 174 279 q 403 531 403 413 q 381 602 403 578 q 314 626 358 626 q 285 623 300 626 q 256 614 269 619 q 287 578 276 597 q 297 533 297 558 q 253 435 297 475 q 147 394 210 394 q 69 428 100 394 q 39 518 39 463 q 109 663 39 603 q 290 722 179 722 q 450 654 386 722 q 514 481 514 586 q 449 294 514 374 q 269 174 385 214 q 442 43 372 114 q 511 -74 511 -28 q 492 -115 511 -100 q 442 -129 474 -129 z "},"ঈ":{"ha":840,"x_min":-69,"x_max":843,"o":"m -10 788 l -32 932 l 604 932 q 628 949 621 940 q 635 968 635 957 q 616 999 635 989 q 558 1008 597 1008 q 106 1067 253 1008 q -40 1257 -40 1126 q -15 1344 -40 1307 q 46 1382 10 1382 q 78 1372 67 1382 q 103 1333 90 1361 q 60 1306 76 1326 q 43 1261 43 1286 q 75 1213 43 1228 q 175 1199 107 1199 q 589 1149 460 1199 q 718 986 718 1099 q 715 958 718 972 q 706 932 711 944 l 821 932 l 843 788 l -10 788 m 661 -142 q 563 -40 607 -142 q 518 182 518 61 q 526 310 518 249 q 549 425 533 371 q 517 381 535 406 q 478 324 500 356 q 306 113 369 163 q 175 63 243 63 q 8 135 86 63 q -69 285 -69 207 q -57 322 -69 308 q -24 336 -44 336 q 1 331 -11 336 q 22 317 13 326 q 19 306 19 311 q 18 294 18 301 q 46 237 18 258 q 117 215 74 215 q 254 285 203 215 q 306 474 306 354 q 287 575 306 544 q 228 606 268 606 q 222 606 225 606 q 214 604 218 606 q 235 571 228 590 q 243 529 243 551 q 206 436 243 476 q 117 396 168 396 q 31 431 65 396 q -3 521 -3 465 q 60 649 -3 593 q 207 706 122 706 q 341 653 290 706 q 411 486 392 600 q 527 615 461 554 q 656 710 593 676 l 821 590 q 661 419 714 519 q 608 186 608 319 q 643 15 608 97 q 719 -93 678 -67 q 697 -129 713 -117 q 661 -142 682 -142 z "},"উ":{"ha":738,"x_min":-32,"x_max":740,"o":"m 344 -14 q 66 135 163 -14 q -31 550 -31 283 q -15 648 -31 615 q 31 681 0 681 q 65 673 49 681 q 93 651 81 665 q 67 581 75 615 q 60 506 60 546 q 128 247 60 333 q 331 161 196 161 q 510 233 439 161 q 575 407 582 306 q 500 331 544 357 q 406 304 456 304 q 236 387 299 306 q 196 585 174 468 l 217 692 q 220 708 218 700 q 224 722 222 715 q 163 776 193 765 q 79 788 132 788 l -10 788 l -32 932 l 15 932 q 149 895 93 932 q 246 781 206 858 q 357 894 282 857 q 543 932 432 932 l 554 932 q 592 953 579 942 q 604 979 604 965 q 585 1001 604 994 q 526 1008 565 1008 q 142 1063 257 1008 q 26 1257 26 1118 q 51 1342 26 1304 q 113 1382 76 1381 q 145 1370 133 1381 q 169 1333 157 1360 q 126 1303 142 1324 q 110 1258 110 1283 q 132 1213 110 1228 q 199 1199 154 1199 q 565 1151 442 1199 q 688 1008 688 1103 q 683 966 688 985 q 668 932 678 947 l 718 932 l 740 788 l 582 788 q 449 760 494 788 q 382 665 404 733 q 338 518 344 551 q 331 460 331 485 q 339 428 331 440 q 363 417 347 417 q 428 456 389 417 q 565 622 468 496 q 631 503 610 568 q 654 357 653 439 q 569 84 653 182 q 344 -14 486 -14 z "},"ঊ":{"ha":869,"x_min":-32,"x_max":872,"o":"m 489 -14 q 274 37 371 -14 q 106 183 176 88 q 11 378 44 268 q -22 606 -22 488 q -9 656 -22 639 q 29 672 4 672 q 55 665 43 672 q 79 643 67 658 q 74 607 75 625 q 72 568 72 589 q 113 356 72 450 q 239 190 154 263 q 167 369 192 272 q 143 578 143 465 q 156 649 143 626 q 197 672 168 672 q 223 665 211 672 q 247 643 235 658 q 237 596 240 621 q 233 543 233 571 q 306 269 233 378 q 490 161 378 161 q 651 234 589 161 q 707 407 714 307 q 632 331 676 357 q 538 304 588 304 q 368 387 431 306 q 328 585 306 468 l 349 692 q 352 708 350 700 q 357 725 354 717 q 332 756 340 749 q 313 771 324 764 q 274 783 296 779 q 219 788 251 788 l -10 788 l -32 932 l 156 932 q 285 897 232 932 q 379 783 339 863 q 487 893 415 856 q 665 932 558 931 q 703 953 690 942 q 715 979 715 965 q 696 1001 715 994 q 638 1008 676 1008 q 224 1067 354 1008 q 93 1257 93 1126 q 118 1342 93 1304 q 179 1382 143 1381 q 212 1370 200 1381 q 236 1333 224 1360 q 192 1303 208 1324 q 176 1258 176 1283 q 201 1213 176 1228 q 279 1199 226 1199 q 669 1151 539 1199 q 799 1008 799 1104 q 794 966 799 985 q 779 932 789 947 l 850 932 l 872 788 l 714 788 q 581 760 626 788 q 514 665 536 733 q 469 518 476 551 q 463 460 463 485 q 471 428 463 440 q 494 417 479 417 q 560 456 521 417 q 697 622 600 496 q 763 503 742 568 q 786 357 785 439 q 703 86 785 186 q 489 -14 621 -14 z "},"ঋ":{"ha":1118,"x_min":29,"x_max":1121,"o":"m 418 201 l 492 547 q 368 494 429 526 q 260 419 307 461 q 367 333 326 389 q 418 201 407 276 m 535 0 l 375 0 q 317 226 403 133 q 79 332 232 318 l 47 469 q 240 605 135 547 q 447 689 346 663 q 426 737 440 714 q 396 772 411 760 q 292 696 342 718 q 181 674 243 674 q 71 711 113 674 q 29 810 29 749 q 58 894 29 863 q 138 925 88 925 q 215 895 186 925 q 249 811 244 865 q 308 877 288 846 q 342 946 329 908 q 442 853 394 924 q 507 703 489 782 q 517 705 513 704 q 526 706 522 706 l 575 932 l 735 932 l 646 517 q 722 440 690 488 q 765 335 753 392 l 933 1108 l 981 1108 q 1003 970 981 1008 q 1085 932 1026 932 l 1099 932 l 1121 788 l 1111 788 q 1068 807 1088 788 q 1036 863 1049 826 l 883 139 l 724 139 l 726 149 q 732 183 731 169 q 733 207 733 196 q 701 304 733 261 q 615 374 668 347 l 535 0 z "},"ঌ":{"ha":853,"x_min":-21,"x_max":739,"o":"m 481 -14 l 394 122 q 410 183 404 153 q 415 240 415 214 q 383 351 415 313 q 290 390 350 390 q 151 328 208 390 q 94 179 94 265 q 99 147 94 161 q 113 119 103 132 q 142 221 108 181 q 229 261 176 261 q 313 228 279 261 q 346 144 346 196 q 306 42 346 83 q 204 0 265 0 q 46 83 113 0 q -21 279 -21 167 q 47 459 -21 388 q 213 531 114 531 q 408 451 332 531 q 508 224 485 371 q 615 375 578 304 q 651 497 651 446 q 626 560 651 542 q 543 578 601 578 q 236 642 340 578 q 132 826 132 706 q 158 910 132 872 q 218 949 183 947 q 251 937 239 947 q 275 900 263 926 q 232 872 249 892 q 215 828 215 851 q 246 782 215 796 q 350 768 276 768 q 642 687 544 768 q 739 443 739 606 q 687 231 739 332 q 522 25 635 131 l 481 -14 z "},"এ":{"ha":857,"x_min":-7,"x_max":753,"o":"m 460 0 l 464 22 q 466 41 465 31 q 467 63 467 51 q 438 125 467 106 q 344 144 410 144 q 88 231 182 144 q -7 464 -7 318 q 30 624 -7 554 q 114 694 67 694 q 152 683 138 694 q 175 644 167 671 q 97 559 126 617 q 68 438 68 501 q 95 371 68 393 q 175 349 122 349 q 389 301 304 349 q 496 169 474 253 l 619 744 q 623 825 631 799 q 589 851 615 851 q 506 802 554 851 q 422 681 458 753 q 483 638 461 668 q 504 567 504 607 q 467 470 504 507 q 371 433 431 433 q 268 480 310 433 q 226 599 226 526 q 254 708 226 644 q 328 825 282 771 q 430 915 375 883 q 539 946 485 946 q 715 845 654 946 q 743 594 775 744 l 619 0 l 460 0 z "},"ঐ":{"ha":949,"x_min":-7,"x_max":872,"o":"m 460 0 l 464 22 q 466 41 465 31 q 467 63 467 51 q 438 125 467 106 q 344 144 410 144 q 88 231 182 144 q -7 464 -7 318 q 30 624 -7 554 q 114 694 67 694 q 152 683 138 694 q 175 644 167 671 q 97 559 126 617 q 68 438 68 501 q 95 371 68 393 q 175 349 122 349 q 389 301 304 349 q 496 169 474 253 l 619 744 q 623 825 631 799 q 589 851 615 851 q 506 802 554 851 q 422 681 458 753 q 483 638 461 668 q 504 567 504 607 q 467 470 504 507 q 371 433 431 433 q 268 480 310 433 q 226 599 226 526 q 254 708 226 644 q 328 825 282 771 q 430 915 375 883 q 539 946 485 946 q 676 894 619 946 q 747 757 732 842 q 778 821 768 783 q 789 906 789 858 q 744 1004 789 969 q 611 1039 699 1039 q 353 1104 444 1039 q 263 1285 263 1169 q 288 1372 263 1335 q 349 1410 313 1410 q 381 1399 369 1410 q 406 1361 393 1389 q 363 1334 379 1354 q 346 1289 346 1314 q 374 1244 346 1258 q 463 1229 403 1229 q 769 1153 668 1229 q 872 917 869 1078 q 835 736 872 824 q 742 590 797 649 l 619 0 l 460 0 z "},"ও":{"ha":896,"x_min":1,"x_max":799,"o":"m 472 -12 q 278 41 371 -12 q 119 193 186 94 q 32 380 63 276 q 1 594 1 483 q 22 681 1 651 q 82 711 43 711 q 115 703 99 711 q 142 682 131 696 q 114 625 124 658 q 104 553 104 592 q 130 403 104 474 q 206 278 156 333 q 328 185 258 219 q 467 151 397 151 q 576 181 525 151 q 653 258 628 210 q 670 320 667 288 q 665 388 674 353 q 617 357 642 368 q 567 346 592 346 q 485 380 519 346 q 451 465 451 414 q 483 560 451 526 q 568 593 514 593 q 590 592 579 593 q 611 586 601 590 q 653 672 636 621 q 669 768 669 724 q 651 828 669 803 q 607 853 633 853 q 482 801 546 853 q 382 674 418 749 q 413 635 401 658 q 424 586 424 613 q 388 503 424 536 q 297 469 351 469 q 209 511 243 469 q 175 618 175 553 q 285 844 175 743 q 531 946 396 946 q 724 876 650 946 q 799 706 799 806 q 781 585 799 646 q 735 475 764 525 q 767 393 756 438 q 778 300 778 349 q 692 74 778 160 q 472 -12 606 -12 z "},"ঔ":{"ha":1013,"x_min":1,"x_max":936,"o":"m 472 -12 q 278 41 371 -12 q 119 193 186 94 q 32 380 63 276 q 1 594 1 483 q 22 681 1 651 q 82 711 43 711 q 115 703 99 711 q 142 682 131 696 q 114 625 124 658 q 104 553 104 592 q 130 403 104 474 q 206 278 156 333 q 328 185 258 219 q 467 151 397 151 q 576 181 525 151 q 653 258 628 210 q 670 320 667 288 q 665 388 674 353 q 617 357 642 368 q 567 346 592 346 q 485 380 519 346 q 451 465 451 414 q 483 560 451 526 q 568 593 514 593 q 590 592 579 593 q 611 586 601 590 q 653 672 636 621 q 669 768 669 724 q 651 828 669 803 q 607 853 633 853 q 482 801 546 853 q 382 674 418 749 q 413 635 401 658 q 424 586 424 613 q 388 503 424 536 q 297 469 351 469 q 209 511 243 469 q 175 618 175 553 q 285 844 175 743 q 531 946 396 946 q 724 876 650 946 q 799 706 799 806 q 799 697 799 701 q 799 688 799 692 q 834 775 821 728 q 847 868 847 822 q 803 994 847 949 q 675 1039 758 1039 q 417 1104 508 1039 q 326 1285 326 1169 q 351 1372 326 1335 q 413 1410 376 1410 q 445 1399 433 1410 q 469 1361 457 1389 q 426 1334 443 1354 q 410 1289 410 1314 q 438 1244 410 1258 q 526 1229 467 1229 q 833 1153 732 1229 q 936 917 933 1078 q 890 658 936 772 q 744 456 843 543 q 769 381 760 421 q 778 300 778 342 q 692 74 778 160 q 472 -12 606 -12 z "},"ক":{"ha":944,"x_min":-32,"x_max":947,"o":"m 340 203 l 418 569 q 296 515 356 551 q 175 424 236 478 q 286 335 244 392 q 340 203 328 279 m 297 0 q 240 226 325 133 q 1 332 154 318 l -21 489 q 197 650 82 583 q 418 742 313 717 q 353 778 390 769 q 253 788 315 788 l -10 788 l -32 932 l 160 932 q 349 888 271 932 q 468 758 428 843 q 590 894 510 856 q 814 932 669 932 l 925 932 l 947 788 l 776 788 q 686 776 722 788 q 628 736 650 765 q 697 698 664 722 q 758 640 731 674 q 826 524 801 589 q 851 399 851 458 q 805 229 851 294 q 683 164 758 164 q 591 199 628 164 q 554 288 554 233 q 589 380 554 343 q 681 417 624 417 q 720 412 703 417 q 751 397 738 407 q 751 397 751 397 q 751 399 751 397 q 703 533 751 481 q 575 590 654 585 l 454 0 l 297 0 z "},"খ":{"ha":864,"x_min":1,"x_max":867,"o":"m 438 0 l 440 15 q 365 249 468 160 q 92 335 261 339 l 68 497 q 314 583 222 522 q 407 714 406 643 q 404 738 406 729 q 399 751 403 746 q 285 665 338 690 q 167 639 232 639 q 46 678 90 639 q 1 788 1 718 q 36 878 1 842 q 124 915 71 915 q 213 884 178 915 q 256 793 249 853 q 304 867 281 824 q 347 964 328 911 q 465 853 419 931 q 511 682 511 776 q 465 531 511 596 q 326 421 418 467 q 431 327 392 382 q 482 204 469 272 l 676 1108 l 724 1108 q 747 970 724 1008 q 831 932 771 932 l 844 932 l 867 788 l 854 788 q 811 807 831 788 q 779 863 792 826 l 597 0 l 438 0 z "},"গ":{"ha":854,"x_min":7,"x_max":857,"o":"m 431 0 l 539 503 l 539 503 q 521 733 569 647 q 369 819 472 819 q 259 779 303 819 q 203 669 215 739 q 244 686 222 681 q 285 692 267 692 q 411 631 363 692 q 460 479 460 569 q 395 297 460 378 q 256 217 331 217 q 175 251 206 217 q 144 343 144 286 q 299 408 228 350 q 369 517 369 467 q 356 546 369 536 q 317 556 343 556 q 267 549 293 556 q 194 525 240 543 q 138 505 157 510 q 104 500 119 500 q 33 531 60 500 q 7 617 7 563 q 97 858 7 757 q 310 960 186 960 q 452 924 386 960 q 557 826 518 889 q 577 789 568 808 q 592 749 586 769 l 669 1108 l 717 1108 q 740 970 717 1008 q 821 932 763 932 l 835 932 l 857 788 l 847 788 q 804 807 824 788 q 772 863 785 826 l 590 0 l 431 0 z "},"ঘ":{"ha":793,"x_min":-32,"x_max":796,"o":"m 371 0 l 375 17 q 306 232 399 147 q 53 324 213 317 l 29 478 q 140 515 97 497 q 233 557 183 532 q 72 575 132 539 q 11 682 11 611 q 25 738 11 713 q 74 788 39 763 l -10 788 l -32 932 l 238 932 q 424 895 349 932 q 539 783 499 858 q 611 894 563 857 q 732 932 660 932 l 774 932 l 796 788 l 760 788 q 705 763 726 788 q 672 686 683 738 l 531 0 l 371 0 m 426 506 q 344 453 383 475 q 256 411 304 432 q 356 320 315 379 q 410 182 396 261 l 522 717 q 456 774 497 760 q 338 788 415 788 l 318 788 q 229 758 268 788 q 190 688 190 729 q 210 638 190 656 q 261 619 229 619 q 307 626 286 619 q 353 649 328 633 l 426 506 z "},"ঙ":{"ha":792,"x_min":6,"x_max":700,"o":"m 454 685 q 538 708 508 685 q 567 772 567 731 q 552 813 567 797 q 514 828 538 828 q 451 794 476 828 q 406 689 425 761 q 430 685 418 686 q 454 685 442 685 m 376 -14 q 103 125 200 -14 q 6 506 6 264 q 19 608 6 579 q 65 638 33 638 q 94 631 82 638 q 121 608 107 624 q 100 530 107 571 q 93 446 93 489 q 169 231 93 308 q 372 154 244 154 q 538 213 469 154 q 626 376 606 272 q 546 314 593 338 q 450 290 499 290 q 256 376 328 290 q 215 589 185 463 l 224 624 q 108 708 156 657 q 61 811 61 758 q 90 868 61 849 q 175 888 119 888 q 207 813 185 847 q 260 753 229 779 q 344 896 294 847 q 457 944 393 944 q 600 890 543 944 q 657 757 657 836 q 588 629 657 679 q 407 579 518 579 q 393 579 400 579 q 379 581 386 579 l 356 483 q 353 426 346 444 q 386 408 361 408 q 501 456 439 408 q 618 590 563 504 q 678 494 656 558 q 700 356 700 431 q 613 87 700 188 q 376 -14 525 -14 z "},"চ":{"ha":701,"x_min":-32,"x_max":704,"o":"m 251 0 q 57 100 118 -1 q 33 374 -4 201 l 89 629 q 103 686 96 660 q 118 736 110 713 q 73 776 101 764 q 3 788 44 788 l -10 788 l -32 932 l -18 932 q 83 896 43 932 q 140 785 122 860 q 263 899 183 867 q 476 932 342 932 l 682 932 l 704 788 l 439 788 q 338 772 376 788 q 278 717 300 756 q 317 653 286 675 q 413 617 349 631 q 539 531 483 601 q 594 397 594 461 q 565 272 594 342 q 486 140 535 201 q 372 37 433 74 q 251 0 311 0 m 176 97 q 258 131 213 97 q 351 226 304 165 q 420 337 393 281 q 447 425 447 393 q 436 452 447 442 q 385 475 425 463 q 310 509 335 492 q 271 551 286 526 q 255 588 261 568 q 246 631 249 607 q 245 623 246 626 q 243 615 244 619 l 158 194 q 153 120 149 143 q 176 97 157 97 z "},"ছ":{"ha":725,"x_min":-32,"x_max":728,"o":"m 503 -244 q 336 -94 453 -149 q 15 -18 219 -39 l -8 168 q 397 244 258 168 q 536 463 536 321 q 519 519 536 500 q 460 550 503 539 q 438 556 451 553 q 411 561 425 558 q 417 549 414 554 q 424 539 421 543 q 435 509 432 522 q 439 482 439 496 q 416 405 439 449 q 357 326 393 361 q 281 275 322 293 q 194 257 239 257 q 46 347 104 257 q 8 533 -12 436 l 29 629 q 51 714 39 675 q 81 783 64 753 q 50 787 67 786 q 13 788 33 788 l -10 788 l -32 932 l 3 932 q 76 914 43 932 q 136 857 110 896 q 249 915 181 897 q 415 932 317 932 l 706 932 l 728 788 l 378 788 q 314 783 342 788 q 265 765 286 778 q 313 711 278 728 q 419 689 349 694 q 576 603 517 681 q 636 415 636 525 q 540 174 636 272 q 264 39 443 76 q 339 5 301 24 q 413 -36 376 -14 q 527 -125 482 -81 q 572 -196 572 -169 q 553 -231 572 -218 q 503 -244 533 -244 m 164 356 q 260 424 213 356 q 313 579 307 493 q 249 625 278 592 q 208 699 219 658 q 194 661 201 682 q 182 615 188 640 l 138 418 q 137 371 131 386 q 164 356 143 356 z "},"জ":{"ha":969,"x_min":-32,"x_max":972,"o":"m 697 -82 q 648 -31 667 -82 q 629 100 629 19 q 656 327 629 228 q 738 494 683 426 q 602 575 664 511 q 508 735 540 639 q 338 626 404 690 q 272 506 272 561 q 285 467 272 479 q 322 454 297 454 q 426 492 372 454 q 513 593 479 529 q 576 478 553 543 q 599 344 599 413 q 533 107 599 200 q 354 14 467 14 q 81 168 176 14 q -15 596 -15 322 q 0 653 -15 633 q 44 672 15 672 q 74 665 61 672 q 100 643 86 658 q 88 577 92 610 q 85 510 85 544 q 154 275 85 360 q 344 190 224 190 q 424 202 389 190 q 483 236 460 214 q 521 303 513 264 q 514 374 529 343 q 449 322 482 338 q 368 306 417 306 q 238 378 299 306 q 178 540 178 450 q 206 672 178 610 q 289 788 235 735 l -10 788 l -32 932 l 950 932 l 972 788 l 588 788 q 695 671 626 701 q 847 672 764 640 l 931 494 q 782 334 844 461 q 719 79 719 207 q 729 15 719 43 q 757 -35 739 -14 q 733 -69 750 -56 q 697 -82 715 -82 z "},"ঝ":{"ha":1010,"x_min":-49,"x_max":1013,"o":"m 310 203 l 389 569 q 268 515 328 551 q 147 424 208 478 q 258 336 217 393 q 310 203 299 279 m 426 0 l 267 0 q 210 226 294 133 q -26 332 126 318 l -49 489 q 169 650 54 583 q 389 742 283 717 q 324 778 361 769 q 225 788 286 788 l -10 788 l -32 932 l 132 932 q 315 892 239 932 q 432 771 390 851 l 467 932 l 625 932 l 539 529 q 615 449 583 500 q 658 338 646 397 l 825 1108 l 872 1108 q 895 970 872 1008 q 976 932 918 932 l 990 932 l 1013 788 l 1003 788 q 960 807 979 788 q 928 863 940 826 l 775 139 l 615 139 l 618 149 q 624 183 622 169 q 625 207 625 196 q 592 305 625 261 q 506 374 560 349 l 426 0 z "},"ঞ":{"ha":1219,"x_min":-7,"x_max":1143,"o":"m 853 225 q 908 246 885 225 q 944 303 932 267 q 951 336 949 319 q 953 368 953 353 q 911 353 931 358 q 876 347 892 347 q 804 378 835 347 q 774 454 774 410 q 802 532 774 500 q 874 564 831 564 q 904 559 889 564 q 935 544 919 554 q 1014 599 986 568 q 1043 661 1042 629 l 1043 663 q 1025 705 1043 690 q 975 719 1007 719 q 874 693 929 719 q 775 622 819 667 q 757 602 765 613 q 740 582 749 592 l 694 360 q 755 263 711 301 q 853 225 799 225 m 619 0 l 460 0 l 464 22 q 466 41 465 31 q 467 63 467 51 q 438 125 467 106 q 344 144 410 144 q 88 231 182 144 q -7 464 -7 318 q 30 624 -7 554 q 114 694 67 694 q 152 683 138 694 q 175 644 167 671 q 97 559 126 617 q 68 438 68 501 q 95 371 68 393 q 175 349 122 349 q 389 301 304 349 q 496 169 474 253 l 619 744 q 623 825 631 799 q 589 851 615 851 q 506 802 554 851 q 422 681 458 753 q 483 638 461 668 q 504 567 504 607 q 467 470 504 507 q 371 433 431 433 q 268 480 310 433 q 226 599 226 526 q 254 708 226 644 q 328 825 282 771 q 430 915 375 883 q 539 946 485 946 q 684 885 626 946 q 751 726 742 825 q 854 819 800 786 q 960 853 908 853 q 1086 780 1029 853 q 1143 617 1143 707 q 1120 526 1143 571 q 1054 439 1097 481 q 1042 428 1049 433 q 1029 417 1035 422 q 1044 359 1039 389 q 1050 299 1050 329 q 1008 135 1053 197 q 885 74 964 74 q 781 106 829 74 q 694 197 732 138 q 681 219 688 208 q 669 242 675 231 l 619 0 z "},"ট":{"ha":701,"x_min":-32,"x_max":704,"o":"m 236 0 q 58 110 115 0 q 38 392 0 219 l 89 629 q 103 686 96 660 q 119 735 111 713 q 74 776 101 764 q 3 788 46 788 l -10 788 l -32 932 l -18 932 q 83 896 43 932 q 140 783 122 860 q 258 897 183 863 q 460 932 333 931 q 475 945 471 939 q 479 961 479 951 q 467 986 479 978 q 429 994 456 994 q 89 1056 200 994 q -22 1243 -22 1117 q 3 1331 -22 1293 q 64 1368 28 1368 q 97 1358 85 1368 q 121 1319 108 1347 q 78 1292 94 1313 q 61 1247 61 1272 q 81 1201 61 1217 q 139 1185 101 1185 q 452 1130 342 1185 q 563 978 563 1075 q 560 953 563 965 q 553 932 557 942 l 682 932 l 704 788 l 439 788 q 306 751 347 788 q 243 615 264 715 l 158 194 q 155 122 149 147 q 182 97 161 97 q 246 126 206 97 q 322 201 286 156 q 360 256 343 228 q 389 313 378 283 q 324 358 349 325 q 299 433 299 392 q 338 531 299 494 q 440 568 376 568 q 546 526 506 568 q 586 414 586 483 q 556 285 586 356 q 476 150 526 214 q 356 40 419 81 q 236 0 293 0 z "},"ঠ":{"ha":671,"x_min":-32,"x_max":690,"o":"m 247 0 q 49 110 125 0 q -26 386 -26 221 q 122 449 49 400 q 239 565 196 499 q 285 675 275 618 q 279 788 296 732 l -10 788 l -32 932 l 186 932 q 122 1061 138 1010 q 106 1164 106 1113 q 169 1338 106 1267 q 321 1410 232 1410 q 403 1381 374 1410 q 438 1294 432 1351 q 406 1300 419 1299 q 379 1301 392 1301 q 258 1255 304 1301 q 211 1135 211 1208 q 226 1054 211 1097 q 290 932 242 1011 l 668 932 l 690 788 l 385 788 q 524 535 489 629 q 558 353 558 442 q 471 96 558 192 q 247 0 383 0 m 207 129 q 368 217 299 129 q 438 417 438 304 q 426 519 438 469 q 382 632 415 569 q 323 410 397 511 q 96 256 249 310 q 116 160 89 190 q 207 129 143 129 z "},"ড":{"ha":738,"x_min":-32,"x_max":740,"o":"m 344 -14 q 66 135 163 -14 q -31 550 -31 283 q -15 648 -31 615 q 31 681 0 681 q 65 673 49 681 q 93 651 81 665 q 67 581 75 615 q 60 506 60 546 q 127 250 60 336 q 331 161 194 164 q 510 233 439 161 q 575 407 582 306 q 500 331 544 357 q 406 304 456 304 q 236 387 299 306 q 196 585 174 468 l 217 692 q 220 708 218 700 q 224 722 222 715 q 163 776 193 765 q 79 788 132 788 l -10 788 l -32 932 l 15 932 q 149 895 93 932 q 246 781 206 858 q 357 894 282 857 q 543 932 432 932 l 718 932 l 740 788 l 582 788 q 449 760 494 788 q 382 665 404 733 q 338 518 344 551 q 331 460 331 485 q 339 428 331 440 q 363 417 347 417 q 428 456 389 417 q 565 622 468 496 q 631 503 610 568 q 654 357 653 439 q 569 84 653 182 q 344 -14 486 -14 z "},"ঢ":{"ha":701,"x_min":-32,"x_max":704,"o":"m 236 0 q 58 110 115 0 q 38 392 0 219 l 89 629 q 103 686 96 660 q 119 735 111 713 q 74 776 101 764 q 3 788 46 788 l -10 788 l -32 932 l -18 932 q 83 896 43 932 q 140 783 122 860 q 263 899 185 865 q 476 932 342 932 l 682 932 l 704 788 l 439 788 q 306 751 347 788 q 243 615 264 715 l 158 194 q 155 122 149 147 q 182 97 161 97 q 246 126 206 97 q 322 201 286 156 q 360 256 343 228 q 389 313 378 283 q 324 358 349 325 q 299 433 299 392 q 338 531 299 494 q 440 568 376 568 q 546 526 506 568 q 586 414 586 483 q 556 285 586 356 q 476 150 526 214 q 356 40 419 81 q 236 0 293 0 z "},"ণ":{"ha":749,"x_min":1,"x_max":751,"o":"m 325 0 l 442 542 q 399 719 453 642 q 257 796 346 796 q 156 752 194 796 q 117 640 117 708 q 119 609 117 624 q 125 582 121 594 q 163 667 132 635 q 242 699 194 699 q 333 662 297 699 q 368 568 368 625 q 326 467 368 506 q 221 428 285 428 q 69 499 136 428 q 1 676 1 569 q 69 873 1 797 q 244 949 138 949 q 364 908 310 949 q 449 799 418 868 q 465 750 458 775 q 475 699 472 725 l 564 1108 l 611 1108 q 614 1038 611 1067 q 622 988 617 1008 q 649 944 632 957 q 715 932 667 932 l 729 932 l 751 788 l 742 788 q 699 807 718 788 q 667 863 679 826 l 485 0 l 325 0 z "},"ত":{"ha":799,"x_min":-32,"x_max":801,"o":"m -32 932 l 779 932 l 801 788 l -10 788 l -32 932 m 396 17 q 219 68 300 17 q 81 217 139 119 q 9 394 35 296 q -17 592 -17 492 q 4 678 -17 649 q 64 708 25 708 q 97 701 81 708 q 124 679 113 693 q 96 622 106 656 q 86 550 86 589 q 106 413 86 476 q 167 300 126 349 q 272 214 211 244 q 397 183 333 183 q 544 242 486 183 q 603 386 603 301 q 588 465 603 431 q 547 521 574 500 q 547 520 547 521 q 547 518 547 519 q 506 412 547 454 q 400 369 464 369 q 272 417 322 369 q 221 535 221 464 q 274 658 221 611 q 415 707 326 706 q 618 608 533 708 q 703 363 703 507 q 616 112 703 207 q 396 17 529 17 z "},"থ":{"ha":861,"x_min":28,"x_max":864,"o":"m 438 0 l 440 15 q 365 249 468 160 q 92 335 261 339 l 68 497 q 333 599 235 519 q 432 775 432 678 q 410 838 432 817 q 342 858 388 858 q 280 842 310 858 q 228 800 250 826 q 266 766 251 789 q 281 713 281 743 q 244 628 281 663 q 160 594 207 594 q 65 633 101 594 q 28 735 28 672 q 111 893 28 826 q 317 960 194 960 q 473 897 413 960 q 533 742 533 835 q 481 555 533 635 q 325 422 429 475 q 430 327 390 382 q 482 204 469 272 l 676 1108 l 724 1108 q 744 972 724 1011 q 828 932 765 932 l 842 932 l 864 788 l 854 788 q 811 807 831 788 q 779 863 792 826 l 597 0 l 438 0 z "},"দ":{"ha":703,"x_min":-32,"x_max":706,"o":"m 468 -76 q 361 -2 404 -76 q 318 176 318 72 q 342 324 318 244 q 404 467 367 403 q 283 367 346 426 q 161 242 219 308 l 28 349 l 90 629 q 104 684 97 658 q 119 732 111 710 q 74 775 101 763 q 1 788 46 788 l -10 788 l -32 932 l -19 932 q 83 894 43 932 q 140 779 122 857 q 259 898 183 864 q 463 932 335 932 l 683 932 l 706 788 l 444 788 q 311 753 353 788 q 246 628 269 719 l 211 494 q 351 603 276 553 q 515 700 426 654 l 614 543 q 452 321 499 414 q 406 139 406 228 q 438 29 406 74 q 526 -28 469 -15 q 504 -64 519 -51 q 468 -76 489 -76 z "},"ধ":{"ha":751,"x_min":10,"x_max":754,"o":"m 489 0 l 329 0 q 274 216 357 131 q 32 315 190 301 l 10 472 q 97 547 60 518 q 171 600 133 576 q 70 671 97 635 q 43 764 43 707 q 106 897 43 840 q 257 953 169 953 q 390 918 342 953 q 439 824 439 883 q 411 753 439 781 q 340 725 383 725 q 274 753 300 725 q 249 822 247 781 q 180 803 210 826 q 150 742 150 781 q 181 676 150 703 q 258 649 213 649 q 348 665 297 649 q 483 726 399 681 l 488 747 q 558 885 507 838 q 690 932 610 932 l 732 932 l 754 788 l 718 788 q 663 763 685 788 q 631 686 642 738 l 489 0 m 372 201 l 446 553 q 326 497 385 533 q 206 407 267 461 q 317 324 275 375 q 372 201 360 272 z "},"ন":{"ha":731,"x_min":-32,"x_max":733,"o":"m 308 0 l 319 56 q 328 117 326 88 q 331 176 331 147 q 313 344 331 271 q 261 457 294 417 l 261 449 q 223 356 261 390 q 128 321 185 321 q 19 363 61 321 q -22 471 -22 404 q 20 581 -22 539 q 132 624 63 624 q 301 552 238 624 q 381 343 364 481 l 458 706 q 385 772 425 757 q 267 788 344 788 l -10 788 l -32 932 l 174 932 q 356 892 281 932 q 472 772 431 851 q 544 891 494 850 q 669 932 594 932 l 711 932 l 733 788 l 697 788 q 642 763 664 788 q 610 686 621 738 l 468 0 l 308 0 z "},"প":{"ha":942,"x_min":18,"x_max":944,"o":"m 518 0 l 594 357 q 606 460 606 408 q 599 561 607 513 q 422 424 504 494 q 274 282 339 354 l 165 406 q 234 480 215 450 q 253 547 253 510 q 237 597 253 578 q 197 615 221 615 q 178 614 188 615 q 151 607 168 613 q 126 600 135 601 q 108 599 117 599 q 44 631 69 599 q 18 717 18 664 q 90 881 18 818 q 283 946 161 944 q 451 908 374 947 q 582 793 528 868 q 627 715 608 757 q 654 631 646 674 l 757 1108 l 804 1108 q 827 970 804 1008 q 908 932 850 932 l 922 932 l 944 788 l 935 788 q 892 807 911 788 q 860 863 872 826 l 678 0 l 518 0 m 325 561 q 420 636 368 597 q 539 719 472 675 q 460 795 507 768 q 358 822 414 822 q 271 795 308 822 q 224 722 233 768 q 308 671 278 718 q 325 561 338 624 z "},"ফ":{"ha":929,"x_min":-32,"x_max":932,"o":"m 315 0 q 306 115 329 63 q 226 203 283 167 q 120 249 182 233 q 1 265 58 265 l -21 407 q 89 501 31 458 q 214 581 147 544 l 179 603 q 85 688 122 640 q 38 788 49 736 l -10 788 l -32 932 l 910 932 l 932 788 l 257 788 q 296 623 263 693 q 390 500 329 553 q 282 433 332 469 q 193 358 232 397 q 295 288 253 336 q 353 175 338 240 l 460 678 q 502 687 479 683 q 549 690 525 690 q 763 592 667 690 q 860 372 860 494 q 820 226 860 279 q 708 172 781 172 q 615 203 651 172 q 579 283 579 233 q 611 368 579 336 q 699 400 643 400 q 738 394 721 400 q 769 378 756 389 q 715 478 764 442 q 582 518 665 514 l 475 0 l 315 0 z "},"ব":{"ha":719,"x_min":-46,"x_max":722,"o":"m 297 0 q 240 226 325 133 q 1 332 154 318 l -21 489 q 197 650 82 583 q 419 742 313 717 q 354 778 392 769 q 256 788 317 788 l -24 788 l -46 932 l 163 932 q 344 892 269 932 q 461 772 419 851 q 533 891 483 850 q 658 932 583 932 l 700 932 l 722 788 l 686 788 q 631 763 653 788 q 599 686 610 738 l 457 0 l 297 0 m 340 203 l 418 569 q 296 515 356 551 q 175 424 236 478 q 286 335 244 392 q 340 203 328 279 z "},"ভ":{"ha":826,"x_min":-32,"x_max":829,"o":"m -32 932 l 807 932 l 829 788 l -10 788 l -32 932 m 367 28 q 79 182 186 28 q -28 565 -28 336 q -6 672 -28 636 q 60 708 17 708 q 92 701 76 708 q 119 679 108 693 q 81 609 93 644 q 69 532 69 574 q 147 285 69 374 q 361 194 224 196 q 576 270 499 193 q 644 479 653 347 q 540 385 606 418 q 392 353 474 353 q 249 406 308 353 q 190 536 190 458 q 225 634 190 597 q 318 671 260 671 q 413 619 379 671 q 428 513 447 568 q 541 585 488 538 q 610 678 594 632 q 702 565 671 638 q 729 396 733 493 q 700 253 726 319 q 622 138 674 188 q 502 57 571 86 q 367 28 433 28 z "},"ম":{"ha":800,"x_min":-32,"x_max":803,"o":"m 4 788 l -10 788 l -32 932 l 265 932 q 435 898 364 932 q 550 797 507 864 q 622 897 575 863 q 739 932 669 932 l 781 932 l 803 788 l 767 788 q 712 763 733 788 q 679 686 690 738 l 538 0 l 378 0 q 382 26 381 13 q 383 53 383 39 q 354 192 383 131 q 279 288 325 253 q 228 260 257 269 q 167 250 200 250 q 65 285 104 250 q 25 376 25 319 q 57 465 25 433 q 144 497 89 497 q 181 493 163 497 q 217 481 199 489 q 236 508 229 492 q 243 546 243 525 q 222 589 243 567 q 129 656 200 611 q 50 709 74 690 q 11 744 26 728 l 4 788 m 211 788 q 222 725 210 756 q 279 642 235 694 q 340 550 325 585 q 354 479 354 515 q 350 423 354 450 q 336 372 346 396 q 386 282 365 332 q 415 179 407 232 l 532 729 q 464 776 503 765 q 358 788 425 788 l 211 788 z "},"য":{"ha":742,"x_min":-32,"x_max":744,"o":"m 319 0 q 262 226 347 133 q 24 332 176 318 l 1 489 q 97 568 38 524 q 208 646 156 613 q 165 678 204 649 q 106 725 125 707 q 75 756 88 740 q 57 788 63 772 l -10 788 l -32 932 l 186 932 q 367 892 292 932 q 485 774 443 853 q 556 892 507 851 q 681 932 606 932 l 722 932 l 744 788 l 708 788 q 653 763 675 788 q 621 686 632 738 l 479 0 l 319 0 m 197 424 q 308 335 265 392 q 363 204 350 279 l 469 707 q 397 773 438 758 q 279 788 356 788 l 251 788 q 301 676 264 736 q 388 560 338 615 q 246 463 272 483 q 197 424 219 443 z "},"র":{"ha":719,"x_min":-46,"x_max":722,"o":"m 297 0 q 240 226 325 133 q 1 332 154 318 l -21 489 q 197 650 82 583 q 419 742 313 717 q 354 778 392 769 q 256 788 317 788 l -24 788 l -46 932 l 163 932 q 344 892 269 932 q 461 772 419 851 q 533 891 483 850 q 658 932 583 932 l 700 932 l 722 788 l 686 788 q 631 763 653 788 q 599 686 610 738 l 457 0 l 297 0 m 340 203 l 418 569 q 296 515 356 551 q 175 424 236 478 q 286 335 244 392 q 340 203 328 279 m 76 186 q 146 157 117 186 q 175 88 175 128 q 146 18 175 47 q 76 -11 117 -11 q 7 18 36 -11 q -22 88 -22 47 q 8 157 -22 128 q 76 186 38 186 z "},"ল":{"ha":972,"x_min":-32,"x_max":975,"o":"m 550 0 l 626 357 q 629 477 639 436 q 588 518 619 518 q 528 477 556 518 q 490 372 501 436 l 367 399 q 335 485 367 453 q 251 517 304 517 q 151 472 189 517 q 114 357 114 428 q 115 321 114 336 q 119 294 117 306 q 160 363 129 336 q 235 390 192 390 q 316 360 285 390 q 347 279 347 329 q 311 188 347 221 q 214 156 275 156 q 58 229 124 156 q -7 424 -7 303 q 54 606 -7 531 q 211 681 115 681 q 329 636 281 681 q 390 524 378 592 q 452 640 414 600 q 540 681 490 681 q 617 648 583 681 q 669 563 651 615 l 700 708 q 628 773 668 758 q 511 788 588 788 l -10 788 l -32 932 l 418 932 q 599 893 524 932 q 715 775 674 854 q 788 892 738 851 q 911 932 838 932 l 953 932 l 975 788 l 939 788 q 884 763 906 788 q 851 686 863 738 l 710 0 l 550 0 z "},"শ":{"ha":817,"x_min":-39,"x_max":819,"o":"m 392 0 l 553 744 q 512 788 533 774 q 465 801 490 801 q 408 779 432 801 q 361 706 383 757 q 414 637 399 668 q 429 565 429 606 q 397 488 429 521 q 322 454 364 454 q 239 483 274 454 q 189 565 204 511 q 133 493 169 518 q 46 468 96 468 q -15 494 10 468 q -39 557 -39 519 q 15 663 -39 614 q 157 736 68 711 q 99 776 133 764 q 17 788 65 788 l -10 788 l -32 932 l -4 932 q 118 895 69 932 q 190 783 167 858 q 278 900 222 854 q 394 946 333 946 q 499 912 454 946 q 568 815 544 878 l 632 1108 l 679 1108 q 702 970 679 1008 q 783 932 725 932 l 797 932 l 819 788 l 810 788 q 767 807 786 788 q 735 863 747 826 l 553 0 l 392 0 z "},"ষ":{"ha":754,"x_min":-32,"x_max":757,"o":"m 332 0 q 274 226 360 133 q 36 332 189 318 l 14 489 q 98 560 54 526 q 189 625 142 594 q 106 704 138 664 q 65 788 75 744 l -10 788 l -32 932 l 199 932 q 380 892 304 932 q 497 774 456 853 q 569 892 519 851 q 693 932 618 932 l 735 932 l 757 788 l 721 788 q 666 763 688 788 q 633 686 644 738 l 492 0 l 332 0 m 292 788 l 264 788 q 318 679 275 739 q 446 536 361 619 l 482 707 q 409 773 450 758 q 292 788 368 788 m 375 203 l 429 461 l 342 521 q 276 478 308 503 q 210 424 244 454 q 321 335 279 392 q 375 203 363 279 z "},"স":{"ha":846,"x_min":-32,"x_max":849,"o":"m 419 578 q 488 542 463 578 q 517 436 513 506 l 575 717 q 509 774 550 760 q 390 788 468 788 l 297 788 q 313 763 303 776 q 340 732 324 749 q 383 678 372 699 q 393 635 393 657 q 390 605 393 621 q 378 568 386 589 q 398 575 386 572 q 419 578 410 578 m 424 0 l 476 247 q 483 287 481 269 q 485 315 485 304 q 474 365 485 349 q 440 382 463 382 q 403 365 424 382 q 318 276 383 349 q 243 211 275 228 q 167 194 211 194 q 28 265 86 194 q -31 438 -31 336 q -19 490 -31 472 q 15 508 -7 508 q 40 503 28 508 q 61 489 51 499 q 51 462 54 476 q 47 431 47 447 q 68 377 47 397 q 121 357 89 357 q 170 369 149 357 q 215 410 192 381 q 281 505 260 465 q 303 575 303 544 q 276 637 303 607 q 164 715 249 667 q 97 756 122 739 q 60 788 72 774 l -10 788 l -32 932 l 290 932 q 476 895 401 932 q 592 783 551 858 q 664 894 615 857 q 785 932 713 932 l 826 932 l 849 788 l 813 788 q 758 763 779 788 q 725 686 736 738 l 583 0 l 424 0 z "},"হ":{"ha":611,"x_min":-32,"x_max":614,"o":"m -32 932 l 592 932 l 614 788 l -10 788 l -32 932 m 442 -129 q 283 44 397 -22 q -1 126 169 110 l -26 296 q 288 346 174 279 q 403 531 403 413 q 381 602 403 578 q 314 626 358 626 q 285 623 300 626 q 256 614 269 619 q 287 578 276 597 q 297 533 297 558 q 253 435 297 475 q 147 394 210 394 q 69 428 100 394 q 39 518 39 463 q 109 663 39 603 q 290 722 179 722 q 450 654 386 722 q 514 481 514 586 q 449 294 514 374 q 269 174 385 214 q 442 43 372 114 q 511 -74 511 -28 q 492 -115 511 -100 q 442 -129 474 -129 z "},"ড়":{"ha":738,"x_min":-32,"x_max":740,"o":"m 344 -14 q 66 135 163 -14 q -31 550 -31 283 q -15 648 -31 615 q 31 681 0 681 q 65 673 49 681 q 93 651 81 665 q 67 581 75 615 q 60 506 60 546 q 127 250 60 336 q 331 161 194 164 q 510 233 439 161 q 575 407 582 306 q 500 331 544 357 q 406 304 456 304 q 236 387 299 306 q 196 585 174 468 l 217 692 q 220 708 218 700 q 224 722 222 715 q 163 776 193 765 q 79 788 132 788 l -10 788 l -32 932 l 15 932 q 149 895 93 932 q 246 781 206 858 q 357 894 282 857 q 543 932 432 932 l 718 932 l 740 788 l 582 788 q 449 760 494 788 q 382 665 404 733 q 338 518 344 551 q 331 460 331 485 q 339 428 331 440 q 363 417 347 417 q 428 456 389 417 q 565 622 468 496 q 631 503 610 568 q 654 357 653 439 q 569 84 653 182 q 344 -14 486 -14 m 222 -92 q 292 -122 263 -92 q 321 -190 321 -151 q 292 -260 321 -231 q 222 -289 263 -289 q 153 -260 182 -289 q 124 -190 124 -231 q 153 -122 124 -151 q 222 -92 183 -92 z "},"ঢ়":{"ha":701,"x_min":-32,"x_max":704,"o":"m 236 0 q 58 110 115 0 q 38 392 0 219 l 89 629 q 103 686 96 660 q 119 735 111 713 q 74 776 101 764 q 3 788 46 788 l -10 788 l -32 932 l -18 932 q 83 896 43 932 q 140 783 122 860 q 263 899 185 865 q 476 932 342 932 l 682 932 l 704 788 l 439 788 q 306 751 347 788 q 243 615 264 715 l 158 194 q 155 122 149 147 q 182 97 161 97 q 246 126 206 97 q 322 201 286 156 q 360 256 343 228 q 389 313 378 283 q 324 358 349 325 q 299 433 299 392 q 338 531 299 494 q 440 568 376 568 q 546 526 506 568 q 586 414 586 483 q 556 285 586 356 q 476 150 526 214 q 356 40 419 81 q 236 0 293 0 m 140 -92 q 210 -122 181 -92 q 239 -190 239 -151 q 210 -260 239 -231 q 140 -289 181 -289 q 71 -260 100 -289 q 42 -190 42 -231 q 72 -122 42 -151 q 140 -92 101 -92 z "},"য়":{"ha":728,"x_min":-32,"x_max":744,"o":"m 319 0 q 262 226 347 133 q 24 332 176 318 l 1 489 q 97 568 38 524 q 208 646 156 613 q 165 678 204 649 q 106 725 125 707 q 75 756 88 740 q 57 788 63 772 l -10 788 l -32 932 l 186 932 q 367 892 292 932 q 485 774 443 853 q 556 892 507 851 q 681 932 606 932 l 722 932 l 744 788 l 708 788 q 653 763 675 788 q 621 686 632 738 l 479 0 l 319 0 m 197 424 q 308 335 265 392 q 363 204 350 279 l 469 707 q 397 773 438 758 q 279 788 356 788 l 251 788 q 301 676 264 736 q 388 560 338 615 q 246 463 272 483 q 197 424 219 443 m 118 186 q 188 157 158 186 q 217 88 217 128 q 188 18 217 47 q 118 -11 158 -11 q 49 18 78 -11 q 19 88 19 47 q 49 157 19 128 q 118 186 79 186 z "},"ৰ":{"ha":692,"x_min":-49,"x_max":694,"o":"m 269 0 q 212 226 297 133 q -26 332 126 318 l -49 489 q 169 650 54 583 q 390 742 285 717 q 325 778 363 769 q 225 788 288 788 l -10 788 l -32 932 l 132 932 q 315 892 239 932 q 433 772 392 851 q 506 891 456 850 q 631 932 556 932 l 672 932 l 694 788 l 658 788 q 603 763 625 788 q 571 686 582 738 l 429 0 l 269 0 m 354 401 l 390 569 q 326 545 358 560 q 263 511 294 531 q 315 459 292 488 q 354 401 339 431 m 313 203 l 339 329 q 278 408 317 371 q 197 465 240 444 q 172 445 185 456 q 147 424 160 435 q 258 335 217 392 q 313 203 300 279 z "},"ৱ":{"ha":692,"x_min":-46,"x_max":722,"o":"m 297 0 q 240 226 325 133 q 1 332 154 318 l -21 489 q 197 650 82 583 q 419 742 313 717 q 354 778 392 769 q 256 788 317 788 l -24 788 l -46 932 l 163 932 q 344 892 269 932 q 461 772 419 851 q 533 891 483 850 q 658 932 583 932 l 700 932 l 722 788 l 686 788 q 631 763 653 788 q 599 686 610 738 l 457 0 l 297 0 m 340 203 l 418 569 q 296 515 356 551 q 175 424 236 478 q 286 335 244 392 q 340 203 328 279 m -1 232 q 150 159 85 218 q 244 14 215 100 l 200 -26 q 101 67 165 25 q -26 118 36 110 l -1 232 z "},"ৠ":{"ha":1118,"x_min":29,"x_max":1121,"o":"m 418 201 l 492 547 q 368 494 429 526 q 260 419 307 461 q 367 333 326 389 q 418 201 407 276 m 390 -132 q 399 -188 407 -169 q 360 -207 392 -207 q 256 -52 340 -112 q 61 8 172 8 l 54 8 l 39 103 q 168 193 101 154 q 292 250 235 232 q 199 305 253 283 q 79 332 144 326 l 47 469 q 240 605 135 547 q 447 689 346 663 q 426 737 440 714 q 396 772 411 760 q 292 696 342 718 q 181 674 243 674 q 71 711 113 674 q 29 810 29 749 q 58 894 29 863 q 138 925 88 925 q 215 895 186 925 q 249 811 244 865 q 308 877 288 846 q 342 946 329 908 q 442 853 394 924 q 507 703 489 782 q 517 705 513 704 q 526 706 522 706 l 575 932 l 735 932 l 646 517 q 722 440 690 488 q 765 335 753 392 l 933 1108 l 981 1108 q 1003 970 981 1008 q 1085 932 1026 932 l 1099 932 l 1121 788 l 1111 788 q 1068 807 1088 788 q 1036 863 1049 826 l 883 139 l 724 139 l 726 149 q 732 183 731 169 q 733 207 733 196 q 701 304 733 261 q 615 374 668 347 l 535 0 l 375 0 q 381 67 382 35 q 372 129 381 100 q 297 97 338 118 q 231 51 257 75 q 331 -36 293 7 q 390 -132 368 -79 z "},"ৡ":{"ha":1211,"x_min":-21,"x_max":1119,"o":"m 861 -312 l 775 -176 q 790 -115 785 -146 q 796 -58 796 -85 q 763 53 796 14 q 671 92 731 92 q 532 29 589 92 q 475 -119 475 -33 q 479 -152 475 -137 q 493 -179 483 -167 q 523 -78 489 -118 q 610 -37 557 -37 q 693 -70 660 -37 q 726 -154 726 -103 q 686 -257 726 -215 q 585 -299 646 -299 q 426 -215 493 -299 q 360 -19 360 -132 q 365 42 360 11 q 390 126 371 72 q 410 196 406 172 q 415 240 415 219 q 383 351 415 313 q 290 390 350 390 q 151 328 208 390 q 94 179 94 265 q 99 147 94 161 q 113 119 103 132 q 142 221 108 181 q 229 261 176 261 q 313 228 279 261 q 346 144 346 196 q 306 42 346 83 q 204 0 265 0 q 46 83 113 0 q -21 279 -21 167 q 47 459 -21 388 q 213 531 114 531 q 408 451 332 531 q 508 224 485 371 q 615 375 578 304 q 651 497 651 446 q 626 560 651 542 q 543 578 601 578 q 236 642 340 578 q 132 826 132 706 q 158 910 132 872 q 218 949 183 947 q 251 937 239 947 q 275 900 263 926 q 232 872 249 892 q 215 828 215 851 q 246 782 215 796 q 350 768 276 768 q 633 694 536 768 q 739 469 731 619 q 1024 387 929 468 q 1119 144 1119 306 q 1067 -67 1119 33 q 903 -274 1015 -168 l 861 -312 m 924 279 q 811 285 863 279 q 717 301 760 290 q 701 260 710 281 q 681 219 692 240 q 817 119 764 194 q 889 -75 871 43 q 995 76 958 6 q 1032 199 1032 147 q 1007 261 1032 243 q 924 279 982 279 z "},"ঽ":{"ha":646,"x_min":17,"x_max":557,"o":"m 485 -14 q 326 174 435 108 q 42 256 218 239 l 17 425 q 331 476 217 408 q 446 667 446 544 q 424 738 446 714 q 357 763 401 763 q 343 762 350 763 q 329 760 336 761 q 338 722 335 740 q 340 683 340 703 q 299 572 340 614 q 190 531 258 531 q 113 565 143 531 q 82 654 82 599 q 110 751 82 707 q 188 824 138 796 q 147 845 169 838 q 100 853 124 853 q 83 852 92 853 q 67 849 75 851 q 60 873 63 861 q 58 896 58 885 q 76 941 58 925 q 124 957 93 957 q 210 928 168 957 q 283 854 253 900 q 308 858 296 857 q 333 858 321 858 q 493 790 429 858 q 557 617 557 722 q 490 422 557 504 q 301 299 422 339 q 480 165 406 240 q 554 42 554 90 q 535 1 554 15 q 485 -14 517 -14 z "},"়":{"ha":0,"x_min":-621,"x_max":-424,"o":"m -522 -167 q -453 -197 -483 -167 q -424 -265 -424 -226 q -453 -335 -424 -306 q -522 -364 -482 -364 q -592 -335 -562 -364 q -621 -265 -621 -306 q -592 -197 -621 -226 q -522 -167 -562 -167 z "},"া":{"ha":392,"x_min":-32,"x_max":394,"o":"m 128 0 l -32 0 l 128 743 q 80 777 110 767 q 3 788 50 788 l -10 788 l -32 932 l -18 932 q 82 903 42 932 q 144 817 122 875 l 207 1108 l 254 1108 q 277 970 254 1008 q 358 932 300 932 l 372 932 l 394 788 l 385 788 q 342 807 361 788 q 310 863 322 826 l 128 0 z "},"ি":{"ha":392,"x_min":-32,"x_max":989,"o":"m -31 0 l 103 629 q 116 684 110 658 q 129 732 122 710 q 81 775 111 763 q 1 788 50 788 l -10 788 l -32 932 l -19 932 q 88 896 46 932 q 149 785 129 860 q 183 849 164 822 q 224 893 201 876 q 126 1010 158 954 q 93 1119 93 1067 q 170 1269 93 1211 q 367 1326 247 1326 q 675 1267 531 1326 q 965 1076 819 1207 q 989 1025 996 1050 q 947 1000 982 1000 q 726 1119 867 1075 q 442 1163 585 1163 q 283 1131 338 1163 q 228 1043 228 1100 q 235 999 228 1019 q 288 924 242 979 q 322 930 304 928 q 361 932 340 932 l 372 932 l 394 788 l 374 788 q 299 747 325 788 q 249 581 274 707 l 129 0 l -31 0 z "},"ী":{"ha":392,"x_min":-619,"x_max":394,"o":"m -31 0 l 103 629 q 115 687 110 658 q 124 742 119 715 q 75 776 106 765 q -3 788 44 788 l -10 788 l -32 932 l -24 932 q 72 906 33 932 q 133 828 111 881 q 133 972 140 908 q 106 1083 126 1035 q -24 1217 68 1175 q -286 1260 -117 1260 q -407 1245 -368 1260 q -446 1197 -446 1231 q -403 1151 -446 1167 q -262 1129 -360 1136 q -94 1064 -135 1119 q -81 883 -53 1008 q -138 810 -93 826 q -246 822 -183 794 l -232 883 q -216 964 -219 936 q -217 1008 -212 992 q -242 1040 -221 1031 q -322 1053 -262 1050 q -541 1108 -462 1060 q -619 1236 -619 1156 q -547 1363 -619 1315 q -344 1410 -475 1410 q -61 1347 -192 1410 q 154 1172 69 1285 q 231 1035 201 1108 q 271 879 260 961 q 310 919 286 906 q 367 932 335 932 l 372 932 l 394 788 l 385 788 q 324 779 350 788 q 275 751 299 771 q 269 690 274 721 q 258 626 265 658 l 129 0 l -31 0 z "},"ু":{"ha":0,"x_min":-951,"x_max":-329,"o":"m -399 -556 q -461 -456 -421 -503 q -553 -376 -501 -410 q -653 -474 -597 -437 q -769 -510 -710 -510 q -899 -462 -846 -510 q -951 -351 -951 -415 q -904 -251 -951 -293 q -789 -210 -857 -210 q -714 -218 -753 -210 q -635 -243 -675 -226 q -622 -194 -628 -221 q -610 -139 -615 -168 l -599 -85 l -439 -85 l -450 -139 q -475 -228 -460 -185 q -511 -310 -490 -272 q -383 -420 -437 -361 q -329 -507 -329 -479 q -349 -542 -329 -529 q -399 -556 -368 -556 m -789 -436 q -719 -410 -750 -436 q -664 -325 -687 -383 q -715 -314 -689 -318 q -767 -310 -740 -310 q -828 -328 -806 -310 q -851 -378 -851 -347 q -833 -419 -851 -403 q -789 -436 -814 -436 z "},"ূ":{"ha":0,"x_min":-924,"x_max":-319,"o":"m -319 -576 q -339 -612 -319 -599 q -389 -625 -358 -625 q -463 -525 -411 -568 q -582 -462 -515 -482 q -652 -499 -619 -487 q -724 -510 -685 -510 q -867 -461 -810 -510 q -924 -344 -924 -412 q -872 -238 -924 -281 q -742 -196 -821 -196 q -686 -199 -712 -196 q -632 -210 -660 -203 q -620 -178 -625 -196 q -610 -139 -615 -161 l -599 -85 l -439 -85 l -450 -139 q -481 -244 -461 -196 q -526 -325 -501 -292 q -633 -292 -589 -301 q -719 -282 -676 -282 q -796 -305 -768 -282 q -824 -364 -824 -328 q -797 -417 -824 -397 q -726 -436 -771 -436 q -660 -423 -692 -436 q -576 -371 -629 -410 q -408 -467 -497 -393 q -319 -576 -319 -542 z "},"ৃ":{"ha":0,"x_min":-885,"x_max":-439,"o":"m -885 -329 q -771 -266 -836 -293 q -632 -224 -706 -239 q -621 -184 -626 -207 q -610 -139 -615 -161 l -599 -85 l -439 -85 l -450 -139 q -477 -250 -464 -203 q -501 -325 -490 -297 q -633 -351 -571 -333 q -737 -392 -696 -368 q -617 -472 -672 -431 q -518 -557 -561 -514 q -503 -577 -508 -567 q -499 -597 -499 -587 q -513 -632 -499 -617 q -553 -656 -528 -647 q -678 -521 -610 -568 q -854 -439 -747 -474 l -885 -329 z "},"ৄ":{"ha":0,"x_min":-815,"x_max":-439,"o":"m -474 -764 q -488 -799 -474 -783 q -528 -822 -503 -814 q -590 -739 -568 -761 q -639 -699 -611 -717 q -704 -665 -667 -682 q -793 -632 -742 -649 l -815 -539 q -758 -505 -793 -522 q -675 -471 -722 -487 q -728 -447 -699 -458 q -793 -424 -757 -435 l -815 -331 q -728 -278 -776 -301 q -635 -242 -679 -254 q -621 -192 -628 -222 q -610 -139 -614 -162 l -599 -85 l -439 -85 l -450 -139 q -477 -250 -464 -203 q -501 -325 -490 -297 q -591 -345 -543 -331 q -672 -379 -639 -360 q -574 -444 -611 -415 q -493 -515 -536 -472 q -478 -535 -483 -525 q -474 -556 -474 -546 q -488 -590 -474 -575 q -528 -614 -503 -606 q -553 -576 -542 -593 q -575 -549 -565 -560 q -624 -565 -600 -556 q -672 -587 -649 -575 q -574 -652 -611 -624 q -493 -724 -536 -681 q -478 -744 -483 -733 q -474 -764 -474 -754 z "},"ে":{"ha":449,"x_min":-32,"x_max":451,"o":"m 221 -8 q 52 93 119 -8 q -15 349 -15 194 q 15 538 -15 439 q 96 722 44 638 q 115 752 106 738 q 136 779 125 767 q 93 785 117 783 q 39 788 69 788 l -10 788 l -32 932 l -12 932 q 106 910 54 932 q 197 844 158 889 q 298 910 244 888 q 408 932 351 932 l 429 932 l 451 788 l 435 788 q 300 719 365 788 q 188 532 235 651 q 135 352 153 447 q 117 165 117 257 q 119 138 117 147 q 128 128 122 128 q 135 132 132 128 q 140 149 138 136 q 185 235 151 203 q 265 267 218 267 q 350 233 318 267 q 382 142 382 199 q 334 38 382 85 q 221 -8 286 -8 z "},"ৈ":{"ha":449,"x_min":-43,"x_max":451,"o":"m 221 -8 q 52 93 119 -8 q -15 349 -15 194 q 14 538 -15 439 q 96 722 43 638 q 115 752 106 738 q 136 779 125 767 q 93 785 117 783 q 39 788 69 788 l -10 788 l -32 932 l -12 932 q 106 910 54 932 q 197 844 158 889 q 244 881 219 865 q 294 908 269 897 q 354 947 340 932 q 368 979 368 961 q 351 1001 368 993 q 304 1008 335 1008 q 42 1069 128 1008 q -43 1257 -43 1131 q -18 1344 -43 1307 q 43 1382 7 1382 q 76 1372 64 1382 q 100 1333 88 1361 q 57 1306 74 1326 q 40 1261 40 1286 q 60 1215 40 1231 q 118 1199 81 1199 q 365 1147 279 1199 q 451 1000 451 1094 q 446 962 451 979 q 429 929 440 944 l 451 788 l 435 788 q 300 719 365 788 q 188 532 235 651 q 135 352 153 447 q 117 165 117 257 q 119 138 117 147 q 128 128 122 128 q 135 132 132 128 q 140 149 138 136 q 185 235 151 203 q 265 267 218 267 q 350 233 318 267 q 382 142 382 199 q 334 38 382 85 q 221 -8 286 -8 z "},"ো":{"ha":1906,"x_min":-32,"x_max":1908,"o":"m 963 968 q 1015 947 993 968 q 1038 894 1038 925 q 1016 842 1038 864 q 963 819 994 819 q 910 842 932 819 q 889 894 889 864 q 910 947 889 925 q 963 968 932 968 m 221 -8 q 52 93 119 -8 q -15 349 -15 194 q 14 538 -15 439 q 96 722 43 638 q 115 752 106 738 q 136 779 125 767 q 93 785 117 783 q 39 788 69 788 l -10 788 l -32 932 l -12 932 q 106 910 54 932 q 197 844 158 889 q 298 910 244 888 q 408 932 351 932 l 429 932 l 451 788 l 435 788 q 300 719 365 788 q 188 532 235 651 q 135 352 153 447 q 117 165 117 257 q 119 138 117 147 q 128 128 122 128 q 135 132 132 128 q 140 149 138 136 q 185 235 151 203 q 265 267 218 267 q 350 233 318 267 q 382 142 382 199 q 334 38 382 85 q 221 -8 286 -8 m 1172 913 q 1224 891 1203 913 q 1246 839 1246 869 q 1224 786 1246 808 q 1172 764 1203 764 q 1119 786 1142 764 q 1097 839 1097 808 q 1119 891 1097 869 q 1172 913 1142 913 m 754 913 q 807 891 785 913 q 829 839 829 869 q 808 786 829 808 q 754 764 786 764 q 702 786 724 764 q 681 839 681 808 q 702 891 681 869 q 754 913 724 913 m 1642 0 l 1482 0 l 1642 743 q 1594 777 1624 767 q 1517 788 1564 788 l 1504 788 l 1482 932 l 1496 932 q 1596 903 1556 932 q 1658 817 1636 875 l 1721 1108 l 1768 1108 q 1791 970 1768 1008 q 1872 932 1814 932 l 1886 932 l 1908 788 l 1899 788 q 1856 807 1875 788 q 1824 863 1836 826 l 1642 0 m 1325 760 q 1377 738 1356 760 q 1399 686 1399 717 q 1377 633 1399 656 q 1325 611 1356 611 q 1272 633 1294 611 q 1250 686 1250 656 q 1272 738 1250 717 q 1325 760 1294 760 m 601 760 q 654 738 632 760 q 676 686 676 717 q 655 633 676 656 q 601 611 633 611 q 549 633 571 611 q 528 686 528 656 q 549 738 528 717 q 601 760 571 760 m 1379 403 q 1327 424 1349 403 q 1306 476 1306 446 q 1327 529 1306 507 q 1379 551 1349 551 q 1433 530 1411 551 q 1454 476 1454 508 q 1432 424 1454 446 q 1379 403 1410 403 m 546 551 q 599 530 576 551 q 621 478 621 508 q 599 425 621 447 q 546 403 578 403 q 494 425 515 403 q 472 478 472 447 q 494 530 472 508 q 546 551 515 551 m 1325 194 q 1272 216 1294 194 q 1250 268 1250 238 q 1272 322 1250 300 q 1325 343 1294 343 q 1377 321 1356 343 q 1399 268 1399 299 q 1377 216 1399 238 q 1325 194 1356 194 m 601 194 q 549 216 571 194 q 528 268 528 238 q 549 321 528 299 q 601 343 571 343 q 655 322 633 343 q 676 268 676 300 q 654 216 676 238 q 601 194 632 194 m 1172 42 q 1119 63 1142 42 q 1097 115 1097 85 q 1119 169 1097 147 q 1172 190 1142 190 q 1224 168 1203 190 q 1246 115 1246 146 q 1224 63 1246 85 q 1172 42 1203 42 m 754 42 q 702 63 724 42 q 681 115 681 85 q 702 168 681 146 q 754 190 724 190 q 808 169 786 190 q 829 115 829 147 q 807 63 829 85 q 754 42 785 42 m 963 -14 q 910 8 932 -14 q 889 60 889 29 q 910 113 889 90 q 963 135 932 135 q 1016 113 994 135 q 1038 60 1038 92 q 1015 8 1038 29 q 963 -14 993 -14 z "},"ৌ":{"ha":1906,"x_min":-32,"x_max":1908,"o":"m 963 968 q 1015 947 993 968 q 1038 894 1038 925 q 1016 842 1038 864 q 963 819 994 819 q 910 842 932 819 q 889 894 889 864 q 910 947 889 925 q 963 968 932 968 m 1482 0 l 1642 743 q 1593 777 1622 767 q 1517 788 1564 788 l 1504 788 l 1482 932 l 1496 932 q 1597 903 1556 932 q 1658 815 1638 874 q 1688 868 1668 843 q 1749 925 1708 893 q 1792 965 1782 951 q 1801 993 1801 979 q 1785 1025 1801 1014 q 1738 1036 1769 1036 q 1474 1097 1560 1036 q 1388 1285 1388 1158 q 1413 1372 1388 1335 q 1474 1410 1438 1410 q 1506 1399 1494 1410 q 1531 1361 1518 1389 q 1488 1334 1504 1354 q 1471 1289 1471 1314 q 1491 1242 1471 1258 q 1549 1226 1511 1226 q 1797 1171 1710 1226 q 1885 1014 1885 1115 q 1881 979 1885 997 q 1865 931 1876 961 q 1873 932 1869 932 q 1881 932 1876 932 l 1886 932 l 1908 788 l 1899 788 q 1847 781 1869 788 q 1803 761 1824 775 q 1800 750 1801 756 q 1797 739 1799 744 l 1642 0 l 1482 0 m 221 -8 q 52 93 119 -8 q -15 349 -15 194 q 14 538 -15 439 q 96 722 43 638 q 115 752 106 738 q 136 779 125 767 q 93 785 117 783 q 39 788 69 788 l -10 788 l -32 932 l -12 932 q 106 910 54 932 q 197 844 158 889 q 298 910 244 888 q 408 932 351 932 l 429 932 l 451 788 l 435 788 q 300 719 365 788 q 188 532 235 651 q 135 352 153 447 q 117 165 117 257 q 119 138 117 147 q 128 128 122 128 q 135 132 132 128 q 140 149 138 136 q 185 235 151 203 q 265 267 218 267 q 350 233 318 267 q 382 142 382 199 q 334 38 382 85 q 221 -8 286 -8 m 1172 913 q 1224 891 1203 913 q 1246 839 1246 869 q 1224 786 1246 808 q 1172 764 1203 764 q 1119 786 1142 764 q 1097 839 1097 808 q 1119 891 1097 869 q 1172 913 1142 913 m 754 913 q 807 891 785 913 q 829 839 829 869 q 808 786 829 808 q 754 764 786 764 q 702 786 724 764 q 681 839 681 808 q 702 891 681 869 q 754 913 724 913 m 1325 760 q 1377 738 1356 760 q 1399 686 1399 717 q 1377 633 1399 656 q 1325 611 1356 611 q 1272 633 1294 611 q 1250 686 1250 656 q 1272 738 1250 717 q 1325 760 1294 760 m 601 760 q 654 738 632 760 q 676 686 676 717 q 655 633 676 656 q 601 611 633 611 q 549 633 571 611 q 528 686 528 656 q 549 738 528 717 q 601 760 571 760 m 1379 403 q 1327 424 1349 403 q 1306 476 1306 446 q 1327 529 1306 507 q 1379 551 1349 551 q 1433 530 1411 551 q 1454 476 1454 508 q 1432 424 1454 446 q 1379 403 1410 403 m 546 551 q 599 530 576 551 q 621 478 621 508 q 599 425 621 447 q 546 403 578 403 q 494 425 515 403 q 472 478 472 447 q 494 530 472 508 q 546 551 515 551 m 1325 194 q 1272 216 1294 194 q 1250 268 1250 238 q 1272 322 1250 300 q 1325 343 1294 343 q 1377 321 1356 343 q 1399 268 1399 299 q 1377 216 1399 238 q 1325 194 1356 194 m 601 194 q 549 216 571 194 q 528 268 528 238 q 549 321 528 299 q 601 343 571 343 q 655 322 633 343 q 676 268 676 300 q 654 216 676 238 q 601 194 632 194 m 1172 42 q 1119 63 1142 42 q 1097 115 1097 85 q 1119 169 1097 147 q 1172 190 1142 190 q 1224 168 1203 190 q 1246 115 1246 146 q 1224 63 1246 85 q 1172 42 1203 42 m 754 42 q 702 63 724 42 q 681 115 681 85 q 702 168 681 146 q 754 190 724 190 q 808 169 786 190 q 829 115 829 147 q 807 63 829 85 q 754 42 785 42 m 963 -14 q 910 8 932 -14 q 889 60 889 29 q 910 113 889 90 q 963 135 932 135 q 1016 113 994 135 q 1038 60 1038 92 q 1015 8 1038 29 q 963 -14 993 -14 z "},"্":{"ha":0,"x_min":-528,"x_max":-104,"o":"m -150 -419 q -316 -290 -225 -340 q -528 -210 -407 -239 l -460 -87 q -262 -229 -347 -150 q -104 -419 -178 -308 l -150 -419 z "},"ৎ":{"ha":732,"x_min":60,"x_max":614,"o":"m 383 619 q 474 643 442 619 q 507 707 507 667 q 469 772 507 749 q 361 794 432 794 q 266 769 310 794 q 206 706 222 744 q 278 640 235 661 q 383 619 321 619 m 469 206 q 404 51 469 122 q 264 -21 339 -21 q 225 -15 242 -21 q 183 15 208 -8 q 291 63 260 33 q 322 140 322 93 q 301 213 322 175 q 213 321 281 250 q 90 479 119 418 q 60 606 60 540 q 146 844 60 743 q 358 944 232 944 q 540 867 465 944 q 614 696 614 790 q 565 531 614 592 q 428 471 515 471 q 308 506 369 471 q 206 596 247 542 q 249 519 218 561 q 340 417 281 476 q 445 292 421 336 q 469 206 469 249 z "},"ৗ":{"ha":392,"x_min":-126,"x_max":394,"o":"m -32 0 l 128 743 q 79 777 108 767 q 3 788 50 788 l -10 788 l -32 932 l -18 932 q 83 903 42 932 q 144 815 124 874 q 174 868 154 843 q 235 925 194 893 q 278 965 268 951 q 288 993 288 979 q 272 1025 288 1014 q 224 1036 256 1036 q -40 1097 46 1036 q -126 1285 -126 1158 q -101 1372 -126 1335 q -40 1410 -76 1410 q -8 1399 -19 1410 q 17 1361 4 1389 q -26 1334 -10 1354 q -43 1289 -43 1314 q -23 1242 -43 1258 q 35 1226 -3 1226 q 283 1171 196 1226 q 371 1014 371 1115 q 367 979 371 997 q 351 931 363 961 q 359 932 356 932 q 367 932 363 932 l 372 932 l 394 788 l 385 788 q 333 781 356 788 q 289 761 310 775 q 286 750 288 756 q 283 739 285 744 l 128 0 l -32 0 z "},"ৢ":{"ha":0,"x_min":-472,"x_max":-43,"o":"m -192 -322 l -240 -240 q -232 -205 -235 -224 q -229 -169 -229 -186 q -247 -112 -229 -132 q -299 -93 -265 -93 q -375 -126 -343 -93 q -407 -206 -407 -160 q -404 -226 -407 -217 q -396 -243 -401 -235 q -381 -181 -400 -206 q -332 -157 -362 -157 q -286 -176 -304 -157 q -268 -226 -268 -196 q -290 -287 -268 -262 q -346 -312 -312 -312 q -435 -263 -397 -312 q -472 -146 -472 -214 q -435 -39 -472 -82 q -342 4 -397 4 q -236 -40 -278 4 q -179 -167 -194 -83 q -114 -74 -131 -107 q -97 -15 -97 -40 q -111 22 -97 11 q -158 33 -125 33 q -328 75 -271 33 q -386 196 -386 117 q -372 246 -386 224 q -339 269 -358 268 q -321 262 -328 268 q -307 240 -314 256 q -331 222 -322 235 q -340 196 -340 210 q -324 169 -340 176 q -265 161 -307 161 q -99 108 -156 161 q -43 -47 -43 56 q -73 -185 -43 -122 q -164 -299 -103 -247 l -192 -322 z "},"ৣ":{"ha":0,"x_min":-472,"x_max":163,"o":"m 19 -500 l -29 -418 q -21 -383 -24 -401 q -18 -347 -18 -364 q -36 -292 -18 -311 q -87 -272 -54 -272 q -164 -306 -132 -272 q -196 -385 -196 -339 q -193 -404 -196 -396 q -186 -419 -190 -412 q -169 -359 -187 -383 q -121 -335 -150 -335 q -74 -355 -93 -335 q -56 -406 -56 -375 q -78 -467 -56 -442 q -135 -492 -101 -492 q -223 -442 -186 -492 q -260 -325 -260 -392 q -256 -288 -260 -307 q -243 -236 -253 -269 q -232 -196 -235 -210 q -229 -169 -229 -182 q -247 -112 -229 -132 q -299 -93 -265 -93 q -375 -126 -343 -93 q -407 -206 -407 -160 q -404 -226 -407 -217 q -396 -243 -401 -235 q -381 -181 -400 -206 q -332 -157 -362 -157 q -286 -176 -304 -157 q -268 -226 -268 -196 q -290 -287 -268 -262 q -346 -312 -312 -312 q -435 -263 -397 -312 q -472 -146 -472 -214 q -435 -39 -472 -82 q -342 4 -397 4 q -236 -40 -278 4 q -179 -167 -194 -83 q -115 -75 -133 -108 q -97 -15 -97 -42 q -111 22 -97 11 q -158 33 -125 33 q -328 75 -271 33 q -386 196 -386 117 q -372 246 -386 224 q -339 269 -358 268 q -321 262 -328 268 q -307 240 -314 256 q -331 222 -322 235 q -340 196 -340 210 q -324 169 -340 176 q -265 161 -307 161 q -108 116 -164 161 q -44 -18 -51 71 q 111 -73 60 -21 q 163 -226 163 -125 q 133 -353 163 -293 q 42 -476 104 -414 l 19 -500 m 54 -146 q -6 -142 22 -146 q -56 -133 -33 -139 q -65 -158 -60 -146 q -75 -183 -69 -171 q -8 -240 -35 -200 q 31 -340 19 -279 q 96 -252 78 -285 q 114 -194 114 -219 q 100 -157 114 -168 q 54 -146 86 -146 z "},"০":{"ha":735,"x_min":-8,"x_max":632,"o":"m -8 447 q 91 691 -8 593 q 339 789 190 789 q 550 699 468 789 q 632 468 632 608 q 536 225 632 321 q 294 129 440 129 q 76 218 161 129 q -8 447 -8 307 m 508 503 q 469 593 508 558 q 368 628 431 628 q 199 560 276 628 q 122 414 122 492 q 161 324 122 358 q 263 289 200 289 q 432 356 356 289 q 508 503 508 424 z "},"১":{"ha":671,"x_min":69,"x_max":557,"o":"m 271 -14 q 135 29 185 -14 q 85 144 85 72 q 124 248 85 207 q 218 289 163 289 q 309 252 272 289 q 350 158 346 215 q 451 224 415 178 q 488 338 488 269 q 448 447 488 394 q 279 588 408 500 q 110 728 150 675 q 69 840 69 782 q 103 944 69 903 q 197 985 138 985 q 270 968 238 985 q 319 921 303 951 q 276 874 290 899 q 263 818 263 850 q 281 765 263 793 q 365 678 300 736 q 518 499 479 574 q 557 339 557 424 q 475 81 557 175 q 271 -14 393 -14 z "},"২":{"ha":707,"x_min":60,"x_max":635,"o":"m 596 -225 q 585 -169 594 -193 q 550 -110 575 -144 q 356 73 476 -4 q 60 206 235 150 l 60 421 q 208 360 140 379 q 339 340 276 340 q 467 367 422 340 q 513 443 513 393 q 472 516 513 478 q 300 628 432 554 q 116 749 160 707 q 72 832 72 792 q 114 917 72 879 q 217 954 156 954 q 256 872 224 915 q 386 743 289 829 q 554 567 514 632 q 594 438 594 503 q 535 292 594 350 q 368 210 476 233 q 487 92 433 158 q 594 -71 540 25 q 635 -185 635 -146 q 596 -225 635 -225 z "},"৩":{"ha":774,"x_min":-40,"x_max":704,"o":"m 397 -14 q 215 43 301 -14 q 67 206 129 100 q -12 394 15 290 q -40 603 -40 497 q -21 681 -40 654 q 36 708 -1 708 q 69 701 53 708 q 96 679 85 693 q 68 622 78 656 q 58 550 58 589 q 142 257 58 367 q 358 147 226 147 q 539 227 472 147 q 606 438 606 307 q 583 552 606 504 q 521 625 561 600 q 521 619 521 622 q 521 614 521 617 q 474 509 521 553 q 360 465 426 465 q 231 513 282 465 q 181 631 181 560 q 233 755 181 707 q 375 803 286 803 q 608 676 513 803 q 704 369 704 550 q 626 84 704 182 q 397 -14 547 -14 z "},"৪":{"ha":693,"x_min":-28,"x_max":599,"o":"m 268 -14 q 56 52 139 -14 q -28 224 -28 118 q -5 319 -28 275 q 65 401 18 363 q 116 438 88 419 q 197 482 144 456 q 95 574 119 535 q 71 660 71 613 q 142 817 71 756 q 331 879 214 879 q 519 807 443 879 q 596 629 596 735 q 562 531 596 575 q 421 431 528 486 q 484 387 464 401 q 519 358 504 372 q 580 287 561 322 q 599 208 599 251 q 507 47 599 108 q 268 -14 415 -14 m 215 631 q 228 569 215 597 q 268 517 242 540 q 413 608 379 572 q 446 685 446 643 q 418 763 446 735 q 338 790 390 790 q 251 744 286 790 q 215 631 215 697 m 258 60 q 385 113 332 60 q 438 239 438 165 q 417 327 438 288 q 354 397 396 367 l 350 394 q 169 285 211 328 q 126 190 126 242 q 162 95 126 131 q 258 60 197 60 z "},"৫":{"ha":819,"x_min":1,"x_max":742,"o":"m 422 -14 q 115 99 229 -14 q 1 401 1 213 q 90 714 1 578 q 360 953 178 850 l 481 883 q 484 740 468 788 q 544 693 500 693 q 582 702 560 693 q 633 729 604 711 l 742 622 q 558 495 614 564 q 503 331 503 426 q 563 219 503 257 q 739 181 624 181 q 644 44 739 103 q 422 -14 549 -14 m 371 63 q 488 88 440 63 q 540 150 535 113 q 409 214 461 158 q 357 353 357 269 q 394 508 357 435 q 494 633 431 581 q 419 681 449 646 q 381 774 389 717 q 206 572 263 676 q 150 347 150 467 q 210 138 150 213 q 371 63 269 63 z "},"৬":{"ha":804,"x_min":-49,"x_max":729,"o":"m 204 803 q 210 876 211 846 q 197 932 208 906 q 241 955 221 949 q 288 961 261 961 q 360 925 339 961 q 369 822 382 889 l 314 521 q 308 424 301 453 q 343 394 314 394 q 425 452 378 394 q 585 697 472 510 q 692 534 656 619 q 729 360 729 449 q 642 90 729 193 q 413 -14 554 -14 q 83 165 215 -14 q -49 596 -49 343 q -33 653 -49 633 q 11 672 -18 672 q 40 665 28 672 q 67 643 53 658 q 55 577 58 610 q 51 510 51 544 q 132 244 51 338 q 357 150 213 150 q 551 226 472 150 q 631 404 631 303 q 626 433 631 419 q 615 460 622 447 q 519 322 571 368 q 406 276 467 276 q 217 374 285 276 q 172 610 150 472 l 204 803 z "},"৭":{"ha":686,"x_min":11,"x_max":572,"o":"m 288 0 l 354 301 q 103 365 194 308 q 11 517 11 421 q 41 654 11 585 q 122 778 71 724 q 240 859 174 831 q 382 888 307 888 q 538 783 482 888 q 563 536 593 679 l 447 0 l 288 0 m 253 407 q 304 413 274 407 q 382 432 335 418 l 438 683 q 441 769 450 739 q 404 799 432 799 q 326 767 371 799 q 244 685 282 735 q 190 592 210 639 q 171 501 171 544 q 190 428 171 450 q 253 407 208 407 z "},"৮":{"ha":757,"x_min":17,"x_max":715,"o":"m 208 -14 q 53 90 108 -14 q 28 338 -3 194 l 126 801 q 133 871 135 840 q 119 931 132 901 q 163 953 143 947 q 210 960 183 960 q 285 923 263 960 q 292 821 307 886 l 153 190 q 149 105 140 135 q 186 75 158 75 q 267 105 219 75 q 354 182 314 135 q 415 274 393 228 q 436 364 436 321 q 408 437 436 413 q 333 454 381 461 l 299 449 l 276 607 q 555 626 482 614 q 688 661 628 638 q 704 534 733 575 q 535 479 675 493 q 580 419 564 453 q 596 349 596 386 q 563 213 596 282 q 474 92 531 144 q 351 13 419 40 q 208 -14 283 -14 z "},"৯":{"ha":757,"x_min":-32,"x_max":650,"o":"m 439 -14 l 356 49 q 387 131 376 92 q 397 206 397 171 q 351 326 397 281 q 233 372 304 372 q 102 326 153 372 q 51 208 51 279 q 56 179 51 194 q 67 150 60 164 q 106 224 74 197 q 190 251 139 251 q 276 219 243 251 q 308 133 308 186 q 265 28 308 69 q 158 -14 221 -14 q 21 45 74 -14 q -32 207 -32 104 q 44 444 -32 351 q 240 536 119 536 q 408 458 342 536 q 474 261 474 381 q 472 228 474 244 q 468 194 471 211 q 549 289 525 244 q 572 382 572 333 q 532 479 572 433 q 361 600 492 525 q 179 730 222 679 q 136 840 136 781 q 170 944 136 903 q 264 985 204 985 q 337 968 304 985 q 386 921 369 951 q 343 874 357 899 q 329 818 329 850 q 349 767 329 793 q 442 688 369 740 q 608 523 565 594 q 650 367 650 451 q 594 174 650 274 q 439 -14 539 74 z "},"৲":{"ha":668,"x_min":-1,"x_max":557,"o":"m 557 33 q 544 -17 557 4 q 506 -53 531 -39 q 312 290 439 153 q -1 494 185 426 l 85 679 q 253 560 175 629 q 394 407 332 492 q 513 206 468 310 q 557 33 557 101 z "},"৳":{"ha":714,"x_min":14,"x_max":672,"o":"m 254 -29 q 76 80 133 -29 q 56 363 19 189 l 115 651 l 36 651 l 14 776 l 142 776 l 174 929 q 181 999 182 968 q 167 1058 179 1029 q 210 1081 190 1075 q 257 1088 231 1088 q 328 1054 308 1088 q 336 954 349 1021 l 300 776 l 650 776 l 672 651 l 275 651 l 176 165 q 173 93 167 118 q 200 68 179 68 q 310 131 242 68 q 413 271 379 194 q 347 317 372 283 q 322 392 322 351 q 361 490 322 453 q 464 526 400 526 q 569 484 529 526 q 610 372 610 442 q 579 245 610 314 q 496 114 549 176 q 375 9 439 47 q 254 -29 311 -29 z "},"।":{"ha":629,"x_min":250,"x_max":553,"o":"m 553 829 q 552 808 553 819 q 549 783 551 796 l 419 171 q 408 74 407 113 q 426 11 410 35 q 389 -19 413 -7 q 340 -31 365 -31 q 272 -5 294 -31 q 250 76 250 21 q 254 137 250 104 q 267 208 258 169 l 386 758 q 393 828 394 797 q 379 888 392 858 q 423 910 403 904 q 469 917 443 917 q 532 895 511 917 q 553 829 553 874 z "},"॥":{"ha":928,"x_min":250,"x_max":858,"o":"m 858 829 q 858 808 858 819 q 854 783 857 796 l 725 171 q 714 74 713 113 q 732 11 715 35 q 694 -19 718 -7 q 646 -31 671 -31 q 578 -5 600 -31 q 556 76 556 21 q 560 137 556 104 q 572 208 564 169 l 692 758 q 699 828 700 797 q 685 888 697 858 q 728 910 708 904 q 775 917 749 917 q 838 895 817 917 q 858 829 858 874 m 553 829 q 552 808 553 819 q 549 783 551 796 l 419 171 q 408 74 407 113 q 426 11 410 35 q 389 -19 413 -7 q 340 -31 365 -31 q 272 -5 294 -31 q 250 76 250 21 q 254 137 250 104 q 267 208 258 169 l 386 758 q 393 828 394 797 q 379 888 392 858 q 423 910 403 904 q 469 917 443 917 q 532 895 511 917 q 553 829 553 874 z "},"৴":{"ha":617,"x_min":-75,"x_max":525,"o":"m 435 840 q 499 819 472 842 q 525 757 525 796 q 395 343 525 585 q 90 -44 265 101 l -75 61 q 281 416 153 221 q 435 840 408 611 z "},"৵":{"ha":860,"x_min":-24,"x_max":768,"o":"m 347 -31 l 168 61 q 211 92 190 76 q 251 124 232 107 q 353 240 319 183 q 388 349 388 297 q 353 447 388 410 q 268 485 319 485 q 207 467 232 485 q 169 413 182 449 q 215 379 197 404 q 233 321 233 354 q 201 241 233 274 q 117 208 169 208 q 17 250 57 208 q -24 360 -24 292 q 40 533 -24 467 q 214 600 103 600 q 335 573 278 603 q 428 489 393 543 q 460 417 450 456 q 467 336 469 378 q 609 575 556 449 q 678 840 663 701 q 742 819 715 842 q 768 757 768 796 q 644 348 768 582 q 347 -31 519 114 z "}}}
